<svg width="157" height="51" viewBox="0 0 157 51" fill="none" xmlns="http://www.w3.org/2000/svg">
<g filter="url(#filter0_d_99_2036)">
<rect x="10.95" y="10.607" width="135.1" height="30.0913" rx="5.05" stroke="black" stroke-width="0.1" shape-rendering="crispEdges"/>
<path d="M36 25.6587C36 31.1862 31.538 35.6482 26.0105 35.6482C20.483 35.6482 16.021 31.1862 16.021 25.6587C16.021 20.1312 20.483 15.6692 26.0105 15.6692C31.538 15.6692 36 20.1312 36 25.6587Z" fill="#FFDD67"/>
<path d="M35.9334 19.3987C35.7669 18.4996 35.2674 17.7671 34.435 17.534C33.5359 17.3009 32.7368 17.6339 31.9709 18.433C31.538 17.2343 30.8721 16.3352 29.8065 15.8691C28.741 15.4029 27.6754 15.7359 27.0094 16.5683C26.3102 17.4341 26.0438 18.7993 26.7764 20.5641C27.4756 22.229 30.5724 25.5589 30.6723 25.6588C30.8055 25.5922 34.2685 23.4278 35.1009 22.3622C35.9334 21.33 36.0999 20.2977 35.9334 19.3987ZM25.0115 16.5683C24.3456 15.7359 23.28 15.4029 22.2145 15.8691C21.1489 16.3352 20.483 17.2343 20.0501 18.433C19.2509 17.6672 18.4518 17.3009 17.5527 17.5673C16.7535 17.8004 16.2208 18.5329 16.0543 19.432C15.8878 20.2977 16.0876 21.3633 16.8867 22.3955C17.7525 23.4278 21.2155 25.5922 21.3487 25.6588C21.4486 25.5589 24.5454 22.229 25.2446 20.5641C25.9772 18.7993 25.7108 17.4674 25.0115 16.5683Z" fill="#F46767"/>
<path d="M31.6713 27.69C31.6713 27.4236 31.5048 27.0906 31.0719 26.9907C29.9065 26.7577 28.2083 26.5579 26.0106 26.5579C23.8129 26.5579 22.1147 26.7909 20.9492 26.9907C20.483 27.0906 20.3499 27.4236 20.3499 27.69C20.3499 30.1208 22.2146 32.5516 26.0106 32.5516C29.8066 32.5183 31.6713 30.0875 31.6713 27.69Z" fill="#664E27"/>
<path d="M30.2394 27.7566C29.5068 27.6234 27.9751 27.4236 26.0105 27.4236C24.0459 27.4236 22.5141 27.6234 21.7816 27.7566C21.3487 27.8232 21.3154 27.9897 21.3487 28.256C21.382 28.3892 21.382 28.589 21.4486 28.7888C21.4819 28.9886 21.5485 29.0885 21.8815 29.0552C22.5141 28.9886 29.5401 28.9886 30.1728 29.0552C30.5057 29.0885 30.539 28.9886 30.6056 28.7888C30.6389 28.589 30.6722 28.4225 30.7055 28.256C30.7055 27.9897 30.6722 27.8232 30.2394 27.7566Z" fill="white"/>
<path d="M57.0889 31.7659H56.3857V18.9192H57.0889V31.7659ZM48.915 27.8547C50.0479 27.8547 51.061 27.8206 51.9546 27.7522C52.853 27.679 53.7783 27.5569 54.7305 27.386L54.8184 28.0159C53.7783 28.1917 52.7822 28.3137 51.8301 28.3821C50.8828 28.4504 49.7646 28.4846 48.4756 28.4846H47.4941V20.1936H53.5V20.8088H48.1826V27.8547H48.4756H48.915ZM63.6514 23.1526C63.6465 23.8264 63.8101 24.5149 64.1421 25.218C64.479 25.9163 64.916 26.5461 65.4531 27.1077C65.9902 27.6643 66.5469 28.0842 67.123 28.3674L66.6982 28.9241C66.2246 28.6799 65.7632 28.3455 65.314 27.9207C64.8696 27.491 64.4717 27.0027 64.1201 26.4558C63.7686 25.9041 63.5024 25.3303 63.3218 24.7346C63.1362 25.3645 62.8604 25.9773 62.4941 26.573C62.1279 27.1687 61.7129 27.6985 61.249 28.1624C60.7852 28.6213 60.3213 28.9778 59.8574 29.2317L59.418 28.675C59.9746 28.3918 60.5288 27.9524 61.0806 27.3567C61.6372 26.7561 62.0938 26.0823 62.4502 25.3352C62.8066 24.5881 62.9873 23.8606 62.9922 23.1526V20.8967H59.8428V20.2815H66.7275V20.8967H63.6514V23.1526ZM69.3789 24.2952H71.6787V24.9104H69.3789V31.7512H68.6904V18.9192H69.3789V24.2952ZM83.0459 28.3967H82.3428V18.9338H83.0459V28.3967ZM83.4854 31.4143H74.9453V27.4153H75.6338V30.8137H83.4854V31.4143ZM76.1758 19.886C76.8008 19.886 77.3599 20.0178 77.853 20.2815C78.3511 20.5403 78.7393 20.9041 79.0176 21.3728C79.3008 21.8367 79.4424 22.3665 79.4424 22.9622C79.4424 23.5627 79.3008 24.0999 79.0176 24.5735C78.7393 25.0422 78.3511 25.4084 77.853 25.6721C77.3599 25.9309 76.8008 26.0579 76.1758 26.053C75.5508 26.0579 74.9893 25.9309 74.4912 25.6721C73.9932 25.4084 73.6025 25.0422 73.3193 24.5735C73.041 24.0999 72.9043 23.5627 72.9092 22.9622C72.9043 22.3665 73.041 21.8367 73.3193 21.3728C73.6025 20.9041 73.9932 20.5403 74.4912 20.2815C74.9893 20.0178 75.5508 19.886 76.1758 19.886ZM76.1758 20.4866C75.6875 20.4915 75.2456 20.6038 74.8501 20.8235C74.4595 21.0383 74.1494 21.3337 73.9199 21.7097C73.6953 22.0857 73.583 22.5032 73.583 22.9622C73.583 23.426 73.6953 23.8459 73.9199 24.2219C74.1494 24.5979 74.4595 24.8958 74.8501 25.1155C75.2456 25.3303 75.6875 25.4377 76.1758 25.4377C76.6641 25.4377 77.1035 25.3303 77.4941 25.1155C77.8896 24.8958 78.1997 24.5979 78.4243 24.2219C78.6538 23.8459 78.7686 23.426 78.7686 22.9622C78.7686 22.5032 78.6538 22.0857 78.4243 21.7097C78.1997 21.3337 77.8896 21.0383 77.4941 20.8235C77.1035 20.6038 76.6641 20.4915 76.1758 20.4866ZM95.9805 31.7659H95.2773V18.9192H95.9805V31.7659ZM89.2568 19.9739C89.877 19.9739 90.4287 20.157 90.9121 20.5232C91.3955 20.8845 91.7739 21.3997 92.0474 22.0686C92.3208 22.7327 92.46 23.5042 92.4648 24.3831C92.46 25.2571 92.3208 26.0261 92.0474 26.6902C91.7739 27.3494 91.3955 27.8596 90.9121 28.2209C90.4287 28.5823 89.877 28.7629 89.2568 28.7629C88.6318 28.7629 88.0752 28.5823 87.5869 28.2209C87.1035 27.8596 86.7251 27.3494 86.4517 26.6902C86.1831 26.0261 86.0488 25.2571 86.0488 24.3831C86.0488 23.5042 86.1831 22.7327 86.4517 22.0686C86.7251 21.3997 87.1035 20.8845 87.5869 20.5232C88.0752 20.157 88.6318 19.9739 89.2568 19.9739ZM89.2568 20.5891C88.7637 20.5891 88.3242 20.7527 87.9385 21.0798C87.5576 21.4021 87.2598 21.8513 87.0449 22.4275C86.8301 23.0037 86.7227 23.6555 86.7227 24.3831C86.7227 25.1057 86.8301 25.7551 87.0449 26.3313C87.2598 26.9075 87.5576 27.3567 87.9385 27.679C88.3242 28.0012 88.7637 28.1624 89.2568 28.1624C89.7451 28.1624 90.1797 28.0012 90.5605 27.679C90.9414 27.3518 91.2393 26.9026 91.4541 26.3313C91.6689 25.7551 91.7764 25.1057 91.7764 24.3831C91.7764 23.6555 91.6689 23.0037 91.4541 22.4275C91.2393 21.8513 90.9414 21.4021 90.5605 21.0798C90.1797 20.7527 89.7451 20.5891 89.2568 20.5891ZM112.87 31.7512H112.182V18.9192H112.87V31.7512ZM110.351 31.0481H109.677V26.6682H107.274C107.055 27.3323 106.737 27.8474 106.322 28.2136C105.907 28.5798 105.424 28.7629 104.872 28.7629C104.33 28.7629 103.852 28.5872 103.437 28.2356C103.026 27.8792 102.709 27.3762 102.484 26.7268C102.26 26.0725 102.147 25.3108 102.147 24.4417C102.147 23.5725 102.26 22.8132 102.484 22.1638C102.709 21.5095 103.026 21.0066 103.437 20.655C103.852 20.2986 104.33 20.1204 104.872 20.1204C105.424 20.1204 105.907 20.3035 106.322 20.6697C106.737 21.0359 107.055 21.551 107.274 22.2151H109.677V19.2415H110.351V31.0481ZM104.872 20.7502C104.462 20.7502 104.101 20.9065 103.788 21.219C103.476 21.5315 103.234 21.9685 103.063 22.53C102.897 23.0867 102.816 23.7239 102.821 24.4417C102.816 25.1545 102.897 25.7917 103.063 26.3533C103.234 26.9099 103.476 27.3445 103.788 27.657C104.101 27.9695 104.462 28.1233 104.872 28.1184C105.282 28.1233 105.644 27.9695 105.956 27.657C106.269 27.3445 106.51 26.9099 106.681 26.3533C106.852 25.7917 106.938 25.1545 106.938 24.4417C106.938 23.7239 106.852 23.0867 106.681 22.53C106.51 21.9685 106.269 21.5315 105.956 21.219C105.644 20.9065 105.282 20.7502 104.872 20.7502ZM109.677 26.0676V22.8157H107.436C107.543 23.2942 107.597 23.8362 107.597 24.4417C107.597 25.0471 107.543 25.5891 107.436 26.0676H109.677ZM115.946 23.6653H117.924V20.135H118.554V28.5286H115.302V20.135H115.946V23.6653ZM117.924 27.9133V24.2512H115.946V27.9133H117.924ZM120.297 23.6653H122.274V20.135H122.904V23.9436H124.911V18.9192H125.585V31.7512H124.911V24.5735H122.904V28.5286H119.652V20.135H120.297V23.6653ZM122.274 27.9133V24.2512H120.297V27.9133H122.274ZM139.633 29.9934H127.885V29.3782H130.976V25.7014C130.39 25.428 129.933 25.0642 129.606 24.6101C129.279 24.156 129.115 23.6409 129.115 23.0647C129.115 22.425 129.311 21.8635 129.701 21.3801C130.092 20.8918 130.634 20.5159 131.327 20.2522C132.025 19.9885 132.821 19.8567 133.715 19.8567C134.613 19.8567 135.409 19.9885 136.103 20.2522C136.801 20.5159 137.343 20.8918 137.729 21.3801C138.119 21.8635 138.314 22.425 138.314 23.0647C138.314 23.636 138.156 24.1462 137.838 24.5955C137.526 25.0398 137.084 25.4011 136.513 25.6794V29.3782H139.633V29.9934ZM133.715 20.4426C132.968 20.4426 132.292 20.5549 131.686 20.7795C131.085 20.9993 130.614 21.3093 130.272 21.7097C129.931 22.1101 129.76 22.5618 129.76 23.0647C129.76 23.5627 129.931 24.012 130.272 24.4124C130.614 24.8079 131.085 25.1179 131.686 25.3425C132.292 25.5623 132.968 25.6721 133.715 25.6721C134.462 25.6721 135.136 25.5623 135.736 25.3425C136.342 25.1179 136.815 24.8079 137.157 24.4124C137.499 24.012 137.67 23.5627 137.67 23.0647C137.67 22.5618 137.499 22.1101 137.157 21.7097C136.815 21.3093 136.342 20.9993 135.736 20.7795C135.136 20.5549 134.462 20.4426 133.715 20.4426ZM135.81 29.3782V25.9504C135.18 26.1458 134.481 26.2434 133.715 26.2434C132.968 26.2434 132.279 26.1482 131.649 25.9578V29.3782H135.81Z" fill="black"/>
</g>
<defs>
<filter id="filter0_d_99_2036" x="0.899902" y="0.556885" width="155.2" height="50.1914" filterUnits="userSpaceOnUse" color-interpolation-filters="sRGB">
<feFlood flood-opacity="0" result="BackgroundImageFix"/>
<feColorMatrix in="SourceAlpha" type="matrix" values="0 0 0 0 0 0 0 0 0 0 0 0 0 0 0 0 0 0 127 0" result="hardAlpha"/>
<feOffset/>
<feGaussianBlur stdDeviation="5"/>
<feComposite in2="hardAlpha" operator="out"/>
<feColorMatrix type="matrix" values="0 0 0 0 0 0 0 0 0 0 0 0 0 0 0 0 0 0 0.8 0"/>
<feBlend mode="normal" in2="BackgroundImageFix" result="effect1_dropShadow_99_2036"/>
<feBlend mode="normal" in="SourceGraphic" in2="effect1_dropShadow_99_2036" result="shape"/>
</filter>
</defs>
</svg>
