<svg width="137" height="31" viewBox="0 0 137 31" fill="none" xmlns="http://www.w3.org/2000/svg">
<rect x="0.95" y="0.606982" width="135.1" height="30.0913" rx="5.05" stroke="black" stroke-width="0.1"/>
<path d="M26 15.6587C26 21.1862 21.538 25.6482 16.0105 25.6482C10.483 25.6482 6.021 21.1862 6.021 15.6587C6.021 10.1312 10.483 5.66919 16.0105 5.66919C21.538 5.66919 26 10.1312 26 15.6587Z" fill="#FFDD67"/>
<path d="M25.9334 9.39868C25.7669 8.49963 25.2674 7.76706 24.435 7.53398C23.5359 7.30089 22.7368 7.63387 21.9709 8.43303C21.538 7.23429 20.8721 6.33523 19.8065 5.86906C18.741 5.40288 17.6754 5.73586 17.0094 6.56832C16.3102 7.43408 16.0438 8.79931 16.7764 10.5641C17.4756 12.229 20.5724 15.5589 20.6723 15.6588C20.8055 15.5922 24.2685 13.4278 25.1009 12.3622C25.9334 11.33 26.0999 10.2977 25.9334 9.39868ZM15.0115 6.56832C14.3456 5.73586 13.28 5.40288 12.2145 5.86906C11.1489 6.33523 10.483 7.23429 10.0501 8.43303C9.25093 7.66717 8.45176 7.30089 7.55271 7.56727C6.75355 7.80036 6.22077 8.53293 6.05428 9.43198C5.88779 10.2977 6.08758 11.3633 6.88674 12.3955C7.7525 13.4278 11.2155 15.5922 11.3487 15.6588C11.4486 15.5589 14.5454 12.229 15.2446 10.5641C15.9772 8.79931 15.7108 7.46738 15.0115 6.56832Z" fill="#F46767"/>
<path d="M21.6713 17.69C21.6713 17.4236 21.5048 17.0906 21.0719 16.9907C19.9065 16.7577 18.2083 16.5579 16.0106 16.5579C13.8129 16.5579 12.1147 16.7909 10.9492 16.9907C10.483 17.0906 10.3499 17.4236 10.3499 17.69C10.3499 20.1208 12.2146 22.5516 16.0106 22.5516C19.8066 22.5183 21.6713 20.0875 21.6713 17.69Z" fill="#664E27"/>
<path d="M20.2394 17.7566C19.5068 17.6234 17.9751 17.4236 16.0105 17.4236C14.0459 17.4236 12.5141 17.6234 11.7816 17.7566C11.3487 17.8232 11.3154 17.9897 11.3487 18.256C11.382 18.3892 11.382 18.589 11.4486 18.7888C11.4819 18.9886 11.5485 19.0885 11.8815 19.0552C12.5141 18.9886 19.5401 18.9886 20.1728 19.0552C20.5057 19.0885 20.539 18.9886 20.6056 18.7888C20.6389 18.589 20.6722 18.4225 20.7055 18.256C20.7055 17.9897 20.6722 17.8232 20.2394 17.7566Z" fill="white"/>
<path d="M47.0889 21.7659H46.3857V8.91919H47.0889V21.7659ZM38.915 17.8547C40.0479 17.8547 41.061 17.8206 41.9546 17.7522C42.853 17.679 43.7783 17.5569 44.7305 17.386L44.8184 18.0159C43.7783 18.1917 42.7822 18.3137 41.8301 18.3821C40.8828 18.4504 39.7646 18.4846 38.4756 18.4846H37.4941V10.1936H43.5V10.8088H38.1826V17.8547H38.4756H38.915ZM53.6514 13.1526C53.6465 13.8264 53.8101 14.5149 54.1421 15.218C54.479 15.9163 54.916 16.5461 55.4531 17.1077C55.9902 17.6643 56.5469 18.0842 57.123 18.3674L56.6982 18.9241C56.2246 18.6799 55.7632 18.3455 55.314 17.9207C54.8696 17.491 54.4717 17.0027 54.1201 16.4558C53.7686 15.9041 53.5024 15.3303 53.3218 14.7346C53.1362 15.3645 52.8604 15.9773 52.4941 16.573C52.1279 17.1687 51.7129 17.6985 51.249 18.1624C50.7852 18.6213 50.3213 18.9778 49.8574 19.2317L49.418 18.675C49.9746 18.3918 50.5288 17.9524 51.0806 17.3567C51.6372 16.7561 52.0938 16.0823 52.4502 15.3352C52.8066 14.5881 52.9873 13.8606 52.9922 13.1526V10.8967H49.8428V10.2815H56.7275V10.8967H53.6514V13.1526ZM59.3789 14.2952H61.6787V14.9104H59.3789V21.7512H58.6904V8.91919H59.3789V14.2952ZM73.0459 18.3967H72.3428V8.93384H73.0459V18.3967ZM73.4854 21.4143H64.9453V17.4153H65.6338V20.8137H73.4854V21.4143ZM66.1758 9.88599C66.8008 9.88599 67.3599 10.0178 67.853 10.2815C68.3511 10.5403 68.7393 10.9041 69.0176 11.3728C69.3008 11.8367 69.4424 12.3665 69.4424 12.9622C69.4424 13.5627 69.3008 14.0999 69.0176 14.5735C68.7393 15.0422 68.3511 15.4084 67.853 15.6721C67.3599 15.9309 66.8008 16.0579 66.1758 16.053C65.5508 16.0579 64.9893 15.9309 64.4912 15.6721C63.9932 15.4084 63.6025 15.0422 63.3193 14.5735C63.041 14.0999 62.9043 13.5627 62.9092 12.9622C62.9043 12.3665 63.041 11.8367 63.3193 11.3728C63.6025 10.9041 63.9932 10.5403 64.4912 10.2815C64.9893 10.0178 65.5508 9.88599 66.1758 9.88599ZM66.1758 10.4866C65.6875 10.4915 65.2456 10.6038 64.8501 10.8235C64.4595 11.0383 64.1494 11.3337 63.9199 11.7097C63.6953 12.0857 63.583 12.5032 63.583 12.9622C63.583 13.426 63.6953 13.8459 63.9199 14.2219C64.1494 14.5979 64.4595 14.8958 64.8501 15.1155C65.2456 15.3303 65.6875 15.4377 66.1758 15.4377C66.6641 15.4377 67.1035 15.3303 67.4941 15.1155C67.8896 14.8958 68.1997 14.5979 68.4243 14.2219C68.6538 13.8459 68.7686 13.426 68.7686 12.9622C68.7686 12.5032 68.6538 12.0857 68.4243 11.7097C68.1997 11.3337 67.8896 11.0383 67.4941 10.8235C67.1035 10.6038 66.6641 10.4915 66.1758 10.4866ZM85.9805 21.7659H85.2773V8.91919H85.9805V21.7659ZM79.2568 9.97388C79.877 9.97388 80.4287 10.157 80.9121 10.5232C81.3955 10.8845 81.7739 11.3997 82.0474 12.0686C82.3208 12.7327 82.46 13.5042 82.4648 14.3831C82.46 15.2571 82.3208 16.0261 82.0474 16.6902C81.7739 17.3494 81.3955 17.8596 80.9121 18.2209C80.4287 18.5823 79.877 18.7629 79.2568 18.7629C78.6318 18.7629 78.0752 18.5823 77.5869 18.2209C77.1035 17.8596 76.7251 17.3494 76.4517 16.6902C76.1831 16.0261 76.0488 15.2571 76.0488 14.3831C76.0488 13.5042 76.1831 12.7327 76.4517 12.0686C76.7251 11.3997 77.1035 10.8845 77.5869 10.5232C78.0752 10.157 78.6318 9.97388 79.2568 9.97388ZM79.2568 10.5891C78.7637 10.5891 78.3242 10.7527 77.9385 11.0798C77.5576 11.4021 77.2598 11.8513 77.0449 12.4275C76.8301 13.0037 76.7227 13.6555 76.7227 14.3831C76.7227 15.1057 76.8301 15.7551 77.0449 16.3313C77.2598 16.9075 77.5576 17.3567 77.9385 17.679C78.3242 18.0012 78.7637 18.1624 79.2568 18.1624C79.7451 18.1624 80.1797 18.0012 80.5605 17.679C80.9414 17.3518 81.2393 16.9026 81.4541 16.3313C81.6689 15.7551 81.7764 15.1057 81.7764 14.3831C81.7764 13.6555 81.6689 13.0037 81.4541 12.4275C81.2393 11.8513 80.9414 11.4021 80.5605 11.0798C80.1797 10.7527 79.7451 10.5891 79.2568 10.5891ZM102.87 21.7512H102.182V8.91919H102.87V21.7512ZM100.351 21.0481H99.6768V16.6682H97.2744C97.0547 17.3323 96.7373 17.8474 96.3223 18.2136C95.9072 18.5798 95.4238 18.7629 94.8721 18.7629C94.3301 18.7629 93.8516 18.5872 93.4365 18.2356C93.0264 17.8792 92.709 17.3762 92.4844 16.7268C92.2598 16.0725 92.1475 15.3108 92.1475 14.4417C92.1475 13.5725 92.2598 12.8132 92.4844 12.1638C92.709 11.5095 93.0264 11.0066 93.4365 10.655C93.8516 10.2986 94.3301 10.1204 94.8721 10.1204C95.4238 10.1204 95.9072 10.3035 96.3223 10.6697C96.7373 11.0359 97.0547 11.551 97.2744 12.2151H99.6768V9.24146H100.351V21.0481ZM94.8721 10.7502C94.4619 10.7502 94.1006 10.9065 93.7881 11.219C93.4756 11.5315 93.2339 11.9685 93.063 12.53C92.897 13.0867 92.8164 13.7239 92.8213 14.4417C92.8164 15.1545 92.897 15.7917 93.063 16.3533C93.2339 16.9099 93.4756 17.3445 93.7881 17.657C94.1006 17.9695 94.4619 18.1233 94.8721 18.1184C95.2822 18.1233 95.6436 17.9695 95.9561 17.657C96.2686 17.3445 96.5103 16.9099 96.6812 16.3533C96.8521 15.7917 96.9375 15.1545 96.9375 14.4417C96.9375 13.7239 96.8521 13.0867 96.6812 12.53C96.5103 11.9685 96.2686 11.5315 95.9561 11.219C95.6436 10.9065 95.2822 10.7502 94.8721 10.7502ZM99.6768 16.0676V12.8157H97.4355C97.543 13.2942 97.5967 13.8362 97.5967 14.4417C97.5967 15.0471 97.543 15.5891 97.4355 16.0676H99.6768ZM105.946 13.6653H107.924V10.135H108.554V18.5286H105.302V10.135H105.946V13.6653ZM107.924 17.9133V14.2512H105.946V17.9133H107.924ZM110.297 13.6653H112.274V10.135H112.904V13.9436H114.911V8.91919H115.585V21.7512H114.911V14.5735H112.904V18.5286H109.652V10.135H110.297V13.6653ZM112.274 17.9133V14.2512H110.297V17.9133H112.274ZM129.633 19.9934H117.885V19.3782H120.976V15.7014C120.39 15.428 119.933 15.0642 119.606 14.6101C119.279 14.156 119.115 13.6409 119.115 13.0647C119.115 12.425 119.311 11.8635 119.701 11.3801C120.092 10.8918 120.634 10.5159 121.327 10.2522C122.025 9.98853 122.821 9.85669 123.715 9.85669C124.613 9.85669 125.409 9.98853 126.103 10.2522C126.801 10.5159 127.343 10.8918 127.729 11.3801C128.119 11.8635 128.314 12.425 128.314 13.0647C128.314 13.636 128.156 14.1462 127.838 14.5955C127.526 15.0398 127.084 15.4011 126.513 15.6794V19.3782H129.633V19.9934ZM123.715 10.4426C122.968 10.4426 122.292 10.5549 121.686 10.7795C121.085 10.9993 120.614 11.3093 120.272 11.7097C119.931 12.1101 119.76 12.5618 119.76 13.0647C119.76 13.5627 119.931 14.012 120.272 14.4124C120.614 14.8079 121.085 15.1179 121.686 15.3425C122.292 15.5623 122.968 15.6721 123.715 15.6721C124.462 15.6721 125.136 15.5623 125.736 15.3425C126.342 15.1179 126.815 14.8079 127.157 14.4124C127.499 14.012 127.67 13.5627 127.67 13.0647C127.67 12.5618 127.499 12.1101 127.157 11.7097C126.815 11.3093 126.342 10.9993 125.736 10.7795C125.136 10.5549 124.462 10.4426 123.715 10.4426ZM125.81 19.3782V15.9504C125.18 16.1458 124.481 16.2434 123.715 16.2434C122.968 16.2434 122.279 16.1482 121.649 15.9578V19.3782H125.81Z" fill="black"/>
</svg>
