<svg width="144" height="33" viewBox="0 0 144 33" fill="none" xmlns="http://www.w3.org/2000/svg">
<rect x="0.95" y="0.598437" width="142.797" height="32.1" rx="5.05" stroke="black" stroke-width="0.1"/>
<path d="M13.4218 14.8338C13.4218 14.8338 15.0374 15.1643 13.7155 12.4104C12.7609 10.4276 12.871 8.11437 13.7155 6.90267C15.1108 4.9566 17.7913 5.58081 17.4975 6.71908C16.5428 10.5745 18.7092 11.7495 19.8108 14.1729C20.949 16.633 20.8389 20.1579 20.3248 23.279C19.9944 25.225 19.1498 27.6484 16.1022 27.6484H11.8796L13.4218 14.8338Z" fill="#FFDD67"/>
<path d="M15.6249 27.0978C18.6725 27.0978 19.3334 24.6744 19.6639 22.7283C20.1779 19.6073 20.2514 17.1104 19.26 14.5769C18.1584 11.823 17.0202 11.7496 17.0202 6.31527C17.0202 6.05825 16.8733 5.87466 16.7264 5.72778C17.2405 5.91137 17.5342 6.20512 17.5342 6.64574C17.5342 10.7215 18.6725 11.7128 19.774 14.173C20.949 16.6331 20.8389 20.158 20.3248 23.2791C19.9944 25.2251 19.1498 27.6485 16.1022 27.6485H11.8796V27.0978H15.6249Z" fill="#EBA352"/>
<path d="M8.20774 18.0282H13.4217C15.2576 18.0282 15.2576 14.8337 13.4217 14.8337H8.20774C6.37183 14.8337 6.37183 18.0282 8.20774 18.0282Z" fill="#FFDD67"/>
<path d="M7.80389 17.5141H13.0179C14.2663 17.5141 14.6335 16.0454 14.2296 15.1274C15.221 15.8985 14.9272 18.0649 13.4585 18.0649H8.20779C7.6203 18.0649 7.2164 17.7344 6.99609 17.2571C7.2164 17.404 7.47343 17.5141 7.80389 17.5141Z" fill="#EBA352"/>
<path d="M7.65694 21.2594H13.899C16.1021 21.2594 16.1021 18.0649 13.899 18.0649H7.62022C5.45385 18.0649 5.45385 21.2594 7.65694 21.2594Z" fill="#FFDD67"/>
<path d="M7.14291 20.7087H13.4217C14.8904 20.7087 15.3678 19.24 14.8537 18.322C16.0287 19.0931 15.6982 21.2595 13.899 21.2595H7.62024C6.9226 21.2595 6.44526 20.929 6.18823 20.4517C6.44526 20.5985 6.77572 20.7087 7.14291 20.7087Z" fill="#EBA352"/>
<path d="M8.24431 24.454H13.5317C15.3676 24.454 15.3676 21.2595 13.5317 21.2595H8.24431C6.37169 21.2595 6.37169 24.454 8.24431 24.454Z" fill="#FFDD67"/>
<path d="M7.8038 23.9031H13.1279C14.3763 23.9031 14.7803 22.4344 14.3396 21.4797C15.331 22.2508 15.074 24.4172 13.5318 24.4172H8.24441C7.65692 24.4172 7.25302 24.0867 7.03271 23.6094C7.21631 23.8297 7.51005 23.9031 7.8038 23.9031Z" fill="#EBA352"/>
<path d="M8.79519 27.6483H12.21C14.1928 27.6483 14.1928 24.4539 12.21 24.4539H8.79519C6.81241 24.4539 6.81241 27.6483 8.79519 27.6483Z" fill="#FFDD67"/>
<path d="M8.35453 27.1343H11.7693C13.0912 27.1343 13.5318 25.6656 13.0545 24.7109C14.1193 25.482 13.8255 27.6484 12.2099 27.6484H8.79515C8.13422 27.6484 7.73032 27.3179 7.51001 26.8406C7.73032 27.0242 8.02406 27.1343 8.35453 27.1343Z" fill="#EBA352"/>
<path d="M41.8003 22.7471H41.1118V9.91504H41.8003V22.7471ZM39.0024 12.0391H37.3325V18.6089C38.1333 18.5601 38.9438 18.4893 39.7642 18.3965L39.8228 18.9385C38.563 19.1289 37.2471 19.2534 35.875 19.312C34.5078 19.3657 33.0161 19.3926 31.3999 19.3926L31.2974 18.748H31.854C32.479 18.748 32.9575 18.7456 33.2896 18.7407V12.0391H31.6343V11.4385H39.0024V12.0391ZM33.9634 18.7334C34.8472 18.7188 35.7407 18.6895 36.644 18.6455V12.0391H33.9634V18.7334ZM54.5737 16.8291H45.8433V11.1895H54.4272V11.79H46.5464V16.2285H54.5737V16.8291ZM56.0239 20.8574H44.2759V20.2568H56.0239V20.8574ZM58.5728 12.918H62.1616V10.7354H62.8354V16.5654H57.9136V10.7354H58.5728V12.918ZM62.1616 15.9502V13.5039H58.5728V15.9502H62.1616ZM68.0356 17.6055H67.3765V13.9873H65.2524V17.5029H64.5786V10.1787H65.2524V13.3867H67.3765V9.92969H68.0356V17.6055ZM68.0356 22.7471H67.3618V19.0996H59.5396V18.499H68.0356V22.7471ZM80.6772 22.7617H79.9741V9.91504H80.6772V22.7617ZM73.9536 10.9697C74.5737 10.9697 75.1255 11.1528 75.6089 11.519C76.0923 11.8804 76.4707 12.3955 76.7441 13.0645C77.0176 13.7285 77.1567 14.5 77.1616 15.3789C77.1567 16.2529 77.0176 17.022 76.7441 17.686C76.4707 18.3452 76.0923 18.8555 75.6089 19.2168C75.1255 19.5781 74.5737 19.7588 73.9536 19.7588C73.3286 19.7588 72.772 19.5781 72.2837 19.2168C71.8003 18.8555 71.4219 18.3452 71.1484 17.686C70.8799 17.022 70.7456 16.2529 70.7456 15.3789C70.7456 14.5 70.8799 13.7285 71.1484 13.0645C71.4219 12.3955 71.8003 11.8804 72.2837 11.519C72.772 11.1528 73.3286 10.9697 73.9536 10.9697ZM73.9536 11.585C73.4604 11.585 73.021 11.7485 72.6353 12.0757C72.2544 12.3979 71.9565 12.8472 71.7417 13.4233C71.5269 13.9995 71.4194 14.6514 71.4194 15.3789C71.4194 16.1016 71.5269 16.751 71.7417 17.3271C71.9565 17.9033 72.2544 18.3525 72.6353 18.6748C73.021 18.9971 73.4604 19.1582 73.9536 19.1582C74.4419 19.1582 74.8765 18.9971 75.2573 18.6748C75.6382 18.3477 75.936 17.8984 76.1509 17.3271C76.3657 16.751 76.4731 16.1016 76.4731 15.3789C76.4731 14.6514 76.3657 13.9995 76.1509 13.4233C75.936 12.8472 75.6382 12.3979 75.2573 12.0757C74.8765 11.7485 74.4419 11.585 73.9536 11.585ZM97.1567 17.5615H96.4683V15.2764H93.0405V16.4922H87.2983V10.9111H93.0405V12.1416H96.4683V9.91504H97.1567V17.5615ZM87.9722 15.8916H92.3521V11.5117H87.9722V15.8916ZM92.9966 17.957C93.8657 17.957 94.6152 18.0522 95.2451 18.2427C95.8799 18.4282 96.3657 18.6992 96.7026 19.0557C97.0444 19.4121 97.2153 19.8418 97.2153 20.3447C97.2153 20.8379 97.0444 21.2603 96.7026 21.6118C96.3657 21.9634 95.8799 22.2295 95.2451 22.4102C94.6152 22.5957 93.8657 22.6885 92.9966 22.6885C92.1177 22.6885 91.3608 22.5957 90.7261 22.4102C90.0962 22.2295 89.6128 21.9634 89.2759 21.6118C88.939 21.2603 88.7729 20.8379 88.7778 20.3447C88.7729 19.8418 88.939 19.4121 89.2759 19.0557C89.6128 18.6943 90.0962 18.4209 90.7261 18.2354C91.3608 18.0498 92.1177 17.957 92.9966 17.957ZM92.9966 18.543C92.2886 18.543 91.666 18.6162 91.1289 18.7627C90.5967 18.9092 90.1841 19.1191 89.8911 19.3926C89.5981 19.666 89.4517 19.9834 89.4517 20.3447C89.4517 20.6963 89.5981 21.0063 89.8911 21.2749C90.1841 21.5386 90.5967 21.7412 91.1289 21.8828C91.666 22.0293 92.2886 22.1025 92.9966 22.1025C93.6997 22.1025 94.3174 22.0293 94.8496 21.8828C95.3818 21.7412 95.7944 21.5386 96.0874 21.2749C96.3804 21.0063 96.5269 20.6963 96.5269 20.3447C96.5269 19.9834 96.3804 19.666 96.0874 19.3926C95.7944 19.1191 95.3818 18.9092 94.8496 18.7627C94.3174 18.6162 93.6997 18.543 92.9966 18.543ZM96.4683 14.6758V12.7568H93.0405V14.6758H96.4683ZM109.461 13.9434H111.556V14.5586H109.461V18.4258H108.773V9.92969H109.461V13.9434ZM100.599 17.3418C101.781 17.3418 102.694 17.3296 103.338 17.3052V16.2212C102.816 16.1968 102.359 16.104 101.969 15.9429C101.578 15.7817 101.275 15.5645 101.061 15.291C100.851 15.0127 100.746 14.6904 100.746 14.3242C100.746 13.9385 100.865 13.604 101.104 13.3208C101.349 13.0327 101.69 12.813 102.13 12.6616C102.569 12.5103 103.08 12.4346 103.661 12.4346C104.242 12.4346 104.752 12.5103 105.191 12.6616C105.631 12.813 105.97 13.0327 106.209 13.3208C106.454 13.604 106.576 13.9385 106.576 14.3242C106.576 14.6855 106.471 15.0029 106.261 15.2764C106.056 15.5498 105.76 15.7695 105.375 15.9355C104.994 16.0967 104.544 16.1919 104.027 16.2212V17.2759C105.467 17.2124 106.742 17.0928 107.85 16.917L107.909 17.459C106.673 17.6836 105.409 17.8252 104.115 17.8838C102.826 17.9424 101.356 17.9717 99.7056 17.9717L99.603 17.3418H100.599ZM109.461 22.7471H108.773V19.7588H101.156V19.1582H109.461V22.7471ZM107.411 11.8193H99.9253V11.2334H103.338V9.8125H104.027V11.2334H107.411V11.8193ZM103.661 12.9766C103.211 12.9766 102.816 13.0327 102.474 13.145C102.132 13.2573 101.869 13.416 101.683 13.6211C101.498 13.8213 101.405 14.0557 101.405 14.3242C101.405 14.5879 101.498 14.8223 101.683 15.0273C101.874 15.2324 102.14 15.3936 102.481 15.5107C102.823 15.623 103.216 15.6768 103.661 15.6719C104.105 15.6768 104.498 15.623 104.84 15.5107C105.182 15.3936 105.445 15.2324 105.631 15.0273C105.821 14.8223 105.917 14.5879 105.917 14.3242C105.917 14.0557 105.824 13.8213 105.638 13.6211C105.453 13.416 105.189 13.2573 104.847 13.145C104.505 13.0327 104.11 12.9766 103.661 12.9766ZM119.129 12.9033H112.552V12.3027H115.482V10.3105H116.185V12.3027H119.129V12.9033ZM115.833 13.9434C116.356 13.9482 116.825 14.0728 117.24 14.3169C117.655 14.5562 117.979 14.8906 118.214 15.3203C118.448 15.75 118.568 16.2383 118.573 16.7852C118.568 17.3369 118.446 17.8301 118.207 18.2646C117.972 18.6943 117.647 19.0312 117.232 19.2754C116.822 19.5146 116.356 19.6318 115.833 19.627C115.311 19.6318 114.842 19.5146 114.427 19.2754C114.012 19.0312 113.688 18.6919 113.453 18.2573C113.219 17.8228 113.104 17.332 113.109 16.7852C113.104 16.2383 113.219 15.75 113.453 15.3203C113.688 14.8906 114.012 14.5562 114.427 14.3169C114.842 14.0728 115.311 13.9482 115.833 13.9434ZM115.833 14.5586C115.438 14.5635 115.079 14.666 114.757 14.8662C114.439 15.0615 114.19 15.3301 114.01 15.6719C113.829 16.0088 113.739 16.3799 113.739 16.7852C113.739 17.1953 113.829 17.5713 114.01 17.9131C114.19 18.25 114.439 18.5161 114.757 18.7114C115.079 18.9067 115.438 19.002 115.833 18.9971C116.229 19.002 116.585 18.9067 116.903 18.7114C117.225 18.5161 117.477 18.25 117.657 17.9131C117.838 17.5713 117.928 17.1953 117.928 16.7852C117.928 16.3799 117.838 16.0088 117.657 15.6719C117.477 15.3301 117.225 15.0615 116.903 14.8662C116.585 14.666 116.229 14.5635 115.833 14.5586ZM123.407 22.7471H122.733V16.0527H120.58V22.0586H119.92V10.252H120.58V15.4375H122.733V9.91504H123.407V22.7471ZM137.293 20.9893H125.545V20.374H128.636V16.6973C128.05 16.4238 127.594 16.0601 127.267 15.606C126.939 15.1519 126.776 14.6367 126.776 14.0605C126.776 13.4209 126.971 12.8594 127.362 12.376C127.752 11.8877 128.294 11.5117 128.988 11.248C129.686 10.9844 130.482 10.8525 131.375 10.8525C132.274 10.8525 133.07 10.9844 133.763 11.248C134.461 11.5117 135.003 11.8877 135.389 12.376C135.78 12.8594 135.975 13.4209 135.975 14.0605C135.975 14.6318 135.816 15.1421 135.499 15.5913C135.187 16.0356 134.745 16.397 134.173 16.6753V20.374H137.293V20.9893ZM131.375 11.4385C130.628 11.4385 129.952 11.5508 129.347 11.7754C128.746 11.9951 128.275 12.3052 127.933 12.7056C127.591 13.106 127.42 13.5576 127.42 14.0605C127.42 14.5586 127.591 15.0078 127.933 15.4082C128.275 15.8037 128.746 16.1138 129.347 16.3384C129.952 16.5581 130.628 16.668 131.375 16.668C132.123 16.668 132.796 16.5581 133.397 16.3384C134.002 16.1138 134.476 15.8037 134.818 15.4082C135.16 15.0078 135.331 14.5586 135.331 14.0605C135.331 13.5576 135.16 13.106 134.818 12.7056C134.476 12.3052 134.002 11.9951 133.397 11.7754C132.796 11.5508 132.123 11.4385 131.375 11.4385ZM133.47 20.374V16.9463C132.84 17.1416 132.142 17.2393 131.375 17.2393C130.628 17.2393 129.94 17.144 129.31 16.9536V20.374H133.47Z" fill="black"/>
</svg>
