<svg width="196" height="32" viewBox="0 0 196 32" fill="none" xmlns="http://www.w3.org/2000/svg">
<rect x="0.95" y="0.95" width="194.1" height="30.1" rx="5.05" stroke="black" stroke-width="0.1"/>
<path d="M16 26C21.5228 26 26 21.5228 26 16C26 10.4772 21.5228 6 16 6C10.4772 6 6 10.4772 6 16C6 21.5228 10.4772 26 16 26Z" fill="#FFDD67"/>
<path d="M11.0002 19.0001C13.0252 19.0001 14.6668 17.3585 14.6668 15.3334C14.6668 13.3084 13.0252 11.6667 11.0002 11.6667C8.97512 11.6667 7.3335 13.3084 7.3335 15.3334C7.3335 17.3585 8.97512 19.0001 11.0002 19.0001Z" fill="white"/>
<path d="M21.0002 19.0001C23.0252 19.0001 24.6668 17.3585 24.6668 15.3334C24.6668 13.3084 23.0252 11.6667 21.0002 11.6667C18.9751 11.6667 17.3335 13.3084 17.3335 15.3334C17.3335 17.3585 18.9751 19.0001 21.0002 19.0001Z" fill="white"/>
<path d="M17.3333 14.3334C16.7333 13.9001 15.2667 13.9001 14.6667 14.3334C14.3 14.0001 14.3667 13.6334 14 13.3001C15.0333 12.5334 16.8 12.4001 18 13.3001C17.6333 13.6334 17.7 14.0001 17.3333 14.3334Z" fill="#494949"/>
<path d="M20.9998 11C18.5998 11 16.6665 12.9333 16.6665 15.3333C16.6665 17.7333 18.5998 19.6667 20.9998 19.6667C23.3998 19.6667 25.3332 17.7333 25.3332 15.3333C25.3332 12.9333 23.3998 11 20.9998 11ZM20.9998 18.6667C19.1665 18.6667 17.6665 17.1667 17.6665 15.3333C17.6665 13.5 19.1665 12 20.9998 12C22.8332 12 24.3332 13.5 24.3332 15.3333C24.3332 17.1667 22.8332 18.6667 20.9998 18.6667ZM10.9998 11C8.59984 11 6.6665 12.9333 6.6665 15.3333C6.6665 17.7333 8.59984 19.6667 10.9998 19.6667C13.3998 19.6667 15.3332 17.7333 15.3332 15.3333C15.3332 12.9333 13.3998 11 10.9998 11ZM10.9998 18.6667C9.1665 18.6667 7.6665 17.1667 7.6665 15.3333C7.6665 13.5 9.1665 12 10.9998 12C12.8332 12 14.3332 13.5 14.3332 15.3333C14.3332 17.1667 12.8332 18.6667 10.9998 18.6667Z" fill="#494949"/>
<path d="M11.9998 17.1666C12.7362 17.1666 13.3332 16.4204 13.3332 15.4999C13.3332 14.5794 12.7362 13.8333 11.9998 13.8333C11.2635 13.8333 10.6665 14.5794 10.6665 15.4999C10.6665 16.4204 11.2635 17.1666 11.9998 17.1666Z" fill="#664E27"/>
<path d="M19.9998 17.1666C20.7362 17.1666 21.3332 16.4204 21.3332 15.4999C21.3332 14.5794 20.7362 13.8333 19.9998 13.8333C19.2635 13.8333 18.6665 14.5794 18.6665 15.4999C18.6665 16.4204 19.2635 17.1666 19.9998 17.1666Z" fill="#664E27"/>
<path d="M14.2333 22.4332C16.1667 22.9332 18.2333 22.5665 19.8667 21.4332C20.2667 21.1332 19.5 20.0999 19.1 20.3665C18.0333 21.1332 16.3 21.6332 14.5333 21.1665C14.1 21.0665 13.7333 22.2999 14.2333 22.4332Z" fill="#664E27"/>
<path d="M23.0667 10.5666C22.0001 9.66663 20.5667 9.26663 19.1667 9.5333C18.9667 9.56663 18.8001 8.86663 19.0334 8.79997C20.6334 8.49997 22.3001 8.96663 23.5334 9.99997C23.7334 10.1666 23.2001 10.7 23.0667 10.5666ZM12.8334 9.46663C11.4334 9.2333 10.0001 9.59997 8.9334 10.5C8.80006 10.6333 8.26673 10.1 8.46673 9.9333C9.70006 8.86663 11.3667 8.4333 12.9667 8.7333C13.2001 8.79997 13.0334 9.49997 12.8334 9.46663Z" fill="#917524"/>
<path d="M46.9863 19.0518H46.2832V17.499H43.5146V16.9424H46.2832V9.28125H46.9863V19.0518ZM47.3232 21.7617H38.5049V18.0703H39.208V21.1611H47.3232V21.7617ZM36.5273 15.375C38.1973 15.375 39.7134 15.353 41.0757 15.3091C42.438 15.2603 43.7295 15.1553 44.9502 14.9941L45.0088 15.5361C43.8662 15.7119 42.5967 15.8364 41.2002 15.9097V18.5098H40.4971V15.939C39.54 15.9731 38.5635 15.9902 37.5674 15.9902H36.6445L36.5273 15.375ZM40.7754 9.85254C41.3955 9.85254 41.9424 9.94287 42.416 10.1235C42.8896 10.2993 43.2559 10.5532 43.5146 10.8853C43.7783 11.2173 43.9102 11.6055 43.9102 12.0498C43.9102 12.499 43.7783 12.8896 43.5146 13.2217C43.2559 13.5488 42.8896 13.8027 42.416 13.9834C41.9473 14.1592 41.4004 14.2471 40.7754 14.2471C40.1455 14.2471 39.5913 14.1592 39.1128 13.9834C38.6343 13.8027 38.2632 13.5488 37.9995 13.2217C37.7407 12.8896 37.6113 12.499 37.6113 12.0498C37.6113 11.6055 37.7407 11.2173 37.9995 10.8853C38.2632 10.5532 38.6343 10.2993 39.1128 10.1235C39.5913 9.94287 40.1455 9.85254 40.7754 9.85254ZM40.7754 10.4092C40.292 10.4043 39.8599 10.4727 39.479 10.6143C39.0981 10.7559 38.8027 10.9536 38.5928 11.2075C38.3828 11.4565 38.2803 11.7373 38.2852 12.0498C38.2803 12.3672 38.3828 12.6504 38.5928 12.8994C38.8027 13.1484 39.0957 13.3438 39.4717 13.4854C39.8525 13.6221 40.2871 13.6904 40.7754 13.6904C41.249 13.6904 41.6714 13.6221 42.0425 13.4854C42.4185 13.3438 42.7114 13.1484 42.9214 12.8994C43.1313 12.6504 43.2363 12.3672 43.2363 12.0498C43.2363 11.7373 43.1313 11.4565 42.9214 11.2075C42.7114 10.9536 42.4185 10.7559 42.0425 10.6143C41.6665 10.4727 41.2441 10.4043 40.7754 10.4092ZM59.3789 14.7158H61.6787V15.3311H59.3789V22.0986H58.6904V9.2666H59.3789V14.7158ZM57.1963 12.0352H49.5059V11.4199H53.0508V9.38379H53.7539V11.4199H57.1963V12.0352ZM53.4316 13.3096C54.0176 13.3145 54.54 13.439 54.999 13.6831C55.4629 13.9272 55.8242 14.269 56.083 14.7085C56.3467 15.1431 56.4785 15.6387 56.4785 16.1953C56.4785 16.752 56.3467 17.25 56.083 17.6895C55.8242 18.124 55.4629 18.4634 54.999 18.7075C54.54 18.9468 54.0176 19.0664 53.4316 19.0664C52.8408 19.0664 52.3135 18.9468 51.8496 18.7075C51.3857 18.4634 51.022 18.124 50.7583 17.6895C50.4995 17.25 50.3701 16.752 50.3701 16.1953C50.3701 15.6387 50.4995 15.1431 50.7583 14.7085C51.022 14.269 51.3857 13.9272 51.8496 13.6831C52.3135 13.439 52.8408 13.3145 53.4316 13.3096ZM53.4316 13.9248C52.9775 13.9297 52.5674 14.0322 52.2012 14.2324C51.835 14.4326 51.5469 14.7061 51.3369 15.0527C51.1318 15.3945 51.0293 15.7754 51.0293 16.1953C51.0293 16.6152 51.1318 16.9985 51.3369 17.3452C51.5469 17.687 51.835 17.9556 52.2012 18.1509C52.5674 18.3462 52.9775 18.4414 53.4316 18.4365C53.8809 18.4414 54.2861 18.3462 54.6475 18.1509C55.0088 17.9556 55.292 17.687 55.4971 17.3452C55.707 16.9985 55.8145 16.6152 55.8193 16.1953C55.8145 15.7754 55.707 15.3945 55.4971 15.0527C55.292 14.7061 55.0088 14.4326 54.6475 14.2324C54.2861 14.0322 53.8809 13.9297 53.4316 13.9248ZM72.8701 13.998H64.2129V9.73535H64.9014V13.3975H72.8701V13.998ZM74.2617 16.5908H62.5283V15.9902H74.2617V16.5908ZM72.958 21.7617H64.1543V18.0557H64.8428V21.1465H72.958V21.7617ZM89.4814 22.0986H88.793V9.2666H89.4814V22.0986ZM85.7021 10.6875C85.7021 11.8936 85.48 13.0459 85.0356 14.1445C84.5913 15.2383 83.915 16.2466 83.0068 17.1694C82.0986 18.0923 80.9707 18.8809 79.623 19.5352L79.2422 18.9492C80.4189 18.3877 81.4248 17.7139 82.2598 16.9277C83.0996 16.1416 83.749 15.2725 84.208 14.3203C84.667 13.3633 84.9307 12.3525 84.999 11.2881H79.7695V10.6875H85.7021ZM102.284 13.7051H93.627V9.54492H94.3154V13.0898H102.284V13.7051ZM103.646 16.0635H91.957V15.4629H103.646V16.0635ZM97.8018 17.4258C98.71 17.4258 99.4912 17.5161 100.146 17.6968C100.805 17.8774 101.308 18.1411 101.654 18.4878C102.006 18.8345 102.182 19.252 102.182 19.7402C102.182 20.2188 102.006 20.6289 101.654 20.9707C101.308 21.3125 100.805 21.5737 100.146 21.7544C99.4863 21.9351 98.7051 22.0254 97.8018 22.0254C96.8936 22.0254 96.1099 21.9351 95.4507 21.7544C94.7915 21.5737 94.2861 21.3125 93.9346 20.9707C93.583 20.6289 93.4072 20.2188 93.4072 19.7402C93.4072 19.252 93.583 18.8345 93.9346 18.4878C94.2861 18.1411 94.7891 17.8774 95.4434 17.6968C96.1025 17.5161 96.8887 17.4258 97.8018 17.4258ZM97.8018 18.0117C97.0596 18.0117 96.4102 18.0825 95.8535 18.2241C95.2969 18.3608 94.8672 18.561 94.5645 18.8247C94.2617 19.0835 94.1104 19.3887 94.1104 19.7402C94.1104 20.082 94.2617 20.3823 94.5645 20.6411C94.8672 20.895 95.2969 21.0903 95.8535 21.2271C96.4102 21.3687 97.0596 21.4395 97.8018 21.4395C98.5391 21.4395 99.1836 21.3687 99.7354 21.2271C100.292 21.0903 100.722 20.895 101.024 20.6411C101.327 20.3823 101.479 20.082 101.479 19.7402C101.479 19.3887 101.327 19.0835 101.024 18.8247C100.722 18.561 100.292 18.3608 99.7354 18.2241C99.1836 18.0825 98.5391 18.0117 97.8018 18.0117ZM110.751 9.51562C111.679 9.51562 112.475 9.60352 113.139 9.7793C113.808 9.9502 114.318 10.2041 114.669 10.541C115.026 10.873 115.204 11.2783 115.204 11.7568C115.204 12.2354 115.026 12.6431 114.669 12.98C114.318 13.3169 113.808 13.5732 113.139 13.749C112.475 13.9248 111.679 14.0127 110.751 14.0127C109.818 14.0127 109.018 13.9248 108.349 13.749C107.685 13.5732 107.177 13.3169 106.825 12.98C106.474 12.6431 106.298 12.2354 106.298 11.7568C106.298 11.2783 106.474 10.873 106.825 10.541C107.177 10.2041 107.685 9.9502 108.349 9.7793C109.018 9.60352 109.818 9.51562 110.751 9.51562ZM110.751 10.0869C109.999 10.082 109.34 10.1479 108.773 10.2847C108.207 10.4214 107.77 10.6167 107.462 10.8706C107.16 11.1245 107.011 11.4199 107.016 11.7568C107.011 12.1035 107.16 12.4038 107.462 12.6577C107.77 12.9116 108.205 13.1069 108.766 13.2437C109.333 13.3755 109.994 13.4414 110.751 13.4414C111.508 13.4414 112.169 13.3755 112.736 13.2437C113.302 13.1069 113.737 12.9116 114.04 12.6577C114.347 12.4038 114.501 12.1035 114.501 11.7568C114.501 11.4199 114.347 11.1245 114.04 10.8706C113.732 10.6167 113.295 10.4214 112.729 10.2847C112.162 10.1479 111.503 10.082 110.751 10.0869ZM116.596 15.6533H104.921V15.0527H116.596V15.6533ZM115.043 19.6084H107.104V21.3223H115.468V21.9082H106.43V19.0371H114.369V17.5723H106.386V17.001H115.043V19.6084ZM125.531 11.9766C125.526 12.5283 125.67 13.0557 125.963 13.5586C126.261 14.0615 126.662 14.501 127.165 14.877C127.667 15.248 128.222 15.5312 128.827 15.7266L128.476 16.2686C127.719 16.0146 127.045 15.6313 126.454 15.1187C125.863 14.606 125.441 14.0127 125.187 13.3389C124.933 14.0713 124.503 14.7183 123.898 15.2798C123.292 15.8413 122.597 16.2637 121.811 16.5469L121.444 15.9756C122.055 15.7754 122.616 15.48 123.129 15.0894C123.646 14.6938 124.059 14.2275 124.367 13.6904C124.674 13.1533 124.828 12.582 124.828 11.9766V11.5371H121.723V10.9365H124.828V9.19336H125.546V10.9365H128.607V11.5371H125.531V11.9766ZM131.303 12.6357H133.354V13.2363H131.303V16.8252H130.614V9.2666H131.303V12.6357ZM131.566 18.2168H127.743C127.753 18.7295 127.975 19.2129 128.41 19.667C128.849 20.1162 129.398 20.4995 130.058 20.8169C130.717 21.1294 131.376 21.3516 132.035 21.4834L131.742 22.04C131.151 21.918 130.565 21.7275 129.984 21.4688C129.403 21.2148 128.881 20.8999 128.417 20.5239C127.958 20.1479 127.616 19.7329 127.392 19.2788C127.172 19.7329 126.833 20.1455 126.374 20.5166C125.915 20.8877 125.395 21.2026 124.813 21.4614C124.237 21.7202 123.651 21.9131 123.056 22.04L122.763 21.4834C123.422 21.3516 124.079 21.1294 124.733 20.8169C125.387 20.5044 125.932 20.1235 126.366 19.6743C126.806 19.2202 127.035 18.7344 127.055 18.2168H123.231V17.6016H131.566V18.2168ZM144.823 22.0986H144.135V9.2666H144.823V22.0986ZM141.044 10.6875C141.044 11.8936 140.822 13.0459 140.377 14.1445C139.933 15.2383 139.257 16.2466 138.349 17.1694C137.44 18.0923 136.312 18.8809 134.965 19.5352L134.584 18.9492C135.761 18.3877 136.767 17.7139 137.602 16.9277C138.441 16.1416 139.091 15.2725 139.55 14.3203C140.009 13.3633 140.272 12.3525 140.341 11.2881H135.111V10.6875H141.044ZM155.341 10.7021C155.336 11.2148 155.482 11.6934 155.78 12.1377C156.083 12.5771 156.488 12.9531 156.996 13.2656C157.504 13.5781 158.065 13.8125 158.681 13.9688L158.329 14.5547C157.553 14.335 156.869 14.0054 156.278 13.5659C155.688 13.1265 155.263 12.6016 155.004 11.9912C154.745 12.665 154.311 13.2534 153.7 13.7563C153.095 14.2544 152.401 14.6328 151.62 14.8916L151.239 14.335C151.854 14.1543 152.421 13.8882 152.938 13.5366C153.456 13.1802 153.869 12.7578 154.176 12.2695C154.484 11.7812 154.638 11.2588 154.638 10.7021V9.83789H155.341V10.7021ZM161.215 22.1133H160.526V9.28125H161.215V22.1133ZM151.62 16.2686C153.075 16.2686 154.455 16.2393 155.758 16.1807C157.067 16.1221 158.305 16.0098 159.472 15.8438L159.53 16.3564C158.305 16.5664 156.947 16.7153 155.458 16.8032V21.6885H154.77V16.8398C153.725 16.8887 152.411 16.9131 150.829 16.9131L150.712 16.2686H151.62ZM174.135 22.1133H173.417V18.7002H170.253V18.1143H173.417V9.28125H174.135V22.1133ZM163.69 16.1807C165.409 16.1807 166.962 16.1562 168.349 16.1074C169.735 16.0537 171.059 15.9365 172.318 15.7559L172.377 16.2979C171.122 16.498 169.74 16.6396 168.231 16.7227V21.6885H167.543V16.7593C166.532 16.8032 165.287 16.8252 163.808 16.8252L163.69 16.1807ZM167.924 9.98438C168.554 9.98438 169.11 10.0869 169.594 10.292C170.082 10.4922 170.46 10.7778 170.729 11.1489C170.998 11.5151 171.132 11.9424 171.132 12.4307C171.132 12.9238 170.998 13.356 170.729 13.7271C170.46 14.0981 170.084 14.3838 169.601 14.584C169.118 14.7793 168.559 14.877 167.924 14.877C167.289 14.877 166.728 14.7793 166.239 14.584C165.756 14.3838 165.38 14.1006 165.111 13.7344C164.848 13.3633 164.716 12.9287 164.716 12.4307C164.716 11.9424 164.848 11.5151 165.111 11.1489C165.38 10.7778 165.756 10.4922 166.239 10.292C166.728 10.0869 167.289 9.98438 167.924 9.98438ZM167.924 10.5557C167.436 10.5557 166.996 10.6387 166.605 10.8047C166.22 10.9658 165.917 11.1904 165.697 11.4785C165.482 11.7617 165.375 12.0791 165.375 12.4307C165.375 12.792 165.482 13.1167 165.697 13.4048C165.917 13.6929 166.22 13.9175 166.605 14.0786C166.991 14.2397 167.431 14.3203 167.924 14.3203C168.417 14.3203 168.854 14.2397 169.235 14.0786C169.621 13.9175 169.921 13.6929 170.136 13.4048C170.355 13.1167 170.468 12.792 170.473 12.4307C170.468 12.0791 170.355 11.7617 170.136 11.4785C169.921 11.1904 169.621 10.9658 169.235 10.8047C168.849 10.6387 168.412 10.5557 167.924 10.5557ZM188.461 20.3408H176.713V19.7256H179.804V16.0488C179.218 15.7754 178.761 15.4116 178.434 14.9575C178.107 14.5034 177.943 13.9883 177.943 13.4121C177.943 12.7725 178.139 12.2109 178.529 11.7275C178.92 11.2393 179.462 10.8633 180.155 10.5996C180.854 10.3359 181.649 10.2041 182.543 10.2041C183.441 10.2041 184.237 10.3359 184.931 10.5996C185.629 10.8633 186.171 11.2393 186.557 11.7275C186.947 12.2109 187.143 12.7725 187.143 13.4121C187.143 13.9834 186.984 14.4937 186.667 14.9429C186.354 15.3872 185.912 15.7485 185.341 16.0269V19.7256H188.461V20.3408ZM182.543 10.79C181.796 10.79 181.12 10.9023 180.514 11.127C179.914 11.3467 179.442 11.6567 179.101 12.0571C178.759 12.4575 178.588 12.9092 178.588 13.4121C178.588 13.9102 178.759 14.3594 179.101 14.7598C179.442 15.1553 179.914 15.4653 180.514 15.6899C181.12 15.9097 181.796 16.0195 182.543 16.0195C183.29 16.0195 183.964 15.9097 184.564 15.6899C185.17 15.4653 185.644 15.1553 185.985 14.7598C186.327 14.3594 186.498 13.9102 186.498 13.4121C186.498 12.9092 186.327 12.4575 185.985 12.0571C185.644 11.6567 185.17 11.3467 184.564 11.127C183.964 10.9023 183.29 10.79 182.543 10.79ZM184.638 19.7256V16.2979C184.008 16.4932 183.31 16.5908 182.543 16.5908C181.796 16.5908 181.107 16.4956 180.478 16.3052V19.7256H184.638Z" fill="black"/>
</svg>
