<svg width="259" height="52" viewBox="0 0 259 52" fill="none" xmlns="http://www.w3.org/2000/svg">
<g filter="url(#filter0_d_99_4075)">
<rect x="9.95" y="11.0086" width="239.1" height="30.1" rx="5.05" stroke="black" stroke-width="0.1" shape-rendering="crispEdges"/>
<path d="M25 36.0586C30.5228 36.0586 35 31.5814 35 26.0586C35 20.5357 30.5228 16.0586 25 16.0586C19.4772 16.0586 15 20.5357 15 26.0586C15 31.5814 19.4772 36.0586 25 36.0586Z" fill="#FFDD67"/>
<path d="M20.0002 29.0586C22.0252 29.0586 23.6668 27.417 23.6668 25.3919C23.6668 23.3669 22.0252 21.7253 20.0002 21.7253C17.9751 21.7253 16.3335 23.3669 16.3335 25.3919C16.3335 27.417 17.9751 29.0586 20.0002 29.0586Z" fill="white"/>
<path d="M30.0002 29.0586C32.0252 29.0586 33.6668 27.4169 33.6668 25.3919C33.6668 23.3668 32.0252 21.7252 30.0002 21.7252C27.9751 21.7252 26.3335 23.3668 26.3335 25.3919C26.3335 27.4169 27.9751 29.0586 30.0002 29.0586Z" fill="white"/>
<path d="M26.3333 24.3919C25.7333 23.9586 24.2667 23.9586 23.6667 24.3919C23.3 24.0586 23.3667 23.6919 23 23.3586C24.0333 22.5919 25.8 22.4586 27 23.3586C26.6333 23.6919 26.7 24.0586 26.3333 24.3919Z" fill="#494949"/>
<path d="M29.9998 21.0586C27.5998 21.0586 25.6665 22.9919 25.6665 25.3919C25.6665 27.7919 27.5998 29.7253 29.9998 29.7253C32.3998 29.7253 34.3332 27.7919 34.3332 25.3919C34.3332 22.9919 32.3998 21.0586 29.9998 21.0586ZM29.9998 28.7253C28.1665 28.7253 26.6665 27.2253 26.6665 25.3919C26.6665 23.5586 28.1665 22.0586 29.9998 22.0586C31.8332 22.0586 33.3332 23.5586 33.3332 25.3919C33.3332 27.2253 31.8332 28.7253 29.9998 28.7253ZM19.9998 21.0586C17.5998 21.0586 15.6665 22.9919 15.6665 25.3919C15.6665 27.7919 17.5998 29.7253 19.9998 29.7253C22.3998 29.7253 24.3332 27.7919 24.3332 25.3919C24.3332 22.9919 22.3998 21.0586 19.9998 21.0586ZM19.9998 28.7253C18.1665 28.7253 16.6665 27.2253 16.6665 25.3919C16.6665 23.5586 18.1665 22.0586 19.9998 22.0586C21.8332 22.0586 23.3332 23.5586 23.3332 25.3919C23.3332 27.2253 21.8332 28.7253 19.9998 28.7253Z" fill="#494949"/>
<path d="M20.9998 27.2252C21.7362 27.2252 22.3332 26.479 22.3332 25.5586C22.3332 24.6381 21.7362 23.8919 20.9998 23.8919C20.2635 23.8919 19.6665 24.6381 19.6665 25.5586C19.6665 26.479 20.2635 27.2252 20.9998 27.2252Z" fill="#664E27"/>
<path d="M28.9998 27.2253C29.7362 27.2253 30.3332 26.4791 30.3332 25.5586C30.3332 24.6382 29.7362 23.892 28.9998 23.892C28.2635 23.892 27.6665 24.6382 27.6665 25.5586C27.6665 26.4791 28.2635 27.2253 28.9998 27.2253Z" fill="#664E27"/>
<path d="M23.2331 32.492C25.1664 32.992 27.2331 32.6253 28.8664 31.492C29.2664 31.192 28.4997 30.1586 28.0997 30.4253C27.0331 31.192 25.2997 31.692 23.5331 31.2253C23.0997 31.1253 22.7331 32.3586 23.2331 32.492Z" fill="#664E27"/>
<path d="M32.0667 20.6252C31.0001 19.7252 29.5667 19.3252 28.1667 19.5919C27.9667 19.6252 27.8001 18.9252 28.0334 18.8586C29.6334 18.5586 31.3001 19.0252 32.5334 20.0586C32.7334 20.2252 32.2001 20.7586 32.0667 20.6252ZM21.8334 19.5252C20.4334 19.2919 19.0001 19.6586 17.9334 20.5586C17.8001 20.6919 17.2667 20.1586 17.4667 19.9919C18.7001 18.9252 20.3667 18.4919 21.9667 18.7919C22.2001 18.8586 22.0334 19.5586 21.8334 19.5252Z" fill="#917524"/>
<path d="M55.9863 29.1104H55.2832V27.5576H52.5146V27.001H55.2832V19.3398H55.9863V29.1104ZM56.3232 31.8203H47.5049V28.1289H48.208V31.2197H56.3232V31.8203ZM45.5273 25.4336C47.1973 25.4336 48.7134 25.4116 50.0757 25.3677C51.438 25.3188 52.7295 25.2139 53.9502 25.0527L54.0088 25.5947C52.8662 25.7705 51.5967 25.895 50.2002 25.9683V28.5684H49.4971V25.9976C48.54 26.0317 47.5635 26.0488 46.5674 26.0488H45.6445L45.5273 25.4336ZM49.7754 19.9111C50.3955 19.9111 50.9424 20.0015 51.416 20.1821C51.8896 20.3579 52.2559 20.6118 52.5146 20.9438C52.7783 21.2759 52.9102 21.6641 52.9102 22.1084C52.9102 22.5576 52.7783 22.9482 52.5146 23.2803C52.2559 23.6074 51.8896 23.8613 51.416 24.042C50.9473 24.2178 50.4004 24.3057 49.7754 24.3057C49.1455 24.3057 48.5913 24.2178 48.1128 24.042C47.6343 23.8613 47.2632 23.6074 46.9995 23.2803C46.7407 22.9482 46.6113 22.5576 46.6113 22.1084C46.6113 21.6641 46.7407 21.2759 46.9995 20.9438C47.2632 20.6118 47.6343 20.3579 48.1128 20.1821C48.5913 20.0015 49.1455 19.9111 49.7754 19.9111ZM49.7754 20.4678C49.292 20.4629 48.8599 20.5312 48.479 20.6729C48.0981 20.8145 47.8027 21.0122 47.5928 21.2661C47.3828 21.5151 47.2803 21.7959 47.2852 22.1084C47.2803 22.4258 47.3828 22.709 47.5928 22.958C47.8027 23.207 48.0957 23.4023 48.4717 23.5439C48.8525 23.6807 49.2871 23.749 49.7754 23.749C50.249 23.749 50.6714 23.6807 51.0425 23.5439C51.4185 23.4023 51.7114 23.207 51.9214 22.958C52.1313 22.709 52.2363 22.4258 52.2363 22.1084C52.2363 21.7959 52.1313 21.5151 51.9214 21.2661C51.7114 21.0122 51.4185 20.8145 51.0425 20.6729C50.6665 20.5312 50.2441 20.4629 49.7754 20.4678ZM68.3789 24.7744H70.6787V25.3896H68.3789V32.1572H67.6904V19.3252H68.3789V24.7744ZM66.1963 22.0938H58.5059V21.4785H62.0508V19.4424H62.7539V21.4785H66.1963V22.0938ZM62.4316 23.3682C63.0176 23.373 63.54 23.4976 63.999 23.7417C64.4629 23.9858 64.8242 24.3276 65.083 24.7671C65.3467 25.2017 65.4785 25.6973 65.4785 26.2539C65.4785 26.8105 65.3467 27.3086 65.083 27.748C64.8242 28.1826 64.4629 28.522 63.999 28.7661C63.54 29.0054 63.0176 29.125 62.4316 29.125C61.8408 29.125 61.3135 29.0054 60.8496 28.7661C60.3857 28.522 60.022 28.1826 59.7583 27.748C59.4995 27.3086 59.3701 26.8105 59.3701 26.2539C59.3701 25.6973 59.4995 25.2017 59.7583 24.7671C60.022 24.3276 60.3857 23.9858 60.8496 23.7417C61.3135 23.4976 61.8408 23.373 62.4316 23.3682ZM62.4316 23.9834C61.9775 23.9883 61.5674 24.0908 61.2012 24.291C60.835 24.4912 60.5469 24.7646 60.3369 25.1113C60.1318 25.4531 60.0293 25.834 60.0293 26.2539C60.0293 26.6738 60.1318 27.0571 60.3369 27.4038C60.5469 27.7456 60.835 28.0142 61.2012 28.2095C61.5674 28.4048 61.9775 28.5 62.4316 28.4951C62.8809 28.5 63.2861 28.4048 63.6475 28.2095C64.0088 28.0142 64.292 27.7456 64.4971 27.4038C64.707 27.0571 64.8145 26.6738 64.8193 26.2539C64.8145 25.834 64.707 25.4531 64.4971 25.1113C64.292 24.7646 64.0088 24.4912 63.6475 24.291C63.2861 24.0908 62.8809 23.9883 62.4316 23.9834ZM81.8701 24.0566H73.2129V19.7939H73.9014V23.4561H81.8701V24.0566ZM83.2617 26.6494H71.5283V26.0488H83.2617V26.6494ZM81.958 31.8203H73.1543V28.1143H73.8428V31.2051H81.958V31.8203ZM98.4814 32.1572H97.793V19.3252H98.4814V32.1572ZM94.7021 20.7461C94.7021 21.9521 94.48 23.1045 94.0356 24.2031C93.5913 25.2969 92.915 26.3052 92.0068 27.228C91.0986 28.1509 89.9707 28.9395 88.623 29.5938L88.2422 29.0078C89.4189 28.4463 90.4248 27.7725 91.2598 26.9863C92.0996 26.2002 92.749 25.3311 93.208 24.3789C93.667 23.4219 93.9307 22.4111 93.999 21.3467H88.7695V20.7461H94.7021ZM111.284 23.7637H102.627V19.6035H103.315V23.1484H111.284V23.7637ZM112.646 26.1221H100.957V25.5215H112.646V26.1221ZM106.802 27.4844C107.71 27.4844 108.491 27.5747 109.146 27.7554C109.805 27.936 110.308 28.1997 110.654 28.5464C111.006 28.8931 111.182 29.3105 111.182 29.7988C111.182 30.2773 111.006 30.6875 110.654 31.0293C110.308 31.3711 109.805 31.6323 109.146 31.813C108.486 31.9937 107.705 32.084 106.802 32.084C105.894 32.084 105.11 31.9937 104.451 31.813C103.792 31.6323 103.286 31.3711 102.935 31.0293C102.583 30.6875 102.407 30.2773 102.407 29.7988C102.407 29.3105 102.583 28.8931 102.935 28.5464C103.286 28.1997 103.789 27.936 104.443 27.7554C105.103 27.5747 105.889 27.4844 106.802 27.4844ZM106.802 28.0703C106.06 28.0703 105.41 28.1411 104.854 28.2827C104.297 28.4194 103.867 28.6196 103.564 28.8833C103.262 29.1421 103.11 29.4473 103.11 29.7988C103.11 30.1406 103.262 30.4409 103.564 30.6997C103.867 30.9536 104.297 31.1489 104.854 31.2856C105.41 31.4272 106.06 31.498 106.802 31.498C107.539 31.498 108.184 31.4272 108.735 31.2856C109.292 31.1489 109.722 30.9536 110.024 30.6997C110.327 30.4409 110.479 30.1406 110.479 29.7988C110.479 29.4473 110.327 29.1421 110.024 28.8833C109.722 28.6196 109.292 28.4194 108.735 28.2827C108.184 28.1411 107.539 28.0703 106.802 28.0703ZM119.751 19.5742C120.679 19.5742 121.475 19.6621 122.139 19.8379C122.808 20.0088 123.318 20.2627 123.669 20.5996C124.026 20.9316 124.204 21.3369 124.204 21.8154C124.204 22.2939 124.026 22.7017 123.669 23.0386C123.318 23.3755 122.808 23.6318 122.139 23.8076C121.475 23.9834 120.679 24.0713 119.751 24.0713C118.818 24.0713 118.018 23.9834 117.349 23.8076C116.685 23.6318 116.177 23.3755 115.825 23.0386C115.474 22.7017 115.298 22.2939 115.298 21.8154C115.298 21.3369 115.474 20.9316 115.825 20.5996C116.177 20.2627 116.685 20.0088 117.349 19.8379C118.018 19.6621 118.818 19.5742 119.751 19.5742ZM119.751 20.1455C118.999 20.1406 118.34 20.2065 117.773 20.3433C117.207 20.48 116.77 20.6753 116.462 20.9292C116.16 21.1831 116.011 21.4785 116.016 21.8154C116.011 22.1621 116.16 22.4624 116.462 22.7163C116.77 22.9702 117.205 23.1655 117.766 23.3022C118.333 23.4341 118.994 23.5 119.751 23.5C120.508 23.5 121.169 23.4341 121.736 23.3022C122.302 23.1655 122.737 22.9702 123.04 22.7163C123.347 22.4624 123.501 22.1621 123.501 21.8154C123.501 21.4785 123.347 21.1831 123.04 20.9292C122.732 20.6753 122.295 20.48 121.729 20.3433C121.162 20.2065 120.503 20.1406 119.751 20.1455ZM125.596 25.7119H113.921V25.1113H125.596V25.7119ZM124.043 29.667H116.104V31.3809H124.468V31.9668H115.43V29.0957H123.369V27.6309H115.386V27.0596H124.043V29.667ZM133.169 28.9639H140.024V27.3525H140.713V31.9521H132.466V27.3525H133.169V28.9639ZM140.024 31.3516V29.5645H133.169V31.3516H140.024ZM140.713 26.6787H140.01V19.3398H140.713V26.6787ZM131.631 25.082C133.042 25.082 134.353 25.0576 135.564 25.0088C136.78 24.9551 137.935 24.8525 139.028 24.7012L139.072 25.2285C137.93 25.4189 136.631 25.5508 135.176 25.624V27.8213H134.502V25.6533C133.535 25.6924 132.202 25.7119 130.503 25.7119L130.386 25.082H131.631ZM135.059 20.3652C135.054 20.834 135.2 21.271 135.498 21.6763C135.801 22.0815 136.204 22.4282 136.707 22.7163C137.214 22.9995 137.769 23.2119 138.369 23.3535L138.047 23.8955C137.266 23.7051 136.577 23.4023 135.981 22.9873C135.386 22.5674 134.961 22.0669 134.707 21.4858C134.458 22.0913 134.033 22.6235 133.433 23.0825C132.837 23.5366 132.153 23.876 131.382 24.1006L131.045 23.5293C131.646 23.373 132.195 23.1411 132.693 22.8335C133.196 22.5259 133.596 22.1597 133.894 21.7349C134.197 21.3052 134.351 20.8486 134.355 20.3652V19.6182H135.059V20.3652ZM154.219 32.1572H153.545V19.3252H154.219V32.1572ZM151.553 31.4395H150.864V25.3896H147.729C147.319 26.1611 146.792 26.8789 146.147 27.543C145.508 28.2021 144.756 28.793 143.892 29.3154L143.452 28.7881C144.409 28.2217 145.227 27.5601 145.906 26.8032C146.584 26.0415 147.109 25.2236 147.48 24.3496C147.852 23.4756 148.066 22.5723 148.125 21.6396H143.906V21.0244H148.813C148.813 22.3477 148.55 23.6025 148.022 24.7891H150.864V19.7061H151.553V31.4395ZM163.945 22.0352C163.94 22.5869 164.084 23.1143 164.377 23.6172C164.675 24.1201 165.076 24.5596 165.579 24.9355C166.082 25.3066 166.636 25.5898 167.241 25.7852L166.89 26.3271C166.133 26.0732 165.459 25.6899 164.868 25.1772C164.277 24.6646 163.855 24.0713 163.601 23.3975C163.347 24.1299 162.917 24.7769 162.312 25.3384C161.707 25.8999 161.011 26.3223 160.225 26.6055L159.858 26.0342C160.469 25.834 161.03 25.5386 161.543 25.1479C162.061 24.7524 162.473 24.2861 162.781 23.749C163.088 23.2119 163.242 22.6406 163.242 22.0352V21.5957H160.137V20.9951H163.242V19.252H163.96V20.9951H167.021V21.5957H163.945V22.0352ZM169.717 22.6943H171.768V23.2949H169.717V26.8838H169.028V19.3252H169.717V22.6943ZM169.98 28.2754H166.157C166.167 28.7881 166.389 29.2715 166.824 29.7256C167.263 30.1748 167.812 30.5581 168.472 30.8755C169.131 31.188 169.79 31.4102 170.449 31.542L170.156 32.0986C169.565 31.9766 168.979 31.7861 168.398 31.5273C167.817 31.2734 167.295 30.9585 166.831 30.5825C166.372 30.2065 166.03 29.7915 165.806 29.3374C165.586 29.7915 165.247 30.2041 164.788 30.5752C164.329 30.9463 163.809 31.2612 163.228 31.52C162.651 31.7788 162.065 31.9717 161.47 32.0986L161.177 31.542C161.836 31.4102 162.493 31.188 163.147 30.8755C163.801 30.563 164.346 30.1821 164.78 29.7329C165.22 29.2788 165.449 28.793 165.469 28.2754H161.646V27.6602H169.98V28.2754ZM178.579 19.5742C179.507 19.5742 180.303 19.6621 180.967 19.8379C181.636 20.0088 182.146 20.2627 182.498 20.5996C182.854 20.9316 183.032 21.3369 183.032 21.8154C183.032 22.2939 182.854 22.7017 182.498 23.0386C182.146 23.3755 181.636 23.6318 180.967 23.8076C180.303 23.9834 179.507 24.0713 178.579 24.0713C177.646 24.0713 176.846 23.9834 176.177 23.8076C175.513 23.6318 175.005 23.3755 174.653 23.0386C174.302 22.7017 174.126 22.2939 174.126 21.8154C174.126 21.3369 174.302 20.9316 174.653 20.5996C175.005 20.2627 175.513 20.0088 176.177 19.8379C176.846 19.6621 177.646 19.5742 178.579 19.5742ZM178.579 20.1455C177.827 20.1406 177.168 20.2065 176.602 20.3433C176.035 20.48 175.598 20.6753 175.291 20.9292C174.988 21.1831 174.839 21.4785 174.844 21.8154C174.839 22.1621 174.988 22.4624 175.291 22.7163C175.598 22.9702 176.033 23.1655 176.594 23.3022C177.161 23.4341 177.822 23.5 178.579 23.5C179.336 23.5 179.998 23.4341 180.564 23.3022C181.13 23.1655 181.565 22.9702 181.868 22.7163C182.175 22.4624 182.329 22.1621 182.329 21.8154C182.329 21.4785 182.175 21.1831 181.868 20.9292C181.56 20.6753 181.123 20.48 180.557 20.3433C179.99 20.2065 179.331 20.1406 178.579 20.1455ZM184.424 25.7119H172.749V25.1113H184.424V25.7119ZM182.871 29.667H174.932V31.3809H183.296V31.9668H174.258V29.0957H182.197V27.6309H174.214V27.0596H182.871V29.667ZM195.396 20.6436C195.396 21.2637 195.652 21.8447 196.165 22.3867C196.677 22.9287 197.307 23.3779 198.054 23.7344C198.806 24.0908 199.521 24.3252 200.2 24.4375L199.893 25.0234C199.268 24.9062 198.63 24.7036 197.981 24.4155C197.332 24.1226 196.741 23.7563 196.208 23.3169C195.681 22.8774 195.298 22.3867 195.059 21.8447C194.819 22.3965 194.434 22.8921 193.901 23.3315C193.374 23.771 192.783 24.1323 192.129 24.4155C191.479 24.6987 190.84 24.9014 190.21 25.0234L189.902 24.4375C190.591 24.3252 191.306 24.0957 192.048 23.749C192.795 23.3975 193.423 22.9531 193.931 22.416C194.438 21.874 194.692 21.2832 194.692 20.6436V19.8379H195.396V20.6436ZM200.874 27.3232H195.366V32.1572H194.692V27.3232H189.199V26.708H200.874V27.3232ZM209.766 28.1582C209.766 28.5684 209.846 28.9785 210.007 29.3887C210.173 29.7939 210.41 30.1699 210.718 30.5166C211.03 30.8633 211.401 31.144 211.831 31.3589C212.256 31.1196 212.627 30.8169 212.944 30.4507C213.262 30.0845 213.506 29.6987 213.677 29.2935C213.848 28.8882 213.936 28.5098 213.94 28.1582V27.2939H214.614V28.1582C214.609 28.5977 214.722 29.0347 214.951 29.4692C215.186 29.9038 215.51 30.2944 215.925 30.6411C216.345 30.9878 216.821 31.2539 217.354 31.4395L216.973 31.9814C216.328 31.7422 215.769 31.3955 215.295 30.9414C214.822 30.4824 214.478 29.9673 214.263 29.396C214.062 29.9624 213.755 30.4873 213.34 30.9707C212.93 31.4541 212.437 31.8252 211.86 32.084C211.25 31.835 210.735 31.4785 210.315 31.0146C209.895 30.5459 209.592 30.021 209.407 29.4399C209.172 29.9868 208.821 30.4873 208.352 30.9414C207.888 31.3955 207.349 31.7422 206.733 31.9814L206.367 31.4395C206.885 31.2393 207.351 30.9609 207.766 30.6045C208.181 30.2432 208.506 29.8477 208.74 29.418C208.979 28.9834 209.102 28.5635 209.106 28.1582V27.2939H209.766V28.1582ZM216.152 26.708H215.449V19.3398H216.152V26.708ZM209.282 20.1309C209.917 20.1357 210.481 20.2627 210.974 20.5117C211.472 20.7559 211.858 21.1025 212.131 21.5518C212.41 21.9961 212.549 22.5088 212.549 23.0898C212.549 23.6611 212.41 24.1689 212.131 24.6133C211.858 25.0527 211.472 25.3945 210.974 25.6387C210.481 25.8828 209.917 26.0049 209.282 26.0049C208.647 26.0049 208.081 25.8828 207.583 25.6387C207.085 25.3945 206.697 25.0527 206.418 24.6133C206.145 24.1689 206.011 23.6611 206.016 23.0898C206.011 22.5088 206.145 21.9961 206.418 21.5518C206.697 21.1025 207.085 20.7559 207.583 20.5117C208.081 20.2627 208.647 20.1357 209.282 20.1309ZM209.282 20.7461C208.789 20.7461 208.345 20.8486 207.949 21.0537C207.554 21.2588 207.244 21.5396 207.019 21.896C206.799 22.2524 206.689 22.6504 206.689 23.0898C206.689 23.5293 206.799 23.9272 207.019 24.2837C207.244 24.6353 207.554 24.9136 207.949 25.1187C208.345 25.3188 208.789 25.4189 209.282 25.4189C209.775 25.4189 210.22 25.3188 210.615 25.1187C211.011 24.9136 211.318 24.6353 211.538 24.2837C211.763 23.9272 211.875 23.5293 211.875 23.0898C211.875 22.6504 211.763 22.2524 211.538 21.896C211.318 21.5396 211.011 21.2588 210.615 21.0537C210.22 20.8486 209.775 20.7461 209.282 20.7461ZM221.997 20.3799C222.578 20.3799 223.096 20.5435 223.55 20.8706C224.004 21.1978 224.368 21.6641 224.641 22.2695C224.915 22.875 225.071 23.583 225.11 24.3936H228.428V19.3252H229.116V32.1719H228.428V24.9941H225.117C225.098 25.834 224.954 26.5688 224.685 27.1987C224.417 27.8286 224.05 28.3145 223.586 28.6562C223.123 28.998 222.593 29.1689 221.997 29.1689C221.382 29.1689 220.837 28.9907 220.364 28.6343C219.89 28.2729 219.521 27.7627 219.258 27.1035C218.994 26.4395 218.862 25.668 218.862 24.7891C218.862 23.9053 218.994 23.1313 219.258 22.4673C219.521 21.8032 219.89 21.2905 220.364 20.9292C220.837 20.563 221.382 20.3799 221.997 20.3799ZM221.997 20.9951C221.514 20.9951 221.084 21.1587 220.708 21.4858C220.337 21.8081 220.046 22.2573 219.836 22.8335C219.631 23.4097 219.531 24.0615 219.536 24.7891C219.531 25.5117 219.631 26.1611 219.836 26.7373C220.046 27.3135 220.337 27.7627 220.708 28.085C221.084 28.4072 221.514 28.5684 221.997 28.5684C222.476 28.5684 222.903 28.4072 223.279 28.085C223.655 27.7578 223.948 27.3086 224.158 26.7373C224.368 26.1611 224.473 25.5117 224.473 24.7891C224.473 24.0615 224.368 23.4097 224.158 22.8335C223.948 22.2573 223.655 21.8081 223.279 21.4858C222.903 21.1587 222.476 20.9951 221.997 20.9951ZM243.325 30.3994H231.577V29.7842H234.668V26.1074C234.082 25.834 233.625 25.4702 233.298 25.0161C232.971 24.562 232.808 24.0469 232.808 23.4707C232.808 22.8311 233.003 22.2695 233.394 21.7861C233.784 21.2979 234.326 20.9219 235.02 20.6582C235.718 20.3945 236.514 20.2627 237.407 20.2627C238.306 20.2627 239.102 20.3945 239.795 20.6582C240.493 20.9219 241.035 21.2979 241.421 21.7861C241.812 22.2695 242.007 22.8311 242.007 23.4707C242.007 24.042 241.848 24.5522 241.531 25.0015C241.218 25.4458 240.776 25.8071 240.205 26.0854V29.7842H243.325V30.3994ZM237.407 20.8486C236.66 20.8486 235.984 20.9609 235.378 21.1855C234.778 21.4053 234.307 21.7153 233.965 22.1157C233.623 22.5161 233.452 22.9678 233.452 23.4707C233.452 23.9688 233.623 24.418 233.965 24.8184C234.307 25.2139 234.778 25.5239 235.378 25.7485C235.984 25.9683 236.66 26.0781 237.407 26.0781C238.154 26.0781 238.828 25.9683 239.429 25.7485C240.034 25.5239 240.508 25.2139 240.85 24.8184C241.191 24.418 241.362 23.9688 241.362 23.4707C241.362 22.9678 241.191 22.5161 240.85 22.1157C240.508 21.7153 240.034 21.4053 239.429 21.1855C238.828 20.9609 238.154 20.8486 237.407 20.8486ZM239.502 29.7842V26.3564C238.872 26.5518 238.174 26.6494 237.407 26.6494C236.66 26.6494 235.972 26.5542 235.342 26.3638V29.7842H239.502Z" fill="black"/>
</g>
<defs>
<filter id="filter0_d_99_4075" x="-0.100098" y="0.958618" width="259.2" height="50.2" filterUnits="userSpaceOnUse" color-interpolation-filters="sRGB">
<feFlood flood-opacity="0" result="BackgroundImageFix"/>
<feColorMatrix in="SourceAlpha" type="matrix" values="0 0 0 0 0 0 0 0 0 0 0 0 0 0 0 0 0 0 127 0" result="hardAlpha"/>
<feOffset/>
<feGaussianBlur stdDeviation="5"/>
<feComposite in2="hardAlpha" operator="out"/>
<feColorMatrix type="matrix" values="0 0 0 0 0 0 0 0 0 0 0 0 0 0 0 0 0 0 0.8 0"/>
<feBlend mode="normal" in2="BackgroundImageFix" result="effect1_dropShadow_99_4075"/>
<feBlend mode="normal" in="SourceGraphic" in2="effect1_dropShadow_99_4075" result="shape"/>
</filter>
</defs>
</svg>
