<svg width="20" height="18" viewBox="0 0 20 18" fill="none" xmlns="http://www.w3.org/2000/svg">
<path d="M10.25 17.25L2.21875 9.21875C1.57813 8.57812 1.15104 7.83333 0.9375 6.98437C0.729167 6.13542 0.731771 5.29167 0.945313 4.45312C1.15885 3.60937 1.58333 2.875 2.21875 2.25C2.86979 1.60937 3.61198 1.1849 4.44531 0.976563C5.28385 0.763021 6.11979 0.763021 6.95313 0.976563C7.79167 1.1901 8.53646 1.61458 9.1875 2.25L10.25 3.28125L11.3125 2.25C11.9688 1.61458 12.7135 1.1901 13.5469 0.976563C14.3802 0.763021 15.2135 0.763021 16.0469 0.976563C16.8854 1.1849 17.6302 1.60937 18.2813 2.25C18.9167 2.875 19.3411 3.60937 19.5547 4.45312C19.7682 5.29167 19.7682 6.13542 19.5547 6.98437C19.3464 7.83333 18.9219 8.57812 18.2813 9.21875L10.25 17.25ZM10.25 14.8203L17.0625 8C17.4792 7.58854 17.7552 7.10677 17.8906 6.55469C18.0313 6.0026 18.0339 5.45312 17.8984 4.90625C17.763 4.35417 17.4896 3.8776 17.0781 3.47656C16.651 3.05469 16.1641 2.77604 15.6172 2.64062C15.0755 2.5 14.5313 2.5 13.9844 2.64062C13.4375 2.78125 12.9453 3.0625 12.5078 3.48437L10.25 5.67969L7.99219 3.48437C7.5599 3.0625 7.06771 2.78125 6.51563 2.64062C5.96875 2.5 5.42188 2.5 4.875 2.64062C4.33333 2.77604 3.84896 3.05469 3.42188 3.47656C3.01042 3.8776 2.73698 4.35417 2.60156 4.90625C2.46615 5.45312 2.46875 6.0026 2.60938 6.55469C2.75 7.10677 3.02604 7.58854 3.4375 8L10.25 14.8203Z" fill="black"/>
</svg>
