<svg width="135" height="54" viewBox="0 0 135 54" fill="none" xmlns="http://www.w3.org/2000/svg">
<g filter="url(#filter0_d_99_2443)">
<rect x="10.95" y="10.95" width="113.429" height="32.1" rx="5.05" stroke="black" stroke-width="0.1" shape-rendering="crispEdges"/>
<path d="M18.2384 16L16 27.8405H21.7101L19.7915 38L27.3289 23.2359H21.8929L23.2176 16H18.2384Z" fill="#FFCE31"/>
<path d="M49.6921 31.3848H37.9441V30.7695H43.4226V28.0449H39.4822V24.3242H47.4363V21.9072H39.4529V21.292H48.1248V24.9248H40.1707V27.4443H48.4324V28.0449H44.1257V30.7695H49.6921V31.3848ZM61.4109 28.3086H60.7078V20.2666H61.4109V28.3086ZM52.7537 26.126C54.2087 26.126 55.405 26.0942 56.3425 26.0308C57.28 25.9624 58.2322 25.833 59.199 25.6426L59.3015 26.2432C58.3103 26.4336 57.3386 26.563 56.3865 26.6313C55.4343 26.6948 54.2234 26.7266 52.7537 26.7266H51.7283V21.3066H57.7781V21.9219H52.4314V26.126H52.7537ZM57.1775 28.25C58.0515 28.25 58.8083 28.3452 59.448 28.5356C60.0876 28.7261 60.5784 29.002 60.9202 29.3633C61.2668 29.7246 61.4402 30.1543 61.4402 30.6523C61.4402 31.1553 61.2693 31.5874 60.9275 31.9487C60.5857 32.3101 60.095 32.5859 59.4553 32.7764C58.8157 32.9668 58.0564 33.0645 57.1775 33.0693C56.2888 33.0645 55.5222 32.9668 54.8777 32.7764C54.238 32.5859 53.7449 32.3101 53.3982 31.9487C53.0564 31.5874 52.8855 31.1553 52.8855 30.6523C52.8855 30.1543 53.0564 29.7246 53.3982 29.3633C53.7449 29.002 54.2405 28.7261 54.885 28.5356C55.5295 28.3452 56.2937 28.25 57.1775 28.25ZM57.1775 28.8213C56.4548 28.8262 55.8225 28.9043 55.2805 29.0557C54.7434 29.207 54.3259 29.4219 54.0281 29.7002C53.7351 29.9736 53.5886 30.291 53.5886 30.6523C53.5886 31.0137 53.7351 31.3335 54.0281 31.6118C54.3259 31.8853 54.7434 32.0952 55.2805 32.2417C55.8225 32.3931 56.4548 32.4688 57.1775 32.4688C57.8904 32.4688 58.5154 32.3931 59.0525 32.2417C59.5945 32.0952 60.012 31.8853 60.3049 31.6118C60.6028 31.3335 60.7517 31.0137 60.7517 30.6523C60.7517 30.291 60.6028 29.9736 60.3049 29.7002C60.012 29.4219 59.5945 29.207 59.0525 29.0557C58.5154 28.9043 57.8904 28.8262 57.1775 28.8213ZM74.3455 33.1133H73.6423V20.2666H74.3455V33.1133ZM67.6218 21.3213C68.2419 21.3213 68.7937 21.5044 69.2771 21.8706C69.7605 22.2319 70.1389 22.7471 70.4124 23.416C70.6858 24.0801 70.825 24.8516 70.8298 25.7305C70.825 26.6045 70.6858 27.3735 70.4124 28.0376C70.1389 28.6968 69.7605 29.207 69.2771 29.5684C68.7937 29.9297 68.2419 30.1104 67.6218 30.1104C66.9968 30.1104 66.4402 29.9297 65.9519 29.5684C65.4685 29.207 65.0901 28.6968 64.8167 28.0376C64.5481 27.3735 64.4138 26.6045 64.4138 25.7305C64.4138 24.8516 64.5481 24.0801 64.8167 23.416C65.0901 22.7471 65.4685 22.2319 65.9519 21.8706C66.4402 21.5044 66.9968 21.3213 67.6218 21.3213ZM67.6218 21.9365C67.1287 21.9365 66.6892 22.1001 66.3035 22.4272C65.9226 22.7495 65.6248 23.1987 65.4099 23.7749C65.1951 24.3511 65.0876 25.0029 65.0876 25.7305C65.0876 26.4531 65.1951 27.1025 65.4099 27.6787C65.6248 28.2549 65.9226 28.7041 66.3035 29.0264C66.6892 29.3486 67.1287 29.5098 67.6218 29.5098C68.1101 29.5098 68.5447 29.3486 68.9255 29.0264C69.3064 28.6992 69.6042 28.25 69.8191 27.6787C70.0339 27.1025 70.1414 26.4531 70.1414 25.7305C70.1414 25.0029 70.0339 24.3511 69.8191 23.7749C69.6042 23.1987 69.3064 22.7495 68.9255 22.4272C68.5447 22.1001 68.1101 21.9365 67.6218 21.9365ZM90.4734 23.3135H92.3337V23.9141H90.4734V27.1514H89.7849V20.2666H90.4734V23.3135ZM81.4646 22.9619H83.4128V20.9258H84.0574V26.2725H80.8201V20.9258H81.4646V22.9619ZM83.4128 25.7012V23.5625H81.4646V25.7012H83.4128ZM85.698 22.9619H87.6609V20.9258H88.2908V26.2725H85.0681V20.9258H85.698V22.9619ZM87.6609 25.7012V23.5625H85.698V25.7012H87.6609ZM90.4734 30.5059H83.032V32.3076H90.9861V32.9082H82.3582V29.9492H89.7996V28.3818H82.3142V27.7812H90.4734V30.5059ZM103.086 25.54H105.385V26.1553H103.086V33.1133H102.397V20.2666H103.086V25.54ZM94.7947 29.3047C96.1912 29.3047 97.3484 29.2729 98.2664 29.2095C99.1843 29.146 100.122 29.0215 101.079 28.8359L101.152 29.4365C100.146 29.6221 99.1746 29.749 98.2371 29.8174C97.2996 29.8857 96.1521 29.9199 94.7947 29.9199H93.8132V25.2617H98.8523V22.1416H93.7693V21.5264H99.5408V25.877H94.5017V29.3047H94.7947ZM117.998 31.3408H106.25V30.7256H109.341V27.0488C108.755 26.7754 108.298 26.4116 107.971 25.9575C107.644 25.5034 107.48 24.9883 107.48 24.4121C107.48 23.7725 107.676 23.2109 108.066 22.7275C108.457 22.2393 108.999 21.8633 109.692 21.5996C110.39 21.3359 111.186 21.2041 112.08 21.2041C112.978 21.2041 113.774 21.3359 114.468 21.5996C115.166 21.8633 115.708 22.2393 116.094 22.7275C116.484 23.2109 116.679 23.7725 116.679 24.4121C116.679 24.9834 116.521 25.4937 116.203 25.9429C115.891 26.3872 115.449 26.7485 114.878 27.0269V30.7256H117.998V31.3408ZM112.08 21.79C111.333 21.79 110.656 21.9023 110.051 22.127C109.45 22.3467 108.979 22.6567 108.637 23.0571C108.296 23.4575 108.125 23.9092 108.125 24.4121C108.125 24.9102 108.296 25.3594 108.637 25.7598C108.979 26.1553 109.45 26.4653 110.051 26.6899C110.656 26.9097 111.333 27.0195 112.08 27.0195C112.827 27.0195 113.501 26.9097 114.101 26.6899C114.707 26.4653 115.18 26.1553 115.522 25.7598C115.864 25.3594 116.035 24.9102 116.035 24.4121C116.035 23.9092 115.864 23.4575 115.522 23.0571C115.18 22.6567 114.707 22.3467 114.101 22.127C113.501 21.9023 112.827 21.79 112.08 21.79ZM114.175 30.7256V27.2979C113.545 27.4932 112.846 27.5908 112.08 27.5908C111.333 27.5908 110.644 27.4956 110.014 27.3052V30.7256H114.175Z" fill="black"/>
</g>
<defs>
<filter id="filter0_d_99_2443" x="0.899902" y="0.899902" width="133.529" height="52.2002" filterUnits="userSpaceOnUse" color-interpolation-filters="sRGB">
<feFlood flood-opacity="0" result="BackgroundImageFix"/>
<feColorMatrix in="SourceAlpha" type="matrix" values="0 0 0 0 0 0 0 0 0 0 0 0 0 0 0 0 0 0 127 0" result="hardAlpha"/>
<feOffset/>
<feGaussianBlur stdDeviation="5"/>
<feComposite in2="hardAlpha" operator="out"/>
<feColorMatrix type="matrix" values="0 0 0 0 0 0 0 0 0 0 0 0 0 0 0 0 0 0 0.8 0"/>
<feBlend mode="normal" in2="BackgroundImageFix" result="effect1_dropShadow_99_2443"/>
<feBlend mode="normal" in="SourceGraphic" in2="effect1_dropShadow_99_2443" result="shape"/>
</filter>
</defs>
</svg>
