<svg width="166" height="32" viewBox="0 0 166 32" fill="none" xmlns="http://www.w3.org/2000/svg">
<rect x="0.95" y="0.95" width="164.1" height="30.1" rx="5.05" stroke="black" stroke-width="0.1"/>
<path d="M6 26.4H26V6.4H6V26.4Z" fill="black"/>
<path d="M40.6436 13.0752C40.6387 13.7832 40.8071 14.501 41.1489 15.2285C41.4907 15.9512 41.9326 16.6006 42.4746 17.1768C43.0166 17.7529 43.5732 18.1826 44.1445 18.4658L43.6904 19.0225C43.2266 18.7686 42.77 18.4243 42.3208 17.9897C41.8765 17.5503 41.4761 17.0498 41.1196 16.4883C40.7681 15.9268 40.502 15.3408 40.3213 14.7305C40.1455 15.375 39.8794 15.9976 39.5229 16.5981C39.1714 17.1938 38.7686 17.7236 38.3145 18.1875C37.8652 18.6514 37.4062 19.0176 36.9375 19.2861L36.4834 18.7295C37.0498 18.4316 37.6016 17.98 38.1387 17.3745C38.6758 16.769 39.1128 16.0854 39.4497 15.3237C39.7915 14.562 39.9648 13.8125 39.9697 13.0752V10.4531H40.6436V13.0752ZM46.415 14.6426H48.7148V15.2578H46.415V22.0986H45.7266V9.2666H46.415V14.6426ZM61.2539 16.3857H49.5791V15.7852H52.6406V13.793C52.0938 13.6025 51.6763 13.3462 51.3882 13.0239C51.1001 12.6968 50.9561 12.3135 50.9561 11.874C50.9561 11.3809 51.1343 10.9609 51.4907 10.6143C51.8472 10.2627 52.3574 9.99658 53.0215 9.81592C53.6904 9.63525 54.4863 9.54492 55.4092 9.54492C56.332 9.54492 57.1255 9.63525 57.7896 9.81592C58.4585 9.99658 58.9712 10.2627 59.3276 10.6143C59.6841 10.9609 59.8623 11.3809 59.8623 11.874C59.8623 12.3086 59.7207 12.687 59.4375 13.0093C59.1592 13.3315 58.7539 13.5879 58.2217 13.7783V15.7852H61.2539V16.3857ZM55.4238 17.5723C56.3369 17.5723 57.1206 17.6602 57.7749 17.8359C58.4341 18.0068 58.937 18.2583 59.2837 18.5903C59.6304 18.9224 59.8037 19.3252 59.8037 19.7988C59.8037 20.2773 59.6279 20.6851 59.2764 21.022C58.9297 21.3589 58.4292 21.6152 57.7749 21.791C57.1206 21.9668 56.3369 22.0547 55.4238 22.0547C54.5059 22.0547 53.7173 21.9668 53.0581 21.791C52.4038 21.6152 51.9009 21.3589 51.5493 21.022C51.2026 20.6851 51.0293 20.2773 51.0293 19.7988C51.0293 19.3252 51.2026 18.9224 51.5493 18.5903C51.9009 18.2534 52.4038 17.9995 53.0581 17.8286C53.7173 17.6577 54.5059 17.5723 55.4238 17.5723ZM55.4238 18.1436C54.6816 18.1436 54.0322 18.2119 53.4756 18.3486C52.9189 18.4805 52.4893 18.6733 52.1865 18.9272C51.8838 19.1763 51.7324 19.4668 51.7324 19.7988C51.7324 20.1406 51.8838 20.4385 52.1865 20.6924C52.4893 20.9414 52.9189 21.1318 53.4756 21.2637C54.0322 21.4004 54.6816 21.4688 55.4238 21.4688C56.1611 21.4688 56.8057 21.4004 57.3574 21.2637C57.9141 21.1318 58.3438 20.9414 58.6465 20.6924C58.9492 20.4385 59.1006 20.1406 59.1006 19.7988C59.1006 19.4668 58.9492 19.1763 58.6465 18.9272C58.3438 18.6733 57.9141 18.4805 57.3574 18.3486C56.8057 18.2119 56.1611 18.1436 55.4238 18.1436ZM55.4092 10.1162C54.6572 10.1162 53.998 10.1895 53.4316 10.3359C52.8701 10.4775 52.4331 10.6826 52.1206 10.9512C51.813 11.2148 51.6592 11.5225 51.6592 11.874C51.6592 12.2256 51.813 12.5332 52.1206 12.7969C52.4282 13.0605 52.8652 13.2632 53.4316 13.4048C53.998 13.5464 54.6572 13.6172 55.4092 13.6172C56.1611 13.6172 56.8203 13.5464 57.3867 13.4048C57.9531 13.2632 58.3901 13.0605 58.6978 12.7969C59.0054 12.5332 59.1592 12.2256 59.1592 11.874C59.1592 11.5225 59.0029 11.2148 58.6904 10.9512C58.3828 10.6826 57.9458 10.4775 57.3794 10.3359C56.8179 10.1895 56.1611 10.1162 55.4092 10.1162ZM57.5332 15.7852V13.9761C56.9131 14.1079 56.2441 14.1738 55.5264 14.1738C54.667 14.1738 53.9346 14.1104 53.3291 13.9834V15.7852H57.5332ZM71.918 17.4551C72.7773 17.4551 73.5171 17.5454 74.1372 17.7261C74.7622 17.9067 75.2383 18.1704 75.5654 18.5171C75.8975 18.8638 76.0635 19.2764 76.0635 19.7549C76.0635 20.2383 75.8975 20.6533 75.5654 21C75.2383 21.3418 74.7646 21.603 74.1445 21.7837C73.5244 21.9692 72.7822 22.0645 71.918 22.0693C71.0488 22.0645 70.3018 21.9692 69.6768 21.7837C69.0518 21.603 68.5732 21.3418 68.2412 21C67.9141 20.6533 67.7529 20.2383 67.7578 19.7549C67.7529 19.2764 67.9141 18.8638 68.2412 18.5171C68.5732 18.1704 69.0518 17.9067 69.6768 17.7261C70.3066 17.5454 71.0537 17.4551 71.918 17.4551ZM71.918 18.041C71.2197 18.0459 70.6069 18.1191 70.0796 18.2607C69.5522 18.4023 69.1445 18.6025 68.8564 18.8613C68.5684 19.1152 68.4268 19.4131 68.4316 19.7549C68.4268 20.0967 68.5684 20.397 68.8564 20.6558C69.1445 20.9146 69.5522 21.1147 70.0796 21.2563C70.6069 21.3979 71.2197 21.4688 71.918 21.4688C72.6162 21.4688 73.2266 21.3979 73.749 21.2563C74.2764 21.1147 74.6841 20.9146 74.9722 20.6558C75.2603 20.397 75.4043 20.0967 75.4043 19.7549C75.4043 19.4131 75.2603 19.1152 74.9722 18.8613C74.6841 18.6025 74.2764 18.4023 73.749 18.2607C73.2266 18.1191 72.6162 18.0459 71.918 18.041ZM75.9609 12.6504H78.0117V13.2656H75.9609V17.0889H75.2725V9.2666H75.9609V12.6504ZM67.3623 12.2402H71.8154V10.0576H72.5039V15.9023H66.6738V10.0576H67.3623V12.2402ZM71.8154 15.3018V12.8262H67.3623V15.3018H71.8154ZM80.3994 12.1377H84.6475V9.92578H85.3359V12.5771H88.8076V9.2666H89.4961V16.2539H88.8076V13.1924H85.3359V15.7119H79.6963V9.92578H80.3994V12.1377ZM84.6475 15.1113V12.7383H80.3994V15.1113H84.6475ZM82.1279 18.7734H88.8076V16.9424H89.4814V21.8936H81.4395V16.9424H82.1279V18.7734ZM88.8076 21.293V19.3594H82.1279V21.293H88.8076ZM102.431 22.1133H101.728V9.2666H102.431V22.1133ZM95.707 10.3213C96.3271 10.3213 96.8789 10.5044 97.3623 10.8706C97.8457 11.2319 98.2241 11.7471 98.4976 12.416C98.771 13.0801 98.9102 13.8516 98.915 14.7305C98.9102 15.6045 98.771 16.3735 98.4976 17.0376C98.2241 17.6968 97.8457 18.207 97.3623 18.5684C96.8789 18.9297 96.3271 19.1104 95.707 19.1104C95.082 19.1104 94.5254 18.9297 94.0371 18.5684C93.5537 18.207 93.1753 17.6968 92.9019 17.0376C92.6333 16.3735 92.499 15.6045 92.499 14.7305C92.499 13.8516 92.6333 13.0801 92.9019 12.416C93.1753 11.7471 93.5537 11.2319 94.0371 10.8706C94.5254 10.5044 95.082 10.3213 95.707 10.3213ZM95.707 10.9365C95.2139 10.9365 94.7744 11.1001 94.3887 11.4272C94.0078 11.7495 93.71 12.1987 93.4951 12.7749C93.2803 13.3511 93.1729 14.0029 93.1729 14.7305C93.1729 15.4531 93.2803 16.1025 93.4951 16.6787C93.71 17.2549 94.0078 17.7041 94.3887 18.0264C94.7744 18.3486 95.2139 18.5098 95.707 18.5098C96.1953 18.5098 96.6299 18.3486 97.0107 18.0264C97.3916 17.6992 97.6895 17.25 97.9043 16.6787C98.1191 16.1025 98.2266 15.4531 98.2266 14.7305C98.2266 14.0029 98.1191 13.3511 97.9043 12.7749C97.6895 12.1987 97.3916 11.7495 97.0107 11.4272C96.6299 11.1001 96.1953 10.9365 95.707 10.9365ZM118.339 13.3682H120.39V13.9834H118.339V18.7734H117.636V9.2666H118.339V13.3682ZM114.882 10.2773C114.887 11.3223 114.635 12.2915 114.127 13.1851C113.625 14.0786 112.914 14.8623 111.996 15.5361C111.083 16.2051 110.019 16.7422 108.803 17.1475L108.495 16.5615C109.564 16.21 110.512 15.7534 111.337 15.1919C112.162 14.6304 112.819 13.9834 113.307 13.251C113.795 12.5186 114.071 11.7324 114.135 10.8926H109.008V10.2773H114.882ZM119.013 21.7617H110.487V17.8066H111.176V21.1611H119.013V21.7617ZM131.874 18.8906H131.186V14.7891H128.593V14.1738H131.186V12.4453H128.593V11.8301H131.186V9.2666H131.874V18.8906ZM128.593 10.9951H127.128V15.873C127.836 15.8291 128.515 15.7705 129.164 15.6973L129.208 16.2539C128.08 16.4248 126.879 16.5371 125.604 16.5908C124.335 16.6396 122.978 16.6641 121.532 16.6641L121.43 16.0195L123.261 16.0122V10.9951H121.796V10.3945H128.593V10.9951ZM132.255 21.7617H123.803V18.0264H124.491V21.1611H132.255V21.7617ZM123.949 15.9976C124.916 15.978 125.746 15.9512 126.439 15.917V10.9951H123.949V15.9976ZM140.883 12.2549H134.306V11.6543H137.235V9.66211H137.938V11.6543H140.883V12.2549ZM137.587 13.2949C138.109 13.2998 138.578 13.4243 138.993 13.6685C139.408 13.9077 139.733 14.2422 139.967 14.6719C140.202 15.1016 140.321 15.5898 140.326 16.1367C140.321 16.6885 140.199 17.1816 139.96 17.6162C139.726 18.0459 139.401 18.3828 138.986 18.627C138.576 18.8662 138.109 18.9834 137.587 18.9785C137.064 18.9834 136.596 18.8662 136.181 18.627C135.766 18.3828 135.441 18.0435 135.207 17.6089C134.972 17.1743 134.857 16.6836 134.862 16.1367C134.857 15.5898 134.972 15.1016 135.207 14.6719C135.441 14.2422 135.766 13.9077 136.181 13.6685C136.596 13.4243 137.064 13.2998 137.587 13.2949ZM137.587 13.9102C137.191 13.915 136.833 14.0176 136.51 14.2178C136.193 14.4131 135.944 14.6816 135.763 15.0234C135.583 15.3604 135.492 15.7314 135.492 16.1367C135.492 16.5469 135.583 16.9229 135.763 17.2646C135.944 17.6016 136.193 17.8677 136.51 18.063C136.833 18.2583 137.191 18.3535 137.587 18.3486C137.982 18.3535 138.339 18.2583 138.656 18.063C138.979 17.8677 139.23 17.6016 139.411 17.2646C139.591 16.9229 139.682 16.5469 139.682 16.1367C139.682 15.7314 139.591 15.3604 139.411 15.0234C139.23 14.6816 138.979 14.4131 138.656 14.2178C138.339 14.0176 137.982 13.915 137.587 13.9102ZM145.16 22.0986H144.486V15.4043H142.333V21.4102H141.674V9.60352H142.333V14.7891H144.486V9.2666H145.16V22.0986ZM159.047 20.3408H147.299V19.7256H150.39V16.0488C149.804 15.7754 149.347 15.4116 149.02 14.9575C148.693 14.5034 148.529 13.9883 148.529 13.4121C148.529 12.7725 148.725 12.2109 149.115 11.7275C149.506 11.2393 150.048 10.8633 150.741 10.5996C151.439 10.3359 152.235 10.2041 153.129 10.2041C154.027 10.2041 154.823 10.3359 155.517 10.5996C156.215 10.8633 156.757 11.2393 157.143 11.7275C157.533 12.2109 157.729 12.7725 157.729 13.4121C157.729 13.9834 157.57 14.4937 157.252 14.9429C156.94 15.3872 156.498 15.7485 155.927 16.0269V19.7256H159.047V20.3408ZM153.129 10.79C152.382 10.79 151.706 10.9023 151.1 11.127C150.5 11.3467 150.028 11.6567 149.687 12.0571C149.345 12.4575 149.174 12.9092 149.174 13.4121C149.174 13.9102 149.345 14.3594 149.687 14.7598C150.028 15.1553 150.5 15.4653 151.1 15.6899C151.706 15.9097 152.382 16.0195 153.129 16.0195C153.876 16.0195 154.55 15.9097 155.15 15.6899C155.756 15.4653 156.229 15.1553 156.571 14.7598C156.913 14.3594 157.084 13.9102 157.084 13.4121C157.084 12.9092 156.913 12.4575 156.571 12.0571C156.229 11.6567 155.756 11.3467 155.15 11.127C154.55 10.9023 153.876 10.79 153.129 10.79ZM155.224 19.7256V16.2979C154.594 16.4932 153.896 16.5908 153.129 16.5908C152.382 16.5908 151.693 16.4956 151.063 16.3052V19.7256H155.224Z" fill="black"/>
</svg>
