<svg width="157" height="51" viewBox="0 0 157 51" fill="none" xmlns="http://www.w3.org/2000/svg">
<g filter="url(#filter0_d_99_2123)">
<rect x="10.95" y="10.5984" width="135.1" height="30.1" rx="5.05" stroke="black" stroke-width="0.1" shape-rendering="crispEdges"/>
<path d="M35.5979 35.6484H16.4021C16.181 35.6484 16 35.4675 16 35.2463V16.0506C16 15.8294 16.181 15.6484 16.4021 15.6484H35.5979C35.819 15.6484 36 15.8294 36 16.0506V35.2463C36 35.4675 35.819 35.6484 35.5979 35.6484Z" fill="#9AFFA9" stroke="black" stroke-width="1.59193" stroke-miterlimit="10" stroke-linejoin="round"/>
<path d="M25.0046 24.4714L23.076 19.9714L21.1475 24.4714" fill="#9AFFA9"/>
<path d="M25.0046 24.4714L23.076 19.9714L21.1475 24.4714" stroke="black" stroke-width="1.59193" stroke-miterlimit="10" stroke-linecap="round" stroke-linejoin="round"/>
<path d="M21.7903 23.3938H24.3617H21.7903Z" fill="#9AFFA9"/>
<path d="M21.7903 23.3938H24.3617" stroke="black" stroke-width="1.59193" stroke-miterlimit="10" stroke-linecap="round" stroke-linejoin="round"/>
<path d="M24.4127 30.817C24.129 31.0686 23.7557 31.2214 23.3466 31.2214C22.459 31.2214 21.7395 30.5019 21.7395 29.6143V28.3286C21.7395 27.441 22.459 26.7214 23.3466 26.7214C23.7557 26.7214 24.129 26.8742 24.4127 27.1259" fill="#9AFFA9"/>
<path d="M24.4127 30.817C24.129 31.0686 23.7557 31.2214 23.3466 31.2214C22.459 31.2214 21.7395 30.5019 21.7395 29.6143V28.3286C21.7395 27.441 22.459 26.7214 23.3466 26.7214C23.7557 26.7214 24.129 26.8742 24.4127 27.1259" stroke="black" stroke-width="1.59193" stroke-miterlimit="10" stroke-linecap="round" stroke-linejoin="round"/>
<path d="M29.6737 22.2213H27.9578V19.9797H29.6737C30.2927 19.9797 30.7945 20.4816 30.7945 21.1006C30.7945 21.7196 30.2927 22.2213 29.6737 22.2213Z" fill="#9AFFA9" stroke="black" stroke-width="1.59193" stroke-miterlimit="10" stroke-linecap="round" stroke-linejoin="round"/>
<path d="M29.6737 24.4631H27.9578V22.2214H29.6737C30.2927 22.2214 30.7945 22.7233 30.7945 23.3423C30.7945 23.9612 30.2927 24.4631 29.6737 24.4631Z" fill="#9AFFA9" stroke="black" stroke-width="1.59193" stroke-miterlimit="10" stroke-linecap="round" stroke-linejoin="round"/>
<path d="M29.9583 31.213H27.9275V26.7297H29.9583C30.4368 26.7297 30.8248 27.1177 30.8248 27.5962V30.3464C30.8248 30.825 30.4368 31.213 29.9583 31.213Z" fill="#9AFFA9" stroke="black" stroke-width="1.59193" stroke-miterlimit="10" stroke-linecap="round" stroke-linejoin="round"/>
<path d="M56.415 24.335H58.6709V24.9355H56.415V31.7471H55.7266V18.915H56.415V24.335ZM53.1631 20.3359C53.1631 21.5273 52.9482 22.6699 52.5186 23.7637C52.0889 24.8525 51.4297 25.8584 50.541 26.7812C49.6572 27.7041 48.5488 28.4951 47.2158 29.1543L46.835 28.5977C47.9922 28.0264 48.9785 27.3452 49.7939 26.5542C50.6143 25.7583 51.2466 24.8867 51.6909 23.9395C52.1401 22.9873 52.3965 21.9863 52.46 20.9365H47.3623V20.3359H53.1631ZM63.8418 22.7236C63.8418 23.4609 64.02 24.2007 64.3765 24.9429C64.7378 25.6851 65.1992 26.3467 65.7607 26.9277C66.3223 27.5088 66.8936 27.9385 67.4746 28.2168L67.0352 28.7588C66.5566 28.5098 66.083 28.168 65.6143 27.7334C65.1504 27.2939 64.7329 26.791 64.3618 26.2246C63.9956 25.6533 63.7148 25.0552 63.5195 24.4302C63.334 25.0845 63.0581 25.7119 62.6919 26.3125C62.3257 26.9082 61.9106 27.4355 61.4468 27.8945C60.9829 28.3486 60.5117 28.7051 60.0332 28.9639L59.5645 28.3926C60.1406 28.0996 60.707 27.6553 61.2637 27.0596C61.8203 26.459 62.2769 25.7754 62.6333 25.0088C62.9897 24.2422 63.168 23.4805 63.168 22.7236V20.1016H63.8418V22.7236ZM70.0527 31.7617H69.3496V18.915H70.0527V31.7617ZM76.6592 21.1123C76.6543 21.7227 76.8032 22.3086 77.106 22.8701C77.4136 23.4268 77.8237 23.9126 78.3364 24.3276C78.8491 24.7427 79.4082 25.0576 80.0137 25.2725L79.5889 25.8291C78.8418 25.5264 78.1777 25.0991 77.5967 24.5474C77.0156 23.9907 76.5957 23.3511 76.3369 22.6284C76.0928 23.4438 75.6704 24.1641 75.0698 24.7891C74.4692 25.4092 73.7734 25.8828 72.9824 26.21L72.6016 25.6094C73.2217 25.3799 73.7881 25.0454 74.3008 24.606C74.8135 24.1665 75.2212 23.6465 75.5239 23.0459C75.8315 22.4453 75.9854 21.8057 75.9854 21.127V19.6768H76.6592V21.1123ZM83.0459 26.5615H82.3574V22.5039H79.208V21.9033H82.3574V18.915H83.0459V26.5615ZM78.8857 26.957C79.7549 26.957 80.5044 27.0522 81.1343 27.2427C81.769 27.4282 82.2549 27.6992 82.5918 28.0557C82.9336 28.4121 83.1045 28.8418 83.1045 29.3447C83.1045 29.8379 82.9336 30.2603 82.5918 30.6118C82.2549 30.9634 81.769 31.2295 81.1343 31.4102C80.5044 31.5957 79.7549 31.6885 78.8857 31.6885C78.0068 31.6885 77.25 31.5957 76.6152 31.4102C75.9854 31.2295 75.502 30.9634 75.165 30.6118C74.8281 30.2603 74.6621 29.8379 74.667 29.3447C74.6621 28.8418 74.8281 28.4121 75.165 28.0557C75.502 27.6943 75.9854 27.4209 76.6152 27.2354C77.25 27.0498 78.0068 26.957 78.8857 26.957ZM78.8857 27.543C78.1777 27.543 77.5552 27.6162 77.0181 27.7627C76.4858 27.9092 76.0732 28.1191 75.7803 28.3926C75.4873 28.666 75.3408 28.9834 75.3408 29.3447C75.3408 29.6963 75.4873 30.0063 75.7803 30.2749C76.0732 30.5386 76.4858 30.7412 77.0181 30.8828C77.5552 31.0293 78.1777 31.1025 78.8857 31.1025C79.5889 31.1025 80.2065 31.0293 80.7388 30.8828C81.271 30.7412 81.6836 30.5386 81.9766 30.2749C82.2695 30.0063 82.416 29.6963 82.416 29.3447C82.416 28.9834 82.2695 28.666 81.9766 28.3926C81.6836 28.1191 81.271 27.9092 80.7388 27.7627C80.2065 27.6162 79.5889 27.543 78.8857 27.543ZM95.9805 31.7617H95.2773V18.915H95.9805V31.7617ZM89.2568 19.9697C89.877 19.9697 90.4287 20.1528 90.9121 20.519C91.3955 20.8804 91.7739 21.3955 92.0474 22.0645C92.3208 22.7285 92.46 23.5 92.4648 24.3789C92.46 25.2529 92.3208 26.022 92.0474 26.686C91.7739 27.3452 91.3955 27.8555 90.9121 28.2168C90.4287 28.5781 89.877 28.7588 89.2568 28.7588C88.6318 28.7588 88.0752 28.5781 87.5869 28.2168C87.1035 27.8555 86.7251 27.3452 86.4517 26.686C86.1831 26.022 86.0488 25.2529 86.0488 24.3789C86.0488 23.5 86.1831 22.7285 86.4517 22.0645C86.7251 21.3955 87.1035 20.8804 87.5869 20.519C88.0752 20.1528 88.6318 19.9697 89.2568 19.9697ZM89.2568 20.585C88.7637 20.585 88.3242 20.7485 87.9385 21.0757C87.5576 21.3979 87.2598 21.8472 87.0449 22.4233C86.8301 22.9995 86.7227 23.6514 86.7227 24.3789C86.7227 25.1016 86.8301 25.751 87.0449 26.3271C87.2598 26.9033 87.5576 27.3525 87.9385 27.6748C88.3242 27.9971 88.7637 28.1582 89.2568 28.1582C89.7451 28.1582 90.1797 27.9971 90.5605 27.6748C90.9414 27.3477 91.2393 26.8984 91.4541 26.3271C91.6689 25.751 91.7764 25.1016 91.7764 24.3789C91.7764 23.6514 91.6689 22.9995 91.4541 22.4233C91.2393 21.8472 90.9414 21.3979 90.5605 21.0757C90.1797 20.7485 89.7451 20.585 89.2568 20.585ZM108.139 24.4668H113.676V25.0674H101.942V24.4668H107.465V22.709H108.139V24.4668ZM108.197 20.0576C108.197 20.585 108.444 21.0586 108.937 21.4785C109.435 21.8984 110.053 22.2378 110.79 22.4966C111.527 22.7554 112.25 22.9189 112.958 22.9873L112.694 23.5586C112.025 23.4756 111.359 23.3242 110.695 23.1045C110.031 22.8799 109.438 22.5894 108.915 22.2329C108.393 21.8716 108.021 21.4541 107.802 20.9805C107.587 21.4541 107.218 21.8716 106.696 22.2329C106.173 22.5942 105.58 22.8848 104.916 23.1045C104.252 23.3242 103.583 23.4756 102.909 23.5586L102.66 22.9873C103.363 22.9189 104.081 22.7578 104.813 22.5039C105.546 22.2451 106.159 21.9058 106.652 21.4858C107.145 21.0659 107.392 20.5898 107.392 20.0576V19.9551H103.026V19.3691H112.592V19.9551H108.197V20.0576ZM112.562 27.6455H103.07V27.0303H107.465V25.6533H108.153V27.0303H112.562V27.6455ZM107.802 28.4365C109.052 28.4463 110.004 28.5928 110.658 28.876C111.312 29.1543 111.64 29.5693 111.64 30.1211C111.64 30.6875 111.312 31.1147 110.658 31.4028C110.004 31.6909 109.052 31.835 107.802 31.835C106.557 31.835 105.607 31.6909 104.953 31.4028C104.303 31.1147 103.979 30.6875 103.979 30.1211C103.979 29.5693 104.303 29.1543 104.953 28.876C105.602 28.5928 106.552 28.4463 107.802 28.4365ZM107.802 28.9785C106.806 28.9883 106.032 29.0908 105.48 29.2861C104.933 29.4814 104.662 29.7598 104.667 30.1211C104.662 30.4971 104.936 30.7876 105.487 30.9927C106.039 31.2026 106.811 31.3076 107.802 31.3076C108.788 31.3076 109.56 31.2026 110.116 30.9927C110.673 30.7876 110.951 30.4971 110.951 30.1211C110.951 29.7598 110.673 29.4814 110.116 29.2861C109.564 29.0908 108.793 28.9883 107.802 28.9785ZM118.334 19.9697C118.949 19.9697 119.494 20.1528 119.967 20.519C120.441 20.8804 120.81 21.3931 121.073 22.0571C121.342 22.7212 121.479 23.4951 121.483 24.3789C121.479 25.2578 121.342 26.0293 121.073 26.6934C120.81 27.3525 120.441 27.8628 119.967 28.2241C119.494 28.5806 118.949 28.7588 118.334 28.7588C117.719 28.7588 117.174 28.5806 116.701 28.2241C116.227 27.8628 115.858 27.3525 115.595 26.6934C115.331 26.0293 115.199 25.2578 115.199 24.3789C115.199 23.4951 115.331 22.7212 115.595 22.0571C115.858 21.3931 116.227 20.8804 116.701 20.519C117.174 20.1528 117.719 19.9697 118.334 19.9697ZM118.334 20.585C117.851 20.585 117.421 20.7485 117.045 21.0757C116.669 21.3979 116.374 21.8472 116.159 22.4233C115.949 22.9995 115.844 23.6514 115.844 24.3789C115.844 25.1016 115.949 25.751 116.159 26.3271C116.374 26.8984 116.669 27.3477 117.045 27.6748C117.421 27.9971 117.851 28.1582 118.334 28.1582C118.817 28.1582 119.245 27.9971 119.616 27.6748C119.992 27.3525 120.285 26.9058 120.495 26.3345C120.705 25.7583 120.81 25.1064 120.81 24.3789C120.81 23.6465 120.705 22.9946 120.495 22.4233C120.285 21.8472 119.992 21.3979 119.616 21.0757C119.245 20.7485 118.817 20.585 118.334 20.585ZM124.721 24.2324H127.021V24.8477H124.721V31.7471H124.032V18.915H124.721V24.2324ZM139.633 29.9893H127.885V29.374H130.976V25.6973C130.39 25.4238 129.933 25.0601 129.606 24.606C129.279 24.1519 129.115 23.6367 129.115 23.0605C129.115 22.4209 129.311 21.8594 129.701 21.376C130.092 20.8877 130.634 20.5117 131.327 20.248C132.025 19.9844 132.821 19.8525 133.715 19.8525C134.613 19.8525 135.409 19.9844 136.103 20.248C136.801 20.5117 137.343 20.8877 137.729 21.376C138.119 21.8594 138.314 22.4209 138.314 23.0605C138.314 23.6318 138.156 24.1421 137.838 24.5913C137.526 25.0356 137.084 25.397 136.513 25.6753V29.374H139.633V29.9893ZM133.715 20.4385C132.968 20.4385 132.292 20.5508 131.686 20.7754C131.085 20.9951 130.614 21.3052 130.272 21.7056C129.931 22.106 129.76 22.5576 129.76 23.0605C129.76 23.5586 129.931 24.0078 130.272 24.4082C130.614 24.8037 131.085 25.1138 131.686 25.3384C132.292 25.5581 132.968 25.668 133.715 25.668C134.462 25.668 135.136 25.5581 135.736 25.3384C136.342 25.1138 136.815 24.8037 137.157 24.4082C137.499 24.0078 137.67 23.5586 137.67 23.0605C137.67 22.5576 137.499 22.106 137.157 21.7056C136.815 21.3052 136.342 20.9951 135.736 20.7754C135.136 20.5508 134.462 20.4385 133.715 20.4385ZM135.81 29.374V25.9463C135.18 26.1416 134.481 26.2393 133.715 26.2393C132.968 26.2393 132.279 26.144 131.649 25.9536V29.374H135.81Z" fill="black"/>
</g>
<defs>
<filter id="filter0_d_99_2123" x="0.899902" y="0.54834" width="155.2" height="50.2002" filterUnits="userSpaceOnUse" color-interpolation-filters="sRGB">
<feFlood flood-opacity="0" result="BackgroundImageFix"/>
<feColorMatrix in="SourceAlpha" type="matrix" values="0 0 0 0 0 0 0 0 0 0 0 0 0 0 0 0 0 0 127 0" result="hardAlpha"/>
<feOffset/>
<feGaussianBlur stdDeviation="5"/>
<feComposite in2="hardAlpha" operator="out"/>
<feColorMatrix type="matrix" values="0 0 0 0 0 0 0 0 0 0 0 0 0 0 0 0 0 0 0.8 0"/>
<feBlend mode="normal" in2="BackgroundImageFix" result="effect1_dropShadow_99_2123"/>
<feBlend mode="normal" in="SourceGraphic" in2="effect1_dropShadow_99_2123" result="shape"/>
</filter>
</defs>
</svg>
