<svg width="80" height="25" viewBox="0 0 80 25" fill="none" xmlns="http://www.w3.org/2000/svg">
<path d="M11.9375 7.19238V17.333H10.9531V7.19238H11.9375ZM12.3906 19.8174V20.6455H3.14062V16.2861H4.125V19.8174H12.3906ZM4.53125 8.19238C6.57812 8.19238 8.09375 9.56738 8.09375 11.5361C8.09375 13.5205 6.57812 14.9111 4.53125 14.8955C2.48438 14.9111 0.953125 13.5205 0.96875 11.5361C0.953125 9.56738 2.48438 8.19238 4.53125 8.19238ZM4.53125 9.05176C3.03125 9.05176 1.92188 10.1143 1.92188 11.5361C1.92188 12.9736 3.03125 14.0205 4.53125 14.0205C6.01562 14.0205 7.14062 12.9736 7.14062 11.5361C7.14062 10.1143 6.01562 9.05176 4.53125 9.05176ZM25.7656 7.19238V20.9736H24.7969V7.19238H25.7656ZM21.7031 8.70801C21.6875 12.5986 19.7344 16.1143 15.2031 18.3018L14.6562 17.4893C18.4375 15.7002 20.4609 12.8799 20.7188 9.52051H15.2656V8.70801H21.7031ZM35.0469 8.30176C35.0469 10.208 37.8594 11.833 40.0312 12.1768L39.6406 12.958C37.6484 12.5986 35.4062 11.4111 34.5625 9.72363C33.7188 11.4424 31.4688 12.6143 29.4688 12.9736L29.0625 12.1924C31.2656 11.833 34.0469 10.2549 34.0469 8.30176V7.53613H35.0469V8.30176ZM40.8594 14.2861V15.1143H35.1094V18.083H34.1406V15.1143H28.25V14.2861H40.8594ZM39.4531 19.8174V20.6455H29.9062V16.6768H30.8906V19.8174H39.4531Z" fill="black"/>
<path d="M47.0117 9.14941H60.5469L53.7793 20.4141L47.0117 9.14941Z" fill="#787878"/>
</svg>
