<svg width="144" height="34" viewBox="0 0 144 34" fill="none" xmlns="http://www.w3.org/2000/svg">
<rect x="0.416748" y="0.75" width="143.167" height="32.5" rx="5.25" fill="#F9F9F9"/>
<rect x="0.416748" y="0.75" width="143.167" height="32.5" rx="5.25" stroke="#9747FF" stroke-width="0.5"/>
<path d="M11.5334 26.5334C11.5334 27.3401 12.1934 28.0001 13.0001 28.0001C13.8068 28.0001 14.4668 27.3401 14.4668 26.5334H11.5334Z" fill="#616466"/>
<path d="M10.7634 24.26H15.2734V24.92H10.7634V24.26Z" fill="#616466"/>
<path d="M11.1301 25.6167H14.9068V26.2767H11.1301V25.6167Z" fill="#616466"/>
<path d="M10.3967 22.8667H15.5667C15.8601 21.29 16.8501 19.75 17.8767 18.1367C19.0867 16.2667 20.3334 14.3233 20.3334 12.4533C20.3334 8.89667 17.0334 6 13.0001 6C8.96675 6 5.66675 8.89667 5.66675 12.4533C5.66675 14.3233 6.91341 16.2667 8.08675 18.1367C9.11342 19.75 10.1034 21.29 10.3967 22.8667Z" fill="#FFCE31"/>
<path d="M7.83984 17.7373C7.92461 17.871 8.00962 18.0043 8.09442 18.1373C9.12256 19.7481 10.1045 21.2855 10.4107 22.8666H15.5898C15.8971 21.2852 16.8779 19.7481 17.9053 18.1373C17.9902 18.0043 18.0752 17.871 18.16 17.7373" fill="#EFF0F1"/>
<path d="M10.3967 23.6001H15.6401V24.2601H10.3967V23.6001ZM10.7634 24.9201H15.2734V25.5801H10.7634V24.9201Z" fill="#94989B"/>
<path d="M15.6401 23.6001L10.7634 24.9201V25.6168L15.6401 24.2601V23.6001ZM11.1301 26.2768H14.9068V26.9368H11.1301V26.2768Z" fill="#94989B"/>
<path d="M15.2735 24.9202L11.1301 26.2768V26.9735L15.2735 25.6168V24.9202Z" fill="#94989B"/>
<path d="M35.4458 13.665C35.4458 14.4365 35.5972 15.1982 35.8999 15.9502C36.2026 16.7021 36.6128 17.3711 37.1304 17.957C37.6479 18.5381 38.2192 18.9727 38.8442 19.2607L38.1558 20.1982C37.4185 19.8174 36.7593 19.2583 36.1782 18.521C35.5972 17.7837 35.1626 16.9512 34.8745 16.0234C34.5815 17.0049 34.1445 17.8862 33.5635 18.6675C32.9873 19.4487 32.3306 20.0371 31.5933 20.4326L30.8462 19.5098C31.4761 19.2021 32.0522 18.7407 32.5747 18.1255C33.0972 17.5054 33.5098 16.8047 33.8125 16.0234C34.1201 15.2373 34.2739 14.4512 34.2739 13.665V11.292H35.4458V13.665ZM41.6567 23.2158H40.5142V15.5547H37.4233V14.6172H40.5142V10.1641H41.6567V23.2158ZM54.562 23.2158H53.4048V10.1641H54.562V23.2158ZM45.729 14.7197H49.6108V11.2773H50.7388V20.0664H44.5864V11.2773H45.729V14.7197ZM49.6108 19.0996V15.6426H45.729V19.0996H49.6108ZM63.2778 12.083C63.2778 12.791 63.5146 13.4771 63.9883 14.1411C64.4668 14.8003 65.0796 15.3618 65.8267 15.8257C66.5737 16.2847 67.3306 16.585 68.0972 16.7266L67.5698 17.6934C66.9058 17.5371 66.2515 17.2832 65.6069 16.9316C64.9624 16.5801 64.3838 16.1455 63.8711 15.6279C63.3584 15.1104 62.9653 14.5415 62.6919 13.9214C62.4185 14.5366 62.0254 15.103 61.5127 15.6206C61 16.1382 60.4214 16.5752 59.7769 16.9316C59.1372 17.2832 58.4829 17.5371 57.814 17.6934L57.2866 16.7266C58.0532 16.5752 58.8076 16.2725 59.5498 15.8184C60.292 15.3594 60.8975 14.8003 61.3662 14.1411C61.8398 13.4819 62.0767 12.7959 62.0767 12.083V11.0869H63.2778V12.083ZM68.7124 21.4141H56.7886V20.4619H68.7124V21.4141ZM79.8306 15.4668H81.9399V16.4336H79.8306V23.1865H78.688V10.1641H79.8306V15.4668ZM76.4614 11.5703C76.4614 13.5088 75.9756 15.2666 75.0039 16.8438C74.0322 18.416 72.5259 19.7051 70.4849 20.7109L69.8403 19.8027C71.5151 18.9678 72.8115 17.9375 73.7295 16.7119C74.6475 15.4814 75.1724 14.0898 75.3042 12.5371H70.4409V11.5703H76.4614ZM97.2476 23.1865H96.0903V10.1641H97.2476V23.1865ZM93.395 11.585C93.3853 13.5527 92.8872 15.3203 91.9009 16.8877C90.9146 18.4502 89.3716 19.7344 87.272 20.7402L86.6421 19.8027C88.3804 18.9775 89.7109 17.9521 90.6338 16.7266C91.5615 15.501 92.0913 14.0996 92.2231 12.5225H87.2427V11.585H93.395ZM101.129 12.5957H104.923V10.7207H106.066V16.3896H100.001V10.7207H101.129V12.5957ZM104.923 15.4521V13.4893H101.129V15.4521H104.923ZM109.625 12.9912H111.588V13.958H109.625V16.9023H108.483V10.1641H109.625V12.9912ZM109.625 20.667H102.477V22.1025H110.109V23.04H101.349V19.7881H108.483V18.4404H101.32V17.5176H109.625V20.667ZM118.913 13.3574H112.379V12.4199H115.089V10.5596H116.232V12.4199H118.913V13.3574ZM115.646 14.2363C116.188 14.2363 116.671 14.3633 117.096 14.6172C117.526 14.8662 117.86 15.2153 118.1 15.6646C118.344 16.1138 118.468 16.624 118.473 17.1953C118.468 17.7715 118.344 18.2866 118.1 18.7407C117.86 19.1899 117.526 19.5439 117.096 19.8027C116.671 20.0566 116.188 20.1836 115.646 20.1836C115.109 20.1836 114.628 20.0566 114.203 19.8027C113.778 19.5439 113.446 19.1875 113.207 18.7334C112.968 18.2793 112.848 17.7666 112.848 17.1953C112.848 16.6289 112.968 16.1211 113.207 15.6719C113.446 15.2178 113.778 14.8662 114.203 14.6172C114.628 14.3633 115.109 14.2363 115.646 14.2363ZM115.646 15.2031C115.309 15.208 115.004 15.2983 114.73 15.4741C114.462 15.645 114.252 15.8818 114.101 16.1846C113.949 16.4824 113.874 16.8193 113.874 17.1953C113.874 17.5762 113.949 17.918 114.101 18.2207C114.257 18.5234 114.469 18.7603 114.738 18.9312C115.006 19.0972 115.309 19.1777 115.646 19.1729C115.988 19.1777 116.295 19.0972 116.569 18.9312C116.842 18.7603 117.057 18.5234 117.213 18.2207C117.37 17.918 117.448 17.5762 117.448 17.1953C117.448 16.8193 117.37 16.4824 117.213 16.1846C117.057 15.8818 116.842 15.645 116.569 15.4741C116.295 15.2983 115.988 15.208 115.646 15.2031ZM123.498 23.1865H122.399V16.6094H120.67V22.542H119.586V10.4863H120.67V15.6572H122.399V10.1641H123.498V23.1865ZM137.296 21.5166H125.373V20.5498H128.332V17.0342C127.765 16.7412 127.326 16.3652 127.013 15.9062C126.701 15.4424 126.544 14.9199 126.544 14.3389C126.544 13.6748 126.747 13.0913 127.152 12.5884C127.558 12.0806 128.119 11.6875 128.837 11.4092C129.56 11.1309 130.382 10.9893 131.305 10.9844C132.228 10.9893 133.048 11.1309 133.766 11.4092C134.489 11.6875 135.053 12.0806 135.458 12.5884C135.863 13.0913 136.066 13.6748 136.066 14.3389C136.066 14.9102 135.915 15.4253 135.612 15.8843C135.309 16.3384 134.884 16.7119 134.337 17.0049V20.5498H137.296V21.5166ZM131.305 11.9365C130.597 11.9316 129.967 12.0293 129.416 12.2295C128.864 12.4297 128.432 12.7129 128.119 13.0791C127.812 13.4404 127.658 13.8604 127.658 14.3389C127.658 14.8174 127.812 15.2422 128.119 15.6133C128.432 15.9795 128.864 16.2651 129.416 16.4702C129.967 16.6704 130.597 16.7705 131.305 16.7705C132.008 16.7705 132.636 16.668 133.188 16.4629C133.739 16.2578 134.171 15.9722 134.484 15.606C134.796 15.2397 134.953 14.8174 134.953 14.3389C134.953 13.8604 134.796 13.4404 134.484 13.0791C134.171 12.7129 133.739 12.4297 133.188 12.2295C132.636 12.0293 132.008 11.9316 131.305 11.9365ZM133.18 20.5498V17.4517C132.599 17.603 131.974 17.6787 131.305 17.6787C130.631 17.6787 130.016 17.6055 129.459 17.459V20.5498H133.18Z" fill="#0033FF"/>
</svg>
