<svg width="66" height="22" viewBox="0 0 66 22" fill="none" xmlns="http://www.w3.org/2000/svg">
<rect x="0.25" y="0.25" width="65.5" height="21.5" rx="4.75" fill="white"/>
<rect x="0.25" y="0.25" width="65.5" height="21.5" rx="4.75" stroke="#454545" stroke-width="0.5"/>
<path d="M13.2617 9.44336C13.2617 10.9766 14.2773 12.5488 15.5078 13.1543L15.0391 13.7695C14.082 13.2666 13.2812 12.2412 12.9004 11.0352C12.5098 12.3193 11.6895 13.4131 10.7129 13.9355L10.2246 13.3203C11.4941 12.6953 12.5 11.0254 12.5098 9.44336V7.86133H13.2617V9.44336ZM17.0703 7.10938V10.6348H18.5254V11.2988H17.0703V15.791H16.3086V7.10938H17.0703ZM22.1191 8.97461C22.1191 10.1465 23.0469 11.2012 24.3457 11.6113L23.9551 12.2266C22.9443 11.8848 22.1387 11.1719 21.748 10.2539C21.3672 11.2451 20.5518 12.0264 19.5215 12.4023L19.1211 11.7871C20.4199 11.3281 21.3477 10.2051 21.3477 8.97461V8.4668H19.3164V7.8418H24.1211V8.4668H22.1191V8.97461ZM26.1621 7.11914V13.4863H25.4004V7.11914H26.1621ZM26.4355 14.9609V15.6055H20.5566V12.8809H21.3184V14.9609H26.4355ZM34.1016 7.2168C36.0352 7.2168 37.168 7.75391 37.168 8.7207C37.168 9.63379 36.1768 10.1562 34.4629 10.2246V10.8887H38.0566V11.5137H30.1465V10.8887H33.7109V10.2246C32.0166 10.1514 31.0254 9.62891 31.0254 8.7207C31.0254 7.75391 32.168 7.2168 34.1016 7.2168ZM34.1016 7.80273C32.6562 7.8125 31.8164 8.14453 31.8262 8.7207C31.8164 9.31641 32.6562 9.63867 34.1016 9.64844C35.5371 9.63867 36.3867 9.31641 36.3867 8.7207C36.3867 8.14453 35.5371 7.8125 34.1016 7.80273ZM37.041 12.2461V14.1895H31.8848V15.0879H37.3047V15.6934H31.123V13.623H36.2891V12.8418H31.1035V12.2461H37.041ZM45.957 7.10938V15.8105H45.1953V7.10938H45.957ZM43.3203 7.91992V11.0059H40.0781V13.0566C41.5186 13.0566 42.8027 12.9932 44.3555 12.7441L44.4336 13.3887C42.832 13.6426 41.5137 13.7012 40.0195 13.7012H39.2969V10.3809H42.5488V8.55469H39.2773V7.91992H43.3203ZM54.6094 7.10938V15.791H53.8379V7.10938H54.6094ZM52.041 8.05664C52.0312 10.5566 50.8691 12.7637 47.959 14.1602L47.5391 13.5352C49.8877 12.4219 51.084 10.7568 51.2598 8.68164H47.9395V8.05664H52.041Z" fill="black"/>
</svg>
