<svg width="95" height="22" viewBox="0 0 95 22" fill="none" xmlns="http://www.w3.org/2000/svg">
<rect x="0.25" y="0.25" width="94.5" height="21.5" rx="4.75" fill="white"/>
<rect x="0.25" y="0.25" width="94.5" height="21.5" rx="4.75" stroke="#454545" stroke-width="0.5"/>
<path d="M17.5293 7.10938V15.791H16.7578V7.10938H17.5293ZM14.9609 8.05664C14.9512 10.5566 13.7891 12.7637 10.8789 14.1602L10.459 13.5352C12.8076 12.4219 14.0039 10.7568 14.1797 8.68164H10.8594V8.05664H14.9609ZM20.8105 7.46094V8.56445H25.1074V7.46094H25.8691V10.9277H23.3301V11.8555H26.9043V12.4902H18.9941V11.8555H22.5684V10.9277H20.0488V7.46094H20.8105ZM20.8105 10.3125H25.1074V9.16992H20.8105V10.3125ZM26.0254 14.9609V15.6055H20.0195V13.1836H20.791V14.9609H26.0254ZM37.3047 7.10938V15.8105H36.5332V7.10938H37.3047ZM32.6855 7.7832C33.9746 7.79297 34.9023 8.96484 34.9023 10.8105C34.9023 12.6562 33.9746 13.8281 32.6855 13.8281C31.3867 13.8281 30.4688 12.6562 30.4688 10.8105C30.4688 8.96484 31.3867 7.79297 32.6855 7.7832ZM32.6855 8.4668C31.8164 8.47656 31.2109 9.39453 31.2109 10.8105C31.2109 12.2266 31.8164 13.1445 32.6855 13.1445C33.5547 13.1445 34.1602 12.2266 34.1602 10.8105C34.1602 9.39453 33.5547 8.47656 32.6855 8.4668ZM43.3105 7.96875V13.6133H39.2969V7.96875H43.3105ZM40.0488 8.58398V12.9883H42.5586V8.58398H40.0488ZM45.9473 7.10938V15.8105H45.1758V7.10938H45.9473ZM50.5371 9.77539C50.5371 11.25 51.6113 12.7441 52.8906 13.3008L52.4609 13.9062C51.4453 13.4424 50.5664 12.4414 50.166 11.2402C49.7559 12.5146 48.8818 13.623 47.8906 14.1211L47.4316 13.5156C48.6719 12.9199 49.7559 11.2793 49.7656 9.77539V8.64258H47.7148V8.00781H52.6074V8.64258H50.5371V9.77539ZM54.5898 7.10938V15.791H53.8184V7.10938H54.5898ZM64.0234 14.0723V14.7168H56.0742V14.0723H59.6484V12.4316H57.0703V9.75586H62.2656V8.38867H57.0508V7.75391H63.0176V10.3809H57.832V11.7969H63.2227V12.4316H60.4004V14.0723H64.0234ZM74.4238 7.11914V13.5449H73.6523V11.2109H71.6016V12.0605H67.666V7.69531H68.4277V9.23828H70.8496V7.69531H71.6016V8.71094H73.6523V7.11914H74.4238ZM74.6191 14.9609V15.6055H68.8086V12.9102H69.5801V14.9609H74.6191ZM68.4277 11.4258H70.8496V9.84375H68.4277V11.4258ZM71.6016 10.5762H73.6523V9.35547H71.6016V10.5762ZM83.0664 7.11914V12.334H82.2949V11.1621H79.9902V10.5273H82.2949V9.35547H80.0781C79.5068 10.752 78.1641 11.7627 76.3086 12.3145L75.9863 11.709C78.0859 11.084 79.3896 9.91211 79.5508 8.4082H76.4258V7.76367H80.3809C80.3809 8.10547 80.3418 8.43262 80.2734 8.74023H82.2949V7.11914H83.0664ZM80.2246 12.4219C81.9824 12.4219 83.1152 13.0469 83.1152 14.082C83.1152 15.127 81.9824 15.752 80.2246 15.752C78.4473 15.752 77.3242 15.127 77.3242 14.082C77.3242 13.0469 78.4473 12.4219 80.2246 12.4219ZM80.2246 13.0371C78.916 13.0273 78.0762 13.4277 78.0762 14.082C78.0762 14.7363 78.916 15.127 80.2246 15.127C81.5137 15.127 82.3438 14.7363 82.3535 14.082C82.3438 13.4277 81.5137 13.0273 80.2246 13.0371Z" fill="black"/>
</svg>
