<svg width="137" height="32" viewBox="0 0 137 32" fill="none" xmlns="http://www.w3.org/2000/svg">
<rect x="0.75" y="0.406982" width="135.5" height="30.4913" rx="5.25" fill="#F9F9F9"/>
<rect x="0.75" y="0.406982" width="135.5" height="30.4913" rx="5.25" stroke="#9747FF" stroke-width="0.5"/>
<path d="M26 15.6587C26 21.1862 21.538 25.6482 16.0105 25.6482C10.483 25.6482 6.021 21.1862 6.021 15.6587C6.021 10.1312 10.483 5.66919 16.0105 5.66919C21.538 5.66919 26 10.1312 26 15.6587Z" fill="#FFDD67"/>
<path d="M25.9334 9.39868C25.7669 8.49963 25.2674 7.76706 24.435 7.53398C23.5359 7.30089 22.7368 7.63387 21.9709 8.43303C21.538 7.23429 20.8721 6.33523 19.8065 5.86906C18.741 5.40288 17.6754 5.73586 17.0094 6.56832C16.3102 7.43408 16.0438 8.79931 16.7764 10.5641C17.4756 12.229 20.5724 15.5589 20.6723 15.6588C20.8055 15.5922 24.2685 13.4278 25.1009 12.3622C25.9334 11.33 26.0999 10.2977 25.9334 9.39868ZM15.0115 6.56832C14.3456 5.73586 13.28 5.40288 12.2145 5.86906C11.1489 6.33523 10.483 7.23429 10.0501 8.43303C9.25093 7.66717 8.45176 7.30089 7.55271 7.56727C6.75355 7.80036 6.22077 8.53293 6.05428 9.43198C5.88779 10.2977 6.08758 11.3633 6.88674 12.3955C7.7525 13.4278 11.2155 15.5922 11.3487 15.6588C11.4486 15.5589 14.5454 12.229 15.2446 10.5641C15.9772 8.79931 15.7108 7.46738 15.0115 6.56832Z" fill="#F46767"/>
<path d="M21.6713 17.69C21.6713 17.4236 21.5048 17.0906 21.0719 16.9907C19.9065 16.7577 18.2083 16.5579 16.0106 16.5579C13.8129 16.5579 12.1147 16.7909 10.9492 16.9907C10.483 17.0906 10.3499 17.4236 10.3499 17.69C10.3499 20.1208 12.2146 22.5516 16.0106 22.5516C19.8066 22.5183 21.6713 20.0875 21.6713 17.69Z" fill="#664E27"/>
<path d="M20.2394 17.7566C19.5068 17.6234 17.9751 17.4236 16.0105 17.4236C14.0459 17.4236 12.5141 17.6234 11.7816 17.7566C11.3487 17.8232 11.3154 17.9897 11.3487 18.256C11.382 18.3892 11.382 18.589 11.4486 18.7888C11.4819 18.9886 11.5485 19.0885 11.8815 19.0552C12.5141 18.9886 19.5401 18.9886 20.1728 19.0552C20.5057 19.0885 20.539 18.9886 20.6056 18.7888C20.6389 18.589 20.6722 18.4225 20.7055 18.256C20.7055 17.9897 20.6722 17.8232 20.2394 17.7566Z" fill="white"/>
<path d="M47.2646 21.8684H46.1074V8.81665H47.2646V21.8684ZM43.5732 11.0286H38.5342V17.635C39.8721 17.635 40.9976 17.6057 41.9106 17.5471C42.8286 17.4885 43.7539 17.3762 44.6865 17.2102L44.8037 18.177C43.8467 18.3479 42.9019 18.4651 41.9692 18.5286C41.0366 18.5872 39.8574 18.6213 38.4316 18.6311H37.377V10.0618H43.5732V11.0286ZM53.9004 12.8157C53.8955 13.4993 54.042 14.1951 54.3398 14.9031C54.6426 15.6062 55.0527 16.2434 55.5703 16.8147C56.0879 17.3811 56.6592 17.8108 57.2842 18.1038L56.625 19.012C55.8975 18.6604 55.2407 18.1233 54.6548 17.4006C54.0737 16.678 53.6343 15.8723 53.3364 14.9836C53.1411 15.6184 52.8726 16.2214 52.5308 16.7927C52.189 17.364 51.7983 17.8694 51.3589 18.3088C50.9194 18.7434 50.458 19.0852 49.9746 19.3342L49.2715 18.426C49.8916 18.1282 50.4678 17.6765 51 17.071C51.5371 16.4656 51.9644 15.7869 52.2817 15.0349C52.604 14.283 52.7676 13.5432 52.7725 12.8157V11.1165H49.7402V10.1643H56.8301V11.1165H53.9004V12.8157ZM59.5693 14.0901H61.752V15.0715H59.5693V21.8391H58.4268V8.81665H59.5693V14.0901ZM73.207 18.3528H72.0645V8.8313H73.207V18.3528ZM73.6172 21.5608H64.7988V17.386H65.9414V20.594H73.6172V21.5608ZM66.1758 9.7395C66.8203 9.7395 67.4014 9.87622 67.9189 10.1497C68.4414 10.4182 68.8491 10.7966 69.1421 11.2849C69.4399 11.7683 69.5889 12.3176 69.5889 12.9329C69.5889 13.5579 69.4399 14.1145 69.1421 14.6028C68.8491 15.0862 68.4414 15.4646 67.9189 15.738C67.4014 16.0066 66.8203 16.1409 66.1758 16.1409C65.5312 16.1409 64.9478 16.0066 64.4253 15.738C63.9077 15.4646 63.5 15.0862 63.2021 14.6028C62.9092 14.1145 62.7627 13.5579 62.7627 12.9329C62.7627 12.3176 62.9092 11.7683 63.2021 11.2849C63.5 10.7966 63.9077 10.4182 64.4253 10.1497C64.9478 9.87622 65.5312 9.7395 66.1758 9.7395ZM66.1758 10.7502C65.7412 10.7502 65.3481 10.843 64.9966 11.0286C64.6499 11.2141 64.3765 11.4729 64.1763 11.8049C63.981 12.137 63.8857 12.5129 63.8906 12.9329C63.8857 13.3577 63.981 13.7385 64.1763 14.0754C64.3765 14.4075 64.6499 14.6663 64.9966 14.8518C65.3481 15.0374 65.7412 15.1301 66.1758 15.1301C66.6006 15.1301 66.9863 15.0374 67.333 14.8518C67.6846 14.6663 67.9604 14.4075 68.1606 14.0754C68.3608 13.7385 68.4609 13.3577 68.4609 12.9329C68.4609 12.5178 68.3608 12.1443 68.1606 11.8123C67.9604 11.4802 67.6846 11.2214 67.333 11.0359C66.9863 10.8455 66.6006 10.7502 66.1758 10.7502ZM86.1562 21.8684H84.999V8.81665H86.1562V21.8684ZM79.2275 9.82739C79.8721 9.83228 80.4458 10.0227 80.9487 10.3987C81.4517 10.7698 81.8447 11.2971 82.1279 11.9807C82.4111 12.6643 82.5527 13.4602 82.5527 14.3684C82.5527 15.2766 82.4111 16.0725 82.1279 16.7561C81.8447 17.4397 81.4517 17.967 80.9487 18.3381C80.4458 18.7092 79.8721 18.8948 79.2275 18.8948C78.583 18.8948 78.0068 18.7092 77.499 18.3381C76.9961 17.967 76.603 17.4397 76.3198 16.7561C76.0415 16.0725 75.9023 15.2766 75.9023 14.3684C75.9023 13.4602 76.0415 12.6643 76.3198 11.9807C76.603 11.2971 76.9961 10.7698 77.499 10.3987C78.002 10.0227 78.5781 9.83228 79.2275 9.82739ZM79.2275 10.8528C78.793 10.8577 78.4072 11.0066 78.0703 11.2996C77.7383 11.5876 77.4795 11.9978 77.2939 12.53C77.1084 13.0574 77.0156 13.6702 77.0156 14.3684C77.0156 15.0667 77.1084 15.6819 77.2939 16.2141C77.4795 16.7415 77.7407 17.1492 78.0776 17.4373C78.4146 17.7253 78.7979 17.8694 79.2275 17.8694C79.6572 17.8694 80.0405 17.7253 80.3774 17.4373C80.7144 17.1492 80.9756 16.7415 81.1611 16.2141C81.3467 15.6819 81.4395 15.0667 81.4395 14.3684C81.4395 13.6702 81.3467 13.0574 81.1611 12.53C80.9756 11.9978 80.7144 11.5876 80.3774 11.2996C80.0454 11.0066 79.6621 10.8577 79.2275 10.8528ZM103.31 21.8391H102.196V8.81665H103.31V21.8391ZM100.717 21.1799H99.6182V16.9026H97.5381C97.3086 17.5569 96.9839 18.0647 96.564 18.426C96.144 18.7874 95.6582 18.968 95.1064 18.968C94.5449 18.968 94.0518 18.7849 93.627 18.4187C93.207 18.0476 92.8823 17.5203 92.6528 16.8367C92.4233 16.1531 92.3086 15.3547 92.3086 14.4417C92.3086 13.5286 92.4233 12.7302 92.6528 12.0466C92.8823 11.363 93.207 10.8381 93.627 10.4719C94.0518 10.1008 94.5449 9.91528 95.1064 9.91528C95.6582 9.91528 96.144 10.0959 96.564 10.4573C96.9839 10.8186 97.3086 11.3264 97.5381 11.9807H99.6182V9.09497H100.717V21.1799ZM95.1064 10.9993C94.7549 10.9993 94.4473 11.1384 94.1836 11.4167C93.9248 11.6951 93.7246 12.093 93.583 12.6106C93.4463 13.1282 93.3779 13.7385 93.3779 14.4417C93.3779 15.1399 93.4463 15.7478 93.583 16.2654C93.7246 16.783 93.9248 17.1809 94.1836 17.4592C94.4473 17.7375 94.7549 17.8743 95.1064 17.8694C95.4531 17.8743 95.7583 17.7375 96.022 17.4592C96.2856 17.1809 96.4883 16.783 96.6299 16.2654C96.7764 15.7478 96.8496 15.1399 96.8496 14.4417C96.8496 13.7434 96.7764 13.1355 96.6299 12.6179C96.4883 12.0955 96.2856 11.6951 96.022 11.4167C95.7632 11.1384 95.458 10.9993 95.1064 10.9993ZM97.7871 12.9329C97.875 13.3918 97.9189 13.8948 97.9189 14.4417C97.9189 14.969 97.8774 15.467 97.7944 15.9358H99.6182V12.9329H97.7871ZM106.4 13.4016H107.982V10.0325H108.964V18.675H105.434V10.0325H106.4V13.4016ZM107.982 17.7229V14.3098H106.4V17.7229H107.982ZM110.854 13.4016H112.421V10.0325H113.402V13.7678H115.043V8.81665H116.142V21.8391H115.043V14.7346H113.402V18.675H109.872V10.0325H110.854V13.4016ZM112.421 17.7229V14.3098H110.854V17.7229H112.421ZM129.999 20.1692H118.075V19.2024H121.034V15.6868C120.468 15.3938 120.028 15.0178 119.716 14.5588C119.403 14.095 119.247 13.5725 119.247 12.9915C119.247 12.3274 119.45 11.7439 119.855 11.241C120.26 10.7332 120.822 10.3401 121.54 10.0618C122.262 9.78345 123.085 9.64185 124.008 9.63696C124.931 9.64185 125.751 9.78345 126.469 10.0618C127.191 10.3401 127.755 10.7332 128.161 11.241C128.566 11.7439 128.769 12.3274 128.769 12.9915C128.769 13.5627 128.617 14.0779 128.314 14.5369C128.012 14.991 127.587 15.3645 127.04 15.6575V19.2024H129.999V20.1692ZM124.008 10.5891C123.3 10.5842 122.67 10.6819 122.118 10.8821C121.566 11.0823 121.134 11.3655 120.822 11.7317C120.514 12.093 120.36 12.5129 120.36 12.9915C120.36 13.47 120.514 13.8948 120.822 14.2659C121.134 14.6321 121.566 14.9177 122.118 15.1228C122.67 15.323 123.3 15.4231 124.008 15.4231C124.711 15.4231 125.338 15.3206 125.89 15.1155C126.442 14.9104 126.874 14.6248 127.187 14.2585C127.499 13.8923 127.655 13.47 127.655 12.9915C127.655 12.5129 127.499 12.093 127.187 11.7317C126.874 11.3655 126.442 11.0823 125.89 10.8821C125.338 10.6819 124.711 10.5842 124.008 10.5891ZM125.883 19.2024V16.1042C125.302 16.2556 124.677 16.3313 124.008 16.3313C123.334 16.3313 122.719 16.2581 122.162 16.1116V19.2024H125.883Z" fill="#0033FF"/>
</svg>
