<svg width="196" height="32" viewBox="0 0 196 32" fill="none" xmlns="http://www.w3.org/2000/svg">
<rect x="0.75" y="0.75" width="194.5" height="30.5" rx="5.25" fill="#F9F9F9"/>
<rect x="0.75" y="0.75" width="194.5" height="30.5" rx="5.25" stroke="#9747FF" stroke-width="0.5"/>
<path d="M16 26C21.5228 26 26 21.5228 26 16C26 10.4772 21.5228 6 16 6C10.4772 6 6 10.4772 6 16C6 21.5228 10.4772 26 16 26Z" fill="#FFDD67"/>
<path d="M11.0002 19.0001C13.0252 19.0001 14.6668 17.3585 14.6668 15.3334C14.6668 13.3084 13.0252 11.6667 11.0002 11.6667C8.97512 11.6667 7.3335 13.3084 7.3335 15.3334C7.3335 17.3585 8.97512 19.0001 11.0002 19.0001Z" fill="white"/>
<path d="M21.0002 19.0001C23.0252 19.0001 24.6668 17.3585 24.6668 15.3334C24.6668 13.3084 23.0252 11.6667 21.0002 11.6667C18.9751 11.6667 17.3335 13.3084 17.3335 15.3334C17.3335 17.3585 18.9751 19.0001 21.0002 19.0001Z" fill="white"/>
<path d="M17.3333 14.3334C16.7333 13.9001 15.2667 13.9001 14.6667 14.3334C14.3 14.0001 14.3667 13.6334 14 13.3001C15.0333 12.5334 16.8 12.4001 18 13.3001C17.6333 13.6334 17.7 14.0001 17.3333 14.3334Z" fill="#494949"/>
<path d="M20.9998 11C18.5998 11 16.6665 12.9333 16.6665 15.3333C16.6665 17.7333 18.5998 19.6667 20.9998 19.6667C23.3998 19.6667 25.3332 17.7333 25.3332 15.3333C25.3332 12.9333 23.3998 11 20.9998 11ZM20.9998 18.6667C19.1665 18.6667 17.6665 17.1667 17.6665 15.3333C17.6665 13.5 19.1665 12 20.9998 12C22.8332 12 24.3332 13.5 24.3332 15.3333C24.3332 17.1667 22.8332 18.6667 20.9998 18.6667ZM10.9998 11C8.59984 11 6.6665 12.9333 6.6665 15.3333C6.6665 17.7333 8.59984 19.6667 10.9998 19.6667C13.3998 19.6667 15.3332 17.7333 15.3332 15.3333C15.3332 12.9333 13.3998 11 10.9998 11ZM10.9998 18.6667C9.1665 18.6667 7.6665 17.1667 7.6665 15.3333C7.6665 13.5 9.1665 12 10.9998 12C12.8332 12 14.3332 13.5 14.3332 15.3333C14.3332 17.1667 12.8332 18.6667 10.9998 18.6667Z" fill="#494949"/>
<path d="M11.9998 17.1666C12.7362 17.1666 13.3332 16.4204 13.3332 15.4999C13.3332 14.5794 12.7362 13.8333 11.9998 13.8333C11.2635 13.8333 10.6665 14.5794 10.6665 15.4999C10.6665 16.4204 11.2635 17.1666 11.9998 17.1666Z" fill="#664E27"/>
<path d="M19.9998 17.1666C20.7362 17.1666 21.3332 16.4204 21.3332 15.4999C21.3332 14.5794 20.7362 13.8333 19.9998 13.8333C19.2635 13.8333 18.6665 14.5794 18.6665 15.4999C18.6665 16.4204 19.2635 17.1666 19.9998 17.1666Z" fill="#664E27"/>
<path d="M14.2333 22.4332C16.1667 22.9332 18.2333 22.5665 19.8667 21.4332C20.2667 21.1332 19.5 20.0999 19.1 20.3665C18.0333 21.1332 16.3 21.6332 14.5333 21.1665C14.1 21.0665 13.7333 22.2999 14.2333 22.4332Z" fill="#664E27"/>
<path d="M23.0667 10.5666C22.0001 9.66663 20.5667 9.26663 19.1667 9.5333C18.9667 9.56663 18.8001 8.86663 19.0334 8.79997C20.6334 8.49997 22.3001 8.96663 23.5334 9.99997C23.7334 10.1666 23.2001 10.7 23.0667 10.5666ZM12.8334 9.46663C11.4334 9.2333 10.0001 9.59997 8.9334 10.5C8.80006 10.6333 8.26673 10.1 8.46673 9.9333C9.70006 8.86663 11.3667 8.4333 12.9667 8.7333C13.2001 8.79997 13.0334 9.49997 12.8334 9.46663Z" fill="#917524"/>
<path d="M47.2646 19.0664H46.1074V17.7188H43.4121V16.8838H46.1074V9.17871H47.2646V19.0664ZM47.5869 21.9082H38.3291V18.0996H39.4863V20.9414H47.5869V21.9082ZM36.4541 15.2139C38.2412 15.2041 39.7939 15.1772 41.1123 15.1333C42.4355 15.0894 43.71 14.9893 44.9355 14.833L45.0088 15.668C43.9346 15.8389 42.7432 15.9634 41.4346 16.0415V18.6123H40.2773V16.1001C39.3057 16.1343 38.3193 16.1514 37.3184 16.1514H36.6152L36.4541 15.2139ZM40.7314 9.70605C41.3613 9.70605 41.918 9.80127 42.4014 9.9917C42.8896 10.1772 43.2681 10.4434 43.5366 10.79C43.8101 11.1318 43.9492 11.5273 43.9541 11.9766C43.9492 12.4355 43.8101 12.8359 43.5366 13.1777C43.2681 13.5146 42.8896 13.7759 42.4014 13.9614C41.918 14.1421 41.3613 14.2324 40.7314 14.2324C40.0967 14.2324 39.5352 14.1421 39.0469 13.9614C38.5586 13.7759 38.1802 13.5146 37.9116 13.1777C37.6431 12.8359 37.5088 12.4355 37.5088 11.9766C37.5088 11.5273 37.6431 11.1318 37.9116 10.79C38.1802 10.4434 38.5586 10.1772 39.0469 9.9917C39.5352 9.80127 40.0967 9.70605 40.7314 9.70605ZM40.7314 10.585C40.3115 10.5801 39.9404 10.6362 39.6182 10.7534C39.2959 10.8706 39.0444 11.0366 38.8638 11.2515C38.688 11.4614 38.6025 11.7031 38.6074 11.9766C38.6025 12.2549 38.688 12.5015 38.8638 12.7163C39.0396 12.9263 39.2886 13.0898 39.6108 13.207C39.938 13.3242 40.3115 13.3828 40.7314 13.3828C41.1367 13.3828 41.5005 13.3242 41.8228 13.207C42.145 13.0898 42.3965 12.9263 42.5771 12.7163C42.7578 12.5015 42.8506 12.2549 42.8555 11.9766C42.8506 11.7031 42.7554 11.4614 42.5698 11.2515C42.3892 11.0366 42.1377 10.8706 41.8154 10.7534C41.498 10.6362 41.1367 10.5801 40.7314 10.585ZM59.5693 14.54H61.752V15.4922H59.5693V22.1865H58.4268V9.16406H59.5693V14.54ZM57.167 12.2109H49.418V11.2588H52.7725V9.3252H53.915V11.2588H57.167V12.2109ZM53.3584 13.2949C53.9688 13.2949 54.5156 13.4219 54.999 13.6758C55.4824 13.9297 55.8608 14.2837 56.1343 14.7378C56.4077 15.1919 56.5469 15.707 56.5518 16.2832C56.5469 16.8594 56.4077 17.3745 56.1343 17.8286C55.8608 18.2827 55.4824 18.6367 54.999 18.8906C54.5156 19.1445 53.9688 19.2715 53.3584 19.2715C52.7432 19.2715 52.1914 19.1445 51.7031 18.8906C51.2197 18.6367 50.8413 18.2827 50.5679 17.8286C50.2944 17.3745 50.1602 16.8594 50.165 16.2832C50.1602 15.707 50.2944 15.1919 50.5679 14.7378C50.8413 14.2837 51.2197 13.9297 51.7031 13.6758C52.1914 13.4219 52.7432 13.2949 53.3584 13.2949ZM53.3584 14.2617C52.958 14.2617 52.5967 14.3496 52.2744 14.5254C51.957 14.6963 51.708 14.9355 51.5273 15.2432C51.3467 15.5508 51.2588 15.8975 51.2637 16.2832C51.2588 16.6738 51.3467 17.0229 51.5273 17.3306C51.708 17.6333 51.957 17.8701 52.2744 18.041C52.5967 18.2119 52.958 18.2949 53.3584 18.29C53.7539 18.2949 54.1104 18.2119 54.4277 18.041C54.7451 17.8701 54.9941 17.6333 55.1748 17.3306C55.3555 17.0229 55.4482 16.6738 55.4531 16.2832C55.4482 15.8975 55.3555 15.5508 55.1748 15.2432C54.9941 14.9355 54.7451 14.6963 54.4277 14.5254C54.1104 14.3496 53.7539 14.2617 53.3584 14.2617ZM72.9873 14.042H64.0664V9.64746H65.209V13.1191H72.9873V14.042ZM74.3643 16.752H62.4404V15.8145H74.3643V16.752ZM73.0605 21.8643H63.9932V18.085H65.1357V20.9121H73.0605V21.8643ZM89.9502 22.1865H88.793V9.16406H89.9502V22.1865ZM86.0977 10.585C86.0879 12.5527 85.5898 14.3203 84.6035 15.8877C83.6172 17.4502 82.0742 18.7344 79.9746 19.7402L79.3447 18.8027C81.083 17.9775 82.4136 16.9521 83.3364 15.7266C84.2642 14.501 84.7939 13.0996 84.9258 11.5225H79.9453V10.585H86.0977ZM102.665 13.7637H93.7734V9.42773H94.916V12.8115H102.665V13.7637ZM104.027 16.2393H92.1475V15.2871H104.027V16.2393ZM98.0801 17.4111C99.0127 17.4111 99.8135 17.5039 100.482 17.6895C101.151 17.8701 101.664 18.1387 102.021 18.4951C102.377 18.8467 102.558 19.2715 102.562 19.7695C102.558 20.2676 102.377 20.6924 102.021 21.0439C101.664 21.4004 101.151 21.6689 100.482 21.8496C99.8135 22.0352 99.0127 22.1279 98.0801 22.1279C97.1426 22.1279 96.3369 22.0352 95.6631 21.8496C94.9893 21.6689 94.4741 21.4004 94.1177 21.0439C93.7612 20.6924 93.583 20.2676 93.583 19.7695C93.583 19.2715 93.7612 18.8467 94.1177 18.4951C94.4741 18.1387 94.9893 17.8701 95.6631 17.6895C96.3369 17.5039 97.1426 17.4111 98.0801 17.4111ZM98.0801 18.3193C97.0254 18.3291 96.2051 18.4585 95.6191 18.7075C95.0381 18.9565 94.75 19.3105 94.7549 19.7695C94.75 20.0723 94.8794 20.3335 95.1431 20.5532C95.4067 20.7729 95.7876 20.9414 96.2856 21.0586C96.7886 21.1758 97.3867 21.2344 98.0801 21.2344C98.7637 21.2344 99.3545 21.1758 99.8525 21.0586C100.355 20.9414 100.739 20.7729 101.002 20.5532C101.271 20.3335 101.405 20.0723 101.405 19.7695C101.405 19.3105 101.112 18.9565 100.526 18.7075C99.9404 18.4585 99.125 18.3291 98.0801 18.3193ZM111.044 9.39844C112.011 9.39844 112.838 9.48633 113.527 9.66211C114.215 9.83301 114.74 10.0869 115.102 10.4238C115.463 10.7559 115.644 11.1611 115.644 11.6396C115.644 12.3721 115.243 12.9336 114.442 13.3242C113.642 13.7148 112.509 13.915 111.044 13.9248C110.077 13.9199 109.247 13.8296 108.554 13.6538C107.865 13.478 107.338 13.2217 106.972 12.8848C106.61 12.543 106.43 12.1279 106.43 11.6396C106.43 11.1611 106.61 10.7559 106.972 10.4238C107.338 10.0869 107.865 9.83301 108.554 9.66211C109.247 9.48633 110.077 9.39844 111.044 9.39844ZM111.044 10.2627C110.326 10.2627 109.711 10.3188 109.198 10.4312C108.686 10.5386 108.295 10.6973 108.026 10.9072C107.758 11.1123 107.626 11.3564 107.631 11.6396C107.626 12.0889 107.921 12.4355 108.517 12.6797C109.113 12.9238 109.955 13.0459 111.044 13.0459C112.128 13.0459 112.97 12.9238 113.571 12.6797C114.171 12.4355 114.472 12.0889 114.472 11.6396C114.472 11.3564 114.335 11.1123 114.062 10.9072C113.788 10.7021 113.395 10.5435 112.882 10.4312C112.37 10.3188 111.757 10.2627 111.044 10.2627ZM116.977 15.7412H105.111V14.8037H116.977V15.7412ZM115.453 19.7842H107.719V21.1318H115.849V22.04H106.576V18.9346H114.325V17.748H106.547V16.8691H115.453V19.7842ZM126.278 11.8887C126.278 12.4014 126.413 12.8945 126.681 13.3682C126.955 13.8418 127.335 14.2593 127.824 14.6206C128.317 14.9819 128.881 15.2578 129.516 15.4482L128.974 16.3271C128.227 16.1025 127.57 15.7607 127.003 15.3018C126.442 14.8379 126.017 14.2935 125.729 13.6685C125.451 14.3521 125.021 14.9478 124.44 15.4556C123.864 15.9585 123.188 16.3369 122.411 16.5908L121.84 15.6826C122.484 15.4873 123.056 15.2017 123.554 14.8257C124.057 14.4448 124.447 14.0005 124.726 13.4927C125.009 12.9849 125.15 12.4502 125.15 11.8887V11.6396H122.206V10.6875H125.15V9.10547H126.308V10.6875H129.223V11.6396H126.278V11.8887ZM132.021 12.3867H133.983V13.3535H132.021V16.7373H130.878V9.16406H132.021V12.3867ZM132.255 18.3779H128.563C128.627 18.8174 128.856 19.2373 129.252 19.6377C129.652 20.0332 130.16 20.3726 130.775 20.6558C131.396 20.939 132.055 21.1367 132.753 21.249L132.328 22.1426C131.352 21.9814 130.468 21.6738 129.677 21.2197C128.886 20.7656 128.307 20.2188 127.941 19.5791C127.58 20.2139 127.008 20.7534 126.227 21.1978C125.446 21.647 124.569 21.957 123.598 22.1279L123.158 21.249C123.861 21.1367 124.521 20.9414 125.136 20.6631C125.756 20.3799 126.264 20.0405 126.659 19.645C127.055 19.2495 127.284 18.8271 127.348 18.3779H123.671V17.4404H132.255V18.3779ZM145.57 22.1865H144.413V9.16406H145.57V22.1865ZM141.718 10.585C141.708 12.5527 141.21 14.3203 140.224 15.8877C139.237 17.4502 137.694 18.7344 135.595 19.7402L134.965 18.8027C136.703 17.9775 138.034 16.9521 138.957 15.7266C139.884 14.501 140.414 13.0996 140.546 11.5225H135.565V10.585H141.718ZM156.396 10.541C156.396 11.0391 156.532 11.5054 156.806 11.9399C157.079 12.3696 157.462 12.7432 157.956 13.0605C158.454 13.373 159.027 13.6074 159.677 13.7637L159.135 14.6865C158.358 14.4766 157.685 14.1616 157.113 13.7417C156.542 13.3218 156.115 12.8213 155.832 12.2402C155.539 12.8896 155.097 13.4536 154.506 13.9321C153.92 14.4106 153.236 14.7646 152.455 14.9941L151.869 14.0859C152.523 13.9102 153.104 13.6465 153.612 13.2949C154.12 12.9434 154.516 12.5308 154.799 12.0571C155.082 11.5786 155.224 11.0732 155.224 10.541V9.73535H156.396V10.541ZM162.27 22.2012H161.142V9.17871H162.27V22.2012ZM152.382 16.1514C153.822 16.1514 155.194 16.1221 156.498 16.0635C157.802 16.0049 159.032 15.8926 160.189 15.7266L160.263 16.5615C159.096 16.7666 157.831 16.9131 156.469 17.001V21.791H155.326V17.0669C154.34 17.1108 153.119 17.1328 151.664 17.1328L151.503 16.1514H152.382ZM175.277 22.2012H174.105V18.9639H171.103V18.085H174.105V9.17871H175.277V22.2012ZM164.438 16.0342C166.166 16.0342 167.724 16.0098 169.11 15.9609C170.497 15.9072 171.825 15.79 173.095 15.6094L173.168 16.4736C171.981 16.6738 170.673 16.8154 169.242 16.8984V21.791H168.085V16.957C167.133 16.9961 165.971 17.0156 164.599 17.0156L164.438 16.0342ZM168.729 9.82324C169.369 9.82324 169.936 9.93066 170.429 10.1455C170.927 10.3604 171.315 10.6631 171.593 11.0537C171.872 11.4395 172.011 11.8838 172.011 12.3867C172.011 12.8945 171.872 13.3413 171.593 13.7271C171.32 14.1128 170.934 14.4106 170.436 14.6206C169.938 14.8306 169.369 14.9355 168.729 14.9355C168.085 14.9355 167.514 14.8306 167.016 14.6206C166.518 14.4106 166.129 14.1128 165.851 13.7271C165.573 13.3413 165.434 12.8945 165.434 12.3867C165.434 11.8838 165.573 11.4395 165.851 11.0537C166.129 10.6631 166.518 10.3604 167.016 10.1455C167.514 9.93066 168.085 9.82324 168.729 9.82324ZM168.729 10.7168C168.295 10.7168 167.909 10.7876 167.572 10.9292C167.235 11.0708 166.974 11.2686 166.789 11.5225C166.603 11.7764 166.513 12.0645 166.518 12.3867C166.513 12.7139 166.603 13.0044 166.789 13.2583C166.974 13.5073 167.235 13.7002 167.572 13.8369C167.909 13.9736 168.295 14.042 168.729 14.042C169.149 14.042 169.525 13.9736 169.857 13.8369C170.194 13.7002 170.456 13.5073 170.641 13.2583C170.832 13.0044 170.927 12.7139 170.927 12.3867C170.927 12.0645 170.832 11.7764 170.641 11.5225C170.456 11.2686 170.194 11.0708 169.857 10.9292C169.525 10.7876 169.149 10.7168 168.729 10.7168ZM189.384 20.5166H177.46V19.5498H180.419V16.0342C179.853 15.7412 179.413 15.3652 179.101 14.9062C178.788 14.4424 178.632 13.9199 178.632 13.3389C178.632 12.6748 178.834 12.0913 179.24 11.5884C179.645 11.0806 180.207 10.6875 180.924 10.4092C181.647 10.1309 182.47 9.98926 183.393 9.98438C184.315 9.98926 185.136 10.1309 185.854 10.4092C186.576 10.6875 187.14 11.0806 187.545 11.5884C187.951 12.0913 188.153 12.6748 188.153 13.3389C188.153 13.9102 188.002 14.4253 187.699 14.8843C187.396 15.3384 186.972 15.7119 186.425 16.0049V19.5498H189.384V20.5166ZM183.393 10.9365C182.685 10.9316 182.055 11.0293 181.503 11.2295C180.951 11.4297 180.519 11.7129 180.207 12.0791C179.899 12.4404 179.745 12.8604 179.745 13.3389C179.745 13.8174 179.899 14.2422 180.207 14.6133C180.519 14.9795 180.951 15.2651 181.503 15.4702C182.055 15.6704 182.685 15.7705 183.393 15.7705C184.096 15.7705 184.723 15.668 185.275 15.4629C185.827 15.2578 186.259 14.9722 186.571 14.606C186.884 14.2397 187.04 13.8174 187.04 13.3389C187.04 12.8604 186.884 12.4404 186.571 12.0791C186.259 11.7129 185.827 11.4297 185.275 11.2295C184.723 11.0293 184.096 10.9316 183.393 10.9365ZM185.268 19.5498V16.4517C184.687 16.603 184.062 16.6787 183.393 16.6787C182.719 16.6787 182.104 16.6055 181.547 16.459V19.5498H185.268Z" fill="#0033FF"/>
</svg>
