<svg width="153" height="30" viewBox="0 0 153 30" fill="none" xmlns="http://www.w3.org/2000/svg">
<rect x="0.95" y="0.95" width="151.1" height="28.757" rx="5.05" stroke="black" stroke-width="0.1"/>
<path d="M7.09139 8.1244C6.79148 8.42431 6.79148 8.89084 7.09139 9.15742L21.4203 23.4864C21.7203 23.7863 22.1868 23.7863 22.4534 23.4864L23.4864 22.4534C23.7863 22.1535 23.7863 21.6869 23.4864 21.4203L9.15742 7.09139C8.85751 6.79148 8.39099 6.79148 8.1244 7.09139L7.09139 8.1244Z" fill="#89664C"/>
<path d="M14.4558 8.45758C14.7557 8.75749 14.7557 9.22402 14.4558 9.52393L9.52393 14.4558C9.22402 14.7557 8.75749 14.7557 8.45758 14.4558L6.22493 12.2231C5.92502 11.9232 5.92502 11.4567 6.22493 11.1568L11.1568 6.22493C11.4567 5.92502 11.9232 5.92502 12.2231 6.22493L14.4558 8.45758ZM19.121 14.9889L17.3215 13.2561L19.121 11.5233L20.9204 13.2561L19.121 14.9889Z" fill="#3E4347"/>
<path d="M24.386 11.2233L21.2203 8.15761C21.1203 8.05765 20.9204 8.05765 20.7871 8.15761L19.6208 9.2906L18.4545 10.4236C18.3545 10.5236 18.3545 10.7235 18.4545 10.8235L21.6202 13.8892C21.7202 13.9892 21.9201 13.9892 22.0534 13.8892L24.4193 11.5899C24.5193 11.4899 24.5193 11.3233 24.386 11.2233ZM19.0876 6.09158C18.9877 5.99161 18.7877 5.99161 18.6544 6.09158L16.3218 8.39088C16.2218 8.49085 16.2218 8.69079 16.3218 8.79076L16.9883 9.4239L19.7874 6.72472C19.7541 6.72472 19.0876 6.09158 19.0876 6.09158Z" fill="#94989B"/>
<path d="M19.6208 9.29062L20.7871 8.15763C20.7871 8.15763 20.1207 8.52418 20.0207 7.55781C19.9874 7.15793 19.8874 6.92467 19.7541 6.75806L16.9883 9.42391C17.1216 9.52388 17.3882 9.62385 17.788 9.65717C18.8211 9.75714 18.4212 10.4236 18.4212 10.4236L19.6208 9.29062ZM24.6526 18.3545C27.885 15.2221 24.2861 11.7565 24.2861 11.7565L22.1867 13.7892C22.1867 13.7892 24.8192 15.7553 24.0861 18.2212C23.9861 18.5211 23.8529 18.7544 23.9195 18.8544C24.0195 18.9543 24.4193 18.5878 24.6526 18.3545Z" fill="#3E4347"/>
<path d="M18.2212 14.1225L17.0882 12.9895C17.0882 12.9895 16.1552 13.556 15.1221 14.5557C13.9892 15.6554 13.356 17.1216 11.8565 18.5545C9.5905 20.7538 8.49083 21.2536 7.59111 21.8868C7.25788 22.12 7.2912 22.1867 7.59111 22.4866L8.55748 23.4197L18.2212 14.1225Z" fill="#F2B200"/>
<path d="M18.2213 14.1226L19.3876 15.2555C19.3876 15.2555 18.7878 16.1553 17.7548 17.155C16.6218 18.2546 15.1223 18.8878 13.6227 20.3207C11.3568 22.52 10.8236 23.5197 10.1238 24.4194C9.85722 24.7526 9.8239 24.7193 9.52399 24.4194L8.55762 23.4864L18.2213 14.1226Z" fill="#FFCE31"/>
<path d="M42.4453 9.56177C43.3438 9.56177 44.1396 9.69604 44.833 9.9646C45.5312 10.2283 46.0732 10.6067 46.459 11.0999C46.8496 11.5881 47.0449 12.1545 47.0449 12.7991C47.0449 13.4192 46.8667 13.9685 46.5103 14.447C46.1538 14.9207 45.6533 15.2942 45.0088 15.5676C44.3691 15.8411 43.6318 15.9949 42.7969 16.0291V19.054H48.3633V19.6692H36.6152V19.054H42.0938V16.0291C41.2588 15.9949 40.519 15.8411 39.8745 15.5676C39.2349 15.2942 38.7368 14.9207 38.3804 14.447C38.0239 13.9685 37.8457 13.4192 37.8457 12.7991C37.8457 12.1545 38.041 11.5881 38.4316 11.0999C38.8223 10.6067 39.3643 10.2283 40.0576 9.9646C40.7559 9.69604 41.5518 9.56177 42.4453 9.56177ZM42.4453 10.1477C41.6982 10.1477 41.0244 10.2625 40.4238 10.4919C39.8232 10.7166 39.3496 11.0315 39.0029 11.4368C38.6611 11.8372 38.4902 12.2913 38.4902 12.7991C38.4902 13.3118 38.6611 13.7708 39.0029 14.176C39.3496 14.5813 39.8232 14.8987 40.4238 15.1282C41.0244 15.3528 41.6982 15.4651 42.4453 15.4651C43.1924 15.4651 43.8662 15.3528 44.4668 15.1282C45.0674 14.8987 45.5386 14.5813 45.8804 14.176C46.2271 13.7708 46.4004 13.3118 46.4004 12.7991C46.4004 12.2913 46.2271 11.8372 45.8804 11.4368C45.5386 11.0315 45.0674 10.7166 44.4668 10.4919C43.8662 10.2625 43.1924 10.1477 42.4453 10.1477ZM61.2979 16.9153H57.9727V21.427H57.2842V16.9153H53.5488V21.427H52.8604V16.9153H49.5645V16.3147H61.2979V16.9153ZM59.833 12.1545H51.7471V14.1321H60.0967V14.7327H51.0439V11.5686H59.1299V9.76685H51.0146V9.16626H59.833V12.1545ZM72.5771 11.5833H66V10.9827H68.9297V8.99048H69.6328V10.9827H72.5771V11.5833ZM69.2812 12.6233C69.8037 12.6282 70.2725 12.7527 70.6875 12.9968C71.1025 13.2361 71.4272 13.5706 71.6616 14.0002C71.896 14.4299 72.0156 14.9182 72.0205 15.4651C72.0156 16.0168 71.8936 16.51 71.6543 16.9446C71.4199 17.3743 71.0952 17.7112 70.6802 17.9553C70.27 18.1946 69.8037 18.3118 69.2812 18.3069C68.7588 18.3118 68.29 18.1946 67.875 17.9553C67.46 17.7112 67.1353 17.3718 66.9009 16.9373C66.6665 16.5027 66.5518 16.012 66.5566 15.4651C66.5518 14.9182 66.6665 14.4299 66.9009 14.0002C67.1353 13.5706 67.46 13.2361 67.875 12.9968C68.29 12.7527 68.7588 12.6282 69.2812 12.6233ZM69.2812 13.2385C68.8857 13.2434 68.5269 13.3459 68.2046 13.5461C67.8872 13.7415 67.6382 14.01 67.4575 14.3518C67.2769 14.6887 67.1865 15.0598 67.1865 15.4651C67.1865 15.8752 67.2769 16.2512 67.4575 16.593C67.6382 16.9299 67.8872 17.196 68.2046 17.3914C68.5269 17.5867 68.8857 17.6819 69.2812 17.677C69.6768 17.6819 70.0332 17.5867 70.3506 17.3914C70.6729 17.196 70.9243 16.9299 71.105 16.593C71.2856 16.2512 71.376 15.8752 71.376 15.4651C71.376 15.0598 71.2856 14.6887 71.105 14.3518C70.9243 14.01 70.6729 13.7415 70.3506 13.5461C70.0332 13.3459 69.6768 13.2434 69.2812 13.2385ZM76.8545 21.427H76.1807V14.7327H74.0273V20.7385H73.3682V8.93188H74.0273V14.1174H76.1807V8.59497H76.8545V21.427ZM89.4961 15.2161H88.8076V13.6487H85.0576V13.0481H88.8076V11.2317H85.2847C84.894 12.2571 84.1982 13.1335 83.1973 13.8611C82.2012 14.5886 80.9756 15.1379 79.5205 15.509L79.2422 14.9084C80.3359 14.635 81.293 14.2615 82.1133 13.7878C82.9336 13.3142 83.5806 12.7527 84.0542 12.1033C84.5278 11.449 84.7939 10.7288 84.8525 9.94263H79.8574V9.32739H85.6289C85.6289 9.76685 85.5752 10.2014 85.4678 10.6311H88.8076V8.59497H89.4961V15.2161ZM89.4961 18.7463H82.0547V20.6946H90.0527V21.2952H81.3809V18.175H88.8076V16.4905H81.3369V15.8752H89.4961V18.7463ZM102.431 21.4417H101.728V8.59497H102.431V21.4417ZM95.707 9.64966C96.3271 9.64966 96.8789 9.83276 97.3623 10.199C97.8457 10.5603 98.2241 11.0754 98.4976 11.7444C98.771 12.4084 98.9102 13.1799 98.915 14.0588C98.9102 14.9329 98.771 15.7019 98.4976 16.366C98.2241 17.0251 97.8457 17.5354 97.3623 17.8967C96.8789 18.2581 96.3271 18.4387 95.707 18.4387C95.082 18.4387 94.5254 18.2581 94.0371 17.8967C93.5537 17.5354 93.1753 17.0251 92.9019 16.366C92.6333 15.7019 92.499 14.9329 92.499 14.0588C92.499 13.1799 92.6333 12.4084 92.9019 11.7444C93.1753 11.0754 93.5537 10.5603 94.0371 10.199C94.5254 9.83276 95.082 9.64966 95.707 9.64966ZM95.707 10.2649C95.2139 10.2649 94.7744 10.4285 94.3887 10.7556C94.0078 11.0779 93.71 11.5271 93.4951 12.1033C93.2803 12.6794 93.1729 13.3313 93.1729 14.0588C93.1729 14.7815 93.2803 15.4309 93.4951 16.0071C93.71 16.5833 94.0078 17.0325 94.3887 17.3547C94.7744 17.677 95.2139 17.8381 95.707 17.8381C96.1953 17.8381 96.6299 17.677 97.0107 17.3547C97.3916 17.0276 97.6895 16.5784 97.9043 16.0071C98.1191 15.4309 98.2266 14.7815 98.2266 14.0588C98.2266 13.3313 98.1191 12.6794 97.9043 12.1033C97.6895 11.5271 97.3916 11.0779 97.0107 10.7556C96.6299 10.4285 96.1953 10.2649 95.707 10.2649ZM112.963 10.0305C112.958 10.5432 113.104 11.0217 113.402 11.4661C113.705 11.9055 114.11 12.2815 114.618 12.594C115.126 12.9065 115.688 13.1409 116.303 13.2971L115.951 13.8831C115.175 13.6633 114.491 13.3337 113.9 12.8943C113.31 12.4548 112.885 11.9299 112.626 11.3196C112.367 11.9934 111.933 12.5818 111.322 13.0847C110.717 13.5828 110.023 13.9612 109.242 14.22L108.861 13.6633C109.477 13.4827 110.043 13.2166 110.561 12.865C111.078 12.5085 111.491 12.0862 111.798 11.5979C112.106 11.1096 112.26 10.5872 112.26 10.0305V9.16626H112.963V10.0305ZM118.837 21.4417H118.148V8.60962H118.837V21.4417ZM109.242 15.5969C110.697 15.5969 112.077 15.5676 113.38 15.509C114.689 15.4504 115.927 15.3381 117.094 15.1721L117.152 15.6848C115.927 15.8948 114.569 16.0437 113.08 16.1316V21.0168H112.392V16.1682C111.347 16.217 110.033 16.2415 108.451 16.2415L108.334 15.5969H109.242ZM131.757 21.4417H131.039V18.0286H127.875V17.4426H131.039V8.60962H131.757V21.4417ZM121.312 15.509C123.031 15.509 124.584 15.4846 125.971 15.4358C127.357 15.3821 128.681 15.2649 129.94 15.0842L129.999 15.6262C128.744 15.8264 127.362 15.968 125.854 16.051V21.0168H125.165V16.0876C124.154 16.1316 122.909 16.1536 121.43 16.1536L121.312 15.509ZM125.546 9.31274C126.176 9.31274 126.732 9.41528 127.216 9.62036C127.704 9.82056 128.083 10.1062 128.351 10.4773C128.62 10.8435 128.754 11.2708 128.754 11.759C128.754 12.2522 128.62 12.6843 128.351 13.0554C128.083 13.4265 127.707 13.7122 127.223 13.9124C126.74 14.1077 126.181 14.2053 125.546 14.2053C124.911 14.2053 124.35 14.1077 123.861 13.9124C123.378 13.7122 123.002 13.429 122.733 13.0627C122.47 12.6917 122.338 12.2571 122.338 11.759C122.338 11.2708 122.47 10.8435 122.733 10.4773C123.002 10.1062 123.378 9.82056 123.861 9.62036C124.35 9.41528 124.911 9.31274 125.546 9.31274ZM125.546 9.88403C125.058 9.88403 124.618 9.96704 124.228 10.1331C123.842 10.2942 123.539 10.5188 123.319 10.8069C123.104 11.0901 122.997 11.4075 122.997 11.759C122.997 12.1204 123.104 12.4451 123.319 12.7332C123.539 13.0212 123.842 13.2458 124.228 13.407C124.613 13.5681 125.053 13.6487 125.546 13.6487C126.039 13.6487 126.476 13.5681 126.857 13.407C127.243 13.2458 127.543 13.0212 127.758 12.7332C127.978 12.4451 128.09 12.1204 128.095 11.759C128.09 11.4075 127.978 11.0901 127.758 10.8069C127.543 10.5188 127.243 10.2942 126.857 10.1331C126.471 9.96704 126.034 9.88403 125.546 9.88403ZM146.083 19.6692H134.335V19.054H137.426V15.3772C136.84 15.1038 136.383 14.74 136.056 14.2859C135.729 13.8318 135.565 13.3167 135.565 12.7405C135.565 12.1008 135.761 11.5393 136.151 11.0559C136.542 10.5676 137.084 10.1917 137.777 9.92798C138.476 9.66431 139.271 9.53247 140.165 9.53247C141.063 9.53247 141.859 9.66431 142.553 9.92798C143.251 10.1917 143.793 10.5676 144.179 11.0559C144.569 11.5393 144.765 12.1008 144.765 12.7405C144.765 13.3118 144.606 13.822 144.289 14.2712C143.976 14.7156 143.534 15.0769 142.963 15.3552V19.054H146.083V19.6692ZM140.165 10.1184C139.418 10.1184 138.742 10.2307 138.136 10.4553C137.536 10.675 137.064 10.9851 136.723 11.3855C136.381 11.7859 136.21 12.2375 136.21 12.7405C136.21 13.2385 136.381 13.6877 136.723 14.0881C137.064 14.4836 137.536 14.7937 138.136 15.0183C138.742 15.238 139.418 15.3479 140.165 15.3479C140.912 15.3479 141.586 15.238 142.187 15.0183C142.792 14.7937 143.266 14.4836 143.607 14.0881C143.949 13.6877 144.12 13.2385 144.12 12.7405C144.12 12.2375 143.949 11.7859 143.607 11.3855C143.266 10.9851 142.792 10.675 142.187 10.4553C141.586 10.2307 140.912 10.1184 140.165 10.1184ZM142.26 19.054V15.6262C141.63 15.8215 140.932 15.9192 140.165 15.9192C139.418 15.9192 138.729 15.824 138.1 15.6335V19.054H142.26Z" fill="black"/>
</svg>
