<svg width="154" height="31" viewBox="0 0 154 31" fill="none" xmlns="http://www.w3.org/2000/svg">
<rect x="0.75" y="0.75" width="152.5" height="29.157" rx="5.25" fill="#F9F9F9"/>
<rect x="0.75" y="0.75" width="152.5" height="29.157" rx="5.25" stroke="#9747FF" stroke-width="0.5"/>
<path d="M7.09139 8.1244C6.79148 8.42431 6.79148 8.89084 7.09139 9.15742L21.4203 23.4864C21.7203 23.7863 22.1868 23.7863 22.4534 23.4864L23.4864 22.4534C23.7863 22.1535 23.7863 21.6869 23.4864 21.4203L9.15742 7.09139C8.85751 6.79148 8.39099 6.79148 8.1244 7.09139L7.09139 8.1244Z" fill="#89664C"/>
<path d="M14.4558 8.45758C14.7557 8.75749 14.7557 9.22402 14.4558 9.52393L9.52393 14.4558C9.22402 14.7557 8.75749 14.7557 8.45758 14.4558L6.22493 12.2231C5.92502 11.9232 5.92502 11.4567 6.22493 11.1568L11.1568 6.22493C11.4567 5.92502 11.9232 5.92502 12.2231 6.22493L14.4558 8.45758ZM19.121 14.9889L17.3215 13.2561L19.121 11.5233L20.9204 13.2561L19.121 14.9889Z" fill="#3E4347"/>
<path d="M24.386 11.2233L21.2203 8.15761C21.1203 8.05765 20.9204 8.05765 20.7871 8.15761L19.6208 9.2906L18.4545 10.4236C18.3545 10.5236 18.3545 10.7235 18.4545 10.8235L21.6202 13.8892C21.7202 13.9892 21.9201 13.9892 22.0534 13.8892L24.4193 11.5899C24.5193 11.4899 24.5193 11.3233 24.386 11.2233ZM19.0876 6.09158C18.9877 5.99161 18.7877 5.99161 18.6544 6.09158L16.3218 8.39088C16.2218 8.49085 16.2218 8.69079 16.3218 8.79076L16.9883 9.4239L19.7874 6.72472C19.7541 6.72472 19.0876 6.09158 19.0876 6.09158Z" fill="#94989B"/>
<path d="M19.6208 9.29062L20.7871 8.15763C20.7871 8.15763 20.1207 8.52418 20.0207 7.55781C19.9874 7.15793 19.8874 6.92467 19.7541 6.75806L16.9883 9.42391C17.1216 9.52388 17.3882 9.62385 17.788 9.65717C18.8211 9.75714 18.4212 10.4236 18.4212 10.4236L19.6208 9.29062ZM24.6526 18.3545C27.885 15.2221 24.2861 11.7565 24.2861 11.7565L22.1867 13.7892C22.1867 13.7892 24.8192 15.7553 24.0861 18.2212C23.9861 18.5211 23.8529 18.7544 23.9195 18.8544C24.0195 18.9543 24.4193 18.5878 24.6526 18.3545Z" fill="#3E4347"/>
<path d="M18.2212 14.1225L17.0882 12.9895C17.0882 12.9895 16.1552 13.556 15.1221 14.5557C13.9892 15.6554 13.356 17.1216 11.8565 18.5545C9.5905 20.7538 8.49083 21.2536 7.59111 21.8868C7.25788 22.12 7.2912 22.1867 7.59111 22.4866L8.55748 23.4197L18.2212 14.1225Z" fill="#F2B200"/>
<path d="M18.2213 14.1226L19.3876 15.2555C19.3876 15.2555 18.7878 16.1553 17.7548 17.155C16.6218 18.2546 15.1223 18.8878 13.6227 20.3207C11.3568 22.52 10.8236 23.5197 10.1238 24.4194C9.85722 24.7526 9.8239 24.7193 9.52399 24.4194L8.55762 23.4864L18.2213 14.1226Z" fill="#FFCE31"/>
<path d="M42.46 9.34204C43.3779 9.34692 44.1982 9.49097 44.9209 9.77417C45.6436 10.0574 46.2075 10.4578 46.6128 10.9753C47.0181 11.488 47.2207 12.0813 47.2207 12.7551C47.2207 13.3899 47.0425 13.9539 46.686 14.447C46.3345 14.9402 45.8413 15.3333 45.2065 15.6262C44.5718 15.9192 43.8418 16.0925 43.0166 16.1462V18.8782H48.4512V19.845H36.5273V18.8782H41.8887V16.1462C41.0684 16.0925 40.3408 15.9192 39.7061 15.6262C39.0713 15.3284 38.5781 14.9353 38.2266 14.447C37.875 13.9539 37.6992 13.3899 37.6992 12.7551C37.6992 12.0813 37.9019 11.488 38.3071 10.9753C38.7124 10.4578 39.2764 10.0574 39.999 9.77417C40.7217 9.49097 41.542 9.34692 42.46 9.34204ZM42.46 10.2942C41.7617 10.2942 41.1343 10.3992 40.5776 10.6091C40.0259 10.8142 39.5938 11.1047 39.2812 11.4807C38.9688 11.8518 38.8125 12.2766 38.8125 12.7551C38.8125 13.2483 38.9688 13.6829 39.2812 14.0588C39.5938 14.4348 40.0259 14.7253 40.5776 14.9304C41.1294 15.1355 41.7568 15.2405 42.46 15.2454C43.1631 15.2405 43.7905 15.1355 44.3423 14.9304C44.894 14.7253 45.3262 14.4348 45.6387 14.0588C45.9512 13.6829 46.1074 13.2483 46.1074 12.7551C46.1074 12.2766 45.9512 11.8518 45.6387 11.4807C45.3262 11.1047 44.8916 10.8142 44.335 10.6091C43.7832 10.3992 43.1582 10.2942 42.46 10.2942ZM61.4004 17.1936H58.2656V21.5149H57.123V17.1936H53.7539V21.5149H52.5967V17.1936H49.4766V16.2708H61.4004V17.1936ZM59.9502 12.345H52.0986V13.9709H60.2285V14.9231H50.9414V11.4514H58.7783V9.95728H50.9121V9.00513H59.9502V12.345ZM72.7236 11.6858H66.1904V10.7483H68.9004V8.88794H70.043V10.7483H72.7236V11.6858ZM69.457 12.5647C69.999 12.5647 70.4824 12.6917 70.9072 12.9456C71.3369 13.1946 71.6714 13.5437 71.9106 13.9929C72.1548 14.4421 72.2793 14.9524 72.2842 15.5237C72.2793 16.0999 72.1548 16.615 71.9106 17.0691C71.6714 17.5183 71.3369 17.8723 70.9072 18.1311C70.4824 18.385 69.999 18.512 69.457 18.512C68.9199 18.512 68.439 18.385 68.0142 18.1311C67.5894 17.8723 67.2573 17.5159 67.0181 17.0618C66.7788 16.6077 66.6592 16.095 66.6592 15.5237C66.6592 14.9573 66.7788 14.4495 67.0181 14.0002C67.2573 13.5461 67.5894 13.1946 68.0142 12.9456C68.439 12.6917 68.9199 12.5647 69.457 12.5647ZM69.457 13.5315C69.1201 13.5364 68.8149 13.6267 68.5415 13.8025C68.2729 13.9734 68.063 14.2102 67.9116 14.5129C67.7603 14.8108 67.6846 15.1477 67.6846 15.5237C67.6846 15.9045 67.7603 16.2463 67.9116 16.5491C68.0679 16.8518 68.2803 17.0886 68.5488 17.2595C68.8174 17.4255 69.1201 17.5061 69.457 17.5012C69.7988 17.5061 70.1064 17.4255 70.3799 17.2595C70.6533 17.0886 70.8682 16.8518 71.0244 16.5491C71.1807 16.2463 71.2588 15.9045 71.2588 15.5237C71.2588 15.1477 71.1807 14.8108 71.0244 14.5129C70.8682 14.2102 70.6533 13.9734 70.3799 13.8025C70.1064 13.6267 69.7988 13.5364 69.457 13.5315ZM77.3086 21.5149H76.21V14.9377H74.4814V20.8704H73.3975V8.8147H74.4814V13.9856H76.21V8.49243H77.3086V21.5149ZM89.9795 15.1575H88.8223V13.7952H85.3506V12.887H88.8223V11.3196H85.5337C85.1333 12.3352 84.4448 13.1921 83.4683 13.8904C82.4966 14.5837 81.2783 15.1038 79.8135 15.4504L79.4033 14.4983C81 14.1272 82.25 13.5657 83.1533 12.8137C84.0566 12.0569 84.562 11.1536 84.6694 10.1038H80.0625V9.15161H85.9365C85.9365 9.57642 85.895 9.99146 85.812 10.3967H88.8223V8.49243H89.9795V15.1575ZM89.9795 18.9221H82.7139V20.4456H90.4189V21.3977H81.5713V18.0432H88.8223V16.6809H81.542V15.7434H89.9795V18.9221ZM102.885 21.5442H101.728V8.49243H102.885V21.5442ZM95.9561 9.50317C96.6006 9.50806 97.1743 9.69849 97.6772 10.0745C98.1802 10.4456 98.5732 10.9729 98.8564 11.6565C99.1396 12.3401 99.2812 13.136 99.2812 14.0442C99.2812 14.9524 99.1396 15.7483 98.8564 16.4319C98.5732 17.1155 98.1802 17.6428 97.6772 18.0139C97.1743 18.385 96.6006 18.5706 95.9561 18.5706C95.3115 18.5706 94.7354 18.385 94.2275 18.0139C93.7246 17.6428 93.3315 17.1155 93.0483 16.4319C92.77 15.7483 92.6309 14.9524 92.6309 14.0442C92.6309 13.136 92.77 12.3401 93.0483 11.6565C93.3315 10.9729 93.7246 10.4456 94.2275 10.0745C94.7305 9.69849 95.3066 9.50806 95.9561 9.50317ZM95.9561 10.5286C95.5215 10.5334 95.1357 10.6824 94.7988 10.9753C94.4668 11.2634 94.208 11.6736 94.0225 12.2058C93.8369 12.7332 93.7441 13.3459 93.7441 14.0442C93.7441 14.7424 93.8369 15.3577 94.0225 15.8899C94.208 16.4172 94.4692 16.825 94.8062 17.113C95.1431 17.4011 95.5264 17.5452 95.9561 17.5452C96.3857 17.5452 96.769 17.4011 97.106 17.113C97.4429 16.825 97.7041 16.4172 97.8896 15.8899C98.0752 15.3577 98.168 14.7424 98.168 14.0442C98.168 13.3459 98.0752 12.7332 97.8896 12.2058C97.7041 11.6736 97.4429 11.2634 97.106 10.9753C96.7739 10.6824 96.3906 10.5334 95.9561 10.5286ZM113.739 9.86938C113.739 10.3674 113.876 10.8337 114.149 11.2683C114.423 11.698 114.806 12.0715 115.299 12.3889C115.797 12.7014 116.371 12.9358 117.021 13.092L116.479 14.0149C115.702 13.8049 115.028 13.49 114.457 13.0701C113.886 12.6501 113.458 12.1497 113.175 11.5686C112.882 12.218 112.44 12.782 111.85 13.2605C111.264 13.739 110.58 14.093 109.799 14.3225L109.213 13.4143C109.867 13.2385 110.448 12.9749 110.956 12.6233C111.464 12.2717 111.859 11.8591 112.143 11.3855C112.426 10.907 112.567 10.4016 112.567 9.86938V9.06372H113.739V9.86938ZM119.613 21.5295H118.485V8.50708H119.613V21.5295ZM109.726 15.4797C111.166 15.4797 112.538 15.4504 113.842 15.3918C115.146 15.3333 116.376 15.2209 117.533 15.0549L117.606 15.8899C116.439 16.095 115.175 16.2415 113.812 16.3293V21.1194H112.67V16.3953C111.684 16.4392 110.463 16.4612 109.008 16.4612L108.847 15.4797H109.726ZM132.621 21.5295H131.449V18.2922H128.446V17.4133H131.449V8.50708H132.621V21.5295ZM121.781 15.3625C123.51 15.3625 125.067 15.3381 126.454 15.2893C127.841 15.2356 129.169 15.1184 130.438 14.9377L130.512 15.802C129.325 16.0022 128.017 16.1438 126.586 16.2268V21.1194H125.429V16.2854C124.477 16.3245 123.314 16.344 121.942 16.344L121.781 15.3625ZM126.073 9.15161C126.713 9.15161 127.279 9.25903 127.772 9.47388C128.271 9.68872 128.659 9.99146 128.937 10.3821C129.215 10.7678 129.354 11.2122 129.354 11.7151C129.354 12.2229 129.215 12.6697 128.937 13.0554C128.664 13.4412 128.278 13.739 127.78 13.949C127.282 14.1589 126.713 14.2639 126.073 14.2639C125.429 14.2639 124.857 14.1589 124.359 13.949C123.861 13.739 123.473 13.4412 123.195 13.0554C122.917 12.6697 122.777 12.2229 122.777 11.7151C122.777 11.2122 122.917 10.7678 123.195 10.3821C123.473 9.99146 123.861 9.68872 124.359 9.47388C124.857 9.25903 125.429 9.15161 126.073 9.15161ZM126.073 10.0452C125.639 10.0452 125.253 10.116 124.916 10.2576C124.579 10.3992 124.318 10.5969 124.132 10.8508C123.947 11.1047 123.856 11.3928 123.861 11.7151C123.856 12.0422 123.947 12.3328 124.132 12.5867C124.318 12.8357 124.579 13.0286 124.916 13.1653C125.253 13.302 125.639 13.3704 126.073 13.3704C126.493 13.3704 126.869 13.302 127.201 13.1653C127.538 13.0286 127.799 12.8357 127.985 12.5867C128.175 12.3328 128.271 12.0422 128.271 11.7151C128.271 11.3928 128.175 11.1047 127.985 10.8508C127.799 10.5969 127.538 10.3992 127.201 10.2576C126.869 10.116 126.493 10.0452 126.073 10.0452ZM146.728 19.845H134.804V18.8782H137.763V15.3625C137.196 15.0696 136.757 14.6936 136.444 14.2346C136.132 13.7708 135.976 13.2483 135.976 12.6672C135.976 12.0032 136.178 11.4197 136.583 10.9167C136.989 10.4089 137.55 10.0159 138.268 9.73755C138.991 9.45923 139.813 9.31763 140.736 9.31274C141.659 9.31763 142.479 9.45923 143.197 9.73755C143.92 10.0159 144.484 10.4089 144.889 10.9167C145.294 11.4197 145.497 12.0032 145.497 12.6672C145.497 13.2385 145.346 13.7537 145.043 14.2126C144.74 14.6667 144.315 15.0403 143.769 15.3333V18.8782H146.728V19.845ZM140.736 10.2649C140.028 10.26 139.398 10.3577 138.847 10.5579C138.295 10.7581 137.863 11.0413 137.55 11.4075C137.243 11.7688 137.089 12.1887 137.089 12.6672C137.089 13.1458 137.243 13.5706 137.55 13.9417C137.863 14.3079 138.295 14.5935 138.847 14.7986C139.398 14.9988 140.028 15.0989 140.736 15.0989C141.439 15.0989 142.067 14.9963 142.619 14.7913C143.17 14.5862 143.603 14.3005 143.915 13.9343C144.228 13.5681 144.384 13.1458 144.384 12.6672C144.384 12.1887 144.228 11.7688 143.915 11.4075C143.603 11.0413 143.17 10.7581 142.619 10.5579C142.067 10.3577 141.439 10.26 140.736 10.2649ZM142.611 18.8782V15.78C142.03 15.9314 141.405 16.0071 140.736 16.0071C140.062 16.0071 139.447 15.9338 138.891 15.7874V18.8782H142.611Z" fill="#0033FF"/>
</svg>
