<svg width="144" height="34" viewBox="0 0 144 34" fill="none" xmlns="http://www.w3.org/2000/svg">
<rect x="0.446777" y="0.398438" width="143.197" height="32.5" rx="5.25" fill="#F9F9F9"/>
<rect x="0.446777" y="0.398438" width="143.197" height="32.5" rx="5.25" stroke="#9747FF" stroke-width="0.5"/>
<path d="M13.1186 14.8338C13.1186 14.8338 14.7342 15.1643 13.4123 12.4104C12.4577 10.4276 12.5678 8.11437 13.4123 6.90267C14.8076 4.9566 17.488 5.58081 17.1943 6.71908C16.2396 10.5745 18.406 11.7495 19.5075 14.1729C20.6458 16.633 20.5357 20.1579 20.0216 23.279C19.6911 25.225 18.8466 27.6484 15.799 27.6484H11.5764L13.1186 14.8338Z" fill="#FFDD67"/>
<path d="M15.3217 27.0978C18.3693 27.0978 19.0302 24.6744 19.3607 22.7283C19.8747 19.6073 19.9482 17.1104 18.9568 14.5769C17.8552 11.823 16.717 11.7496 16.717 6.31527C16.717 6.05825 16.5701 5.87466 16.4232 5.72778C16.9373 5.91137 17.231 6.20512 17.231 6.64574C17.231 10.7215 18.3693 11.7128 19.4708 14.173C20.6458 16.6331 20.5357 20.158 20.0216 23.2791C19.6911 25.2251 18.8466 27.6485 15.799 27.6485H11.5764V27.0978H15.3217Z" fill="#EBA352"/>
<path d="M7.90452 18.0282H13.1185C14.9544 18.0282 14.9544 14.8337 13.1185 14.8337H7.90452C6.06861 14.8337 6.06861 18.0282 7.90452 18.0282Z" fill="#FFDD67"/>
<path d="M7.50067 17.5141H12.7147C13.9631 17.5141 14.3303 16.0454 13.9264 15.1274C14.9177 15.8985 14.624 18.0649 13.1553 18.0649H7.90457C7.31708 18.0649 6.91318 17.7344 6.69287 17.2571C6.91318 17.404 7.17021 17.5141 7.50067 17.5141Z" fill="#EBA352"/>
<path d="M7.35371 21.2594H13.5958C15.7989 21.2594 15.7989 18.0649 13.5958 18.0649H7.317C5.15062 18.0649 5.15062 21.2594 7.35371 21.2594Z" fill="#FFDD67"/>
<path d="M6.83968 20.7087H13.1185C14.5872 20.7087 15.0646 19.24 14.5505 18.322C15.7255 19.0931 15.395 21.2595 13.5958 21.2595H7.31702C6.61937 21.2595 6.14204 20.929 5.88501 20.4517C6.14204 20.5985 6.4725 20.7087 6.83968 20.7087Z" fill="#EBA352"/>
<path d="M7.94109 24.454H13.2285C15.0644 24.454 15.0644 21.2595 13.2285 21.2595H7.94109C6.06846 21.2595 6.06846 24.454 7.94109 24.454Z" fill="#FFDD67"/>
<path d="M7.50057 23.9031H12.8247C14.0731 23.9031 14.477 22.4344 14.0364 21.4797C15.0278 22.2508 14.7708 24.4172 13.2286 24.4172H7.94119C7.3537 24.4172 6.9498 24.0867 6.72949 23.6094C6.91308 23.8297 7.20683 23.9031 7.50057 23.9031Z" fill="#EBA352"/>
<path d="M8.49197 27.6483H11.9068C13.8895 27.6483 13.8895 24.4539 11.9068 24.4539H8.49197C6.50919 24.4539 6.50919 27.6483 8.49197 27.6483Z" fill="#FFDD67"/>
<path d="M8.0513 27.1343H11.4661C12.7879 27.1343 13.2286 25.6656 12.7512 24.7109C13.8161 25.482 13.5223 27.6484 11.9067 27.6484H8.49192C7.831 27.6484 7.4271 27.3179 7.20679 26.8406C7.4271 27.0242 7.72084 27.1343 8.0513 27.1343Z" fill="#EBA352"/>
<path d="M41.6875 22.835H40.5303V9.8125H41.6875V22.835ZM38.6846 12.1855H37.2051V18.4551C37.9961 18.4014 38.7139 18.333 39.3584 18.25L39.4316 19.1143C38.1719 19.3096 36.8657 19.439 35.5132 19.5024C34.1606 19.5659 32.6689 19.6025 31.0381 19.6123L30.9062 18.6309L32.708 18.6235V12.1855H31.2432V11.2334H38.6846V12.1855ZM33.8359 18.6016C34.4951 18.5869 35.2422 18.5601 36.0771 18.521V12.1855H33.8359V18.6016ZM54.4023 17.0342H45.4082V11.0283H54.2705V11.9805H46.5508V16.082H54.4023V17.0342ZM55.8086 21.0625H43.8848V20.0957H55.8086V21.0625ZM58.5332 12.7129H61.4336V10.6475H62.5176V16.7119H57.4492V10.6475H58.5332V12.7129ZM61.4336 15.7598V13.6357H58.5332V15.7598H61.4336ZM67.9082 17.6348H66.8096V14.1631H65.0811V17.5615H63.9971V10.0762H65.0811V13.2109H66.8096V9.82715H67.9082V17.6348ZM67.9082 22.835H66.7803V19.3779H59.1338V18.4258H67.9082V22.835ZM80.5498 22.8643H79.3926V9.8125H80.5498V22.8643ZM73.6211 10.8232C74.2656 10.8281 74.8394 11.0186 75.3423 11.3945C75.8452 11.7656 76.2383 12.293 76.5215 12.9766C76.8047 13.6602 76.9463 14.4561 76.9463 15.3643C76.9463 16.2725 76.8047 17.0684 76.5215 17.752C76.2383 18.4355 75.8452 18.9629 75.3423 19.334C74.8394 19.7051 74.2656 19.8906 73.6211 19.8906C72.9766 19.8906 72.4004 19.7051 71.8926 19.334C71.3896 18.9629 70.9966 18.4355 70.7134 17.752C70.4351 17.0684 70.2959 16.2725 70.2959 15.3643C70.2959 14.4561 70.4351 13.6602 70.7134 12.9766C70.9966 12.293 71.3896 11.7656 71.8926 11.3945C72.3955 11.0186 72.9717 10.8281 73.6211 10.8232ZM73.6211 11.8486C73.1865 11.8535 72.8008 12.0024 72.4639 12.2954C72.1318 12.5835 71.873 12.9937 71.6875 13.5259C71.502 14.0532 71.4092 14.666 71.4092 15.3643C71.4092 16.0625 71.502 16.6777 71.6875 17.21C71.873 17.7373 72.1343 18.145 72.4712 18.4331C72.8081 18.7212 73.1914 18.8652 73.6211 18.8652C74.0508 18.8652 74.4341 18.7212 74.771 18.4331C75.1079 18.145 75.3691 17.7373 75.5547 17.21C75.7402 16.6777 75.833 16.0625 75.833 15.3643C75.833 14.666 75.7402 14.0532 75.5547 13.5259C75.3691 12.9937 75.1079 12.5835 74.771 12.2954C74.439 12.0024 74.0557 11.8535 73.6211 11.8486ZM97.3369 17.5322H96.1797V15.4814H93.1328V16.5947H87.1562V10.8086H93.1328V11.9365H96.1797V9.8125H97.3369V17.5322ZM88.2988 15.6572H92.0049V11.7461H88.2988V15.6572ZM93.0156 17.9131C93.9189 17.9131 94.6978 18.0107 95.3521 18.2061C96.0063 18.3965 96.5068 18.6772 96.8535 19.0483C97.2051 19.4146 97.3809 19.8564 97.3809 20.374C97.3809 20.8867 97.2051 21.3237 96.8535 21.6851C96.5068 22.0513 96.0063 22.3296 95.3521 22.52C94.6978 22.7104 93.9189 22.8057 93.0156 22.8057C92.1123 22.8057 91.3335 22.7104 90.6792 22.52C90.0249 22.3296 89.522 22.0513 89.1704 21.6851C88.8237 21.3237 88.6504 20.8867 88.6504 20.374C88.6504 19.8564 88.8237 19.4146 89.1704 19.0483C89.522 18.6772 90.0249 18.3965 90.6792 18.2061C91.3335 18.0107 92.1123 17.9131 93.0156 17.9131ZM93.0156 18.8066C92.3516 18.8115 91.7754 18.8774 91.2871 19.0044C90.8037 19.1265 90.4326 19.3047 90.1738 19.5391C89.915 19.7734 89.7881 20.0518 89.793 20.374C89.7881 20.6816 89.915 20.9502 90.1738 21.1797C90.4375 21.4092 90.811 21.585 91.2944 21.707C91.7827 21.834 92.3564 21.8975 93.0156 21.8975C93.6748 21.8975 94.2461 21.834 94.7295 21.707C95.2129 21.585 95.584 21.4116 95.8428 21.187C96.1064 20.9575 96.2383 20.6865 96.2383 20.374C96.2383 20.0518 96.1089 19.7734 95.8501 19.5391C95.5913 19.3047 95.2202 19.1265 94.7368 19.0044C94.2534 18.8774 93.6797 18.8115 93.0156 18.8066ZM96.1797 14.5146V12.8887H93.1328V14.5146H96.1797ZM109.671 13.7676H111.619V14.7344H109.671V18.5576H108.514V9.82715H109.671V13.7676ZM99.4463 17.2246C100.95 17.2246 102.127 17.21 102.977 17.1807V16.2358C102.474 16.1919 102.034 16.0869 101.658 15.9209C101.282 15.75 100.992 15.5278 100.787 15.2544C100.586 14.981 100.486 14.666 100.486 14.3096C100.486 13.9189 100.611 13.5796 100.86 13.2915C101.114 13.0034 101.47 12.7812 101.929 12.625C102.393 12.4688 102.928 12.3906 103.533 12.3906C104.144 12.3906 104.678 12.4688 105.137 12.625C105.601 12.7812 105.958 13.0034 106.207 13.2915C106.46 13.5796 106.59 13.9189 106.595 14.3096C106.59 14.8418 106.365 15.2788 105.921 15.6206C105.481 15.9575 104.881 16.1602 104.119 16.2285V17.1367C105.511 17.0684 106.707 16.9609 107.708 16.8145L107.811 17.6494C106.565 17.8691 105.284 18.0107 103.965 18.0742C102.652 18.1328 101.189 18.1621 99.5781 18.1621L99.4463 17.2246ZM109.671 22.835H108.514V20.125H101.043V19.2021H109.671V22.835ZM107.312 11.8926H99.7686V11.0137H102.977V9.70996H104.119V11.0137H107.312V11.8926ZM103.533 13.2109C102.933 13.2061 102.457 13.3013 102.105 13.4966C101.758 13.6919 101.585 13.9629 101.585 14.3096C101.585 14.5342 101.663 14.7319 101.819 14.9028C101.98 15.0737 102.208 15.208 102.5 15.3057C102.793 15.3984 103.138 15.4424 103.533 15.4375C103.929 15.4424 104.273 15.3984 104.566 15.3057C104.864 15.208 105.093 15.0737 105.254 14.9028C105.416 14.7319 105.496 14.5342 105.496 14.3096C105.496 13.9678 105.318 13.6968 104.961 13.4966C104.61 13.2964 104.134 13.2012 103.533 13.2109ZM118.973 13.0059H112.439V12.0684H115.149V10.208H116.292V12.0684H118.973V13.0059ZM115.706 13.8848C116.248 13.8848 116.731 14.0117 117.156 14.2656C117.586 14.5146 117.92 14.8638 118.16 15.313C118.404 15.7622 118.528 16.2725 118.533 16.8438C118.528 17.4199 118.404 17.9351 118.16 18.3892C117.92 18.8384 117.586 19.1924 117.156 19.4512C116.731 19.7051 116.248 19.832 115.706 19.832C115.169 19.832 114.688 19.7051 114.263 19.4512C113.838 19.1924 113.506 18.8359 113.267 18.3818C113.028 17.9277 112.908 17.415 112.908 16.8438C112.908 16.2773 113.028 15.7695 113.267 15.3203C113.506 14.8662 113.838 14.5146 114.263 14.2656C114.688 14.0117 115.169 13.8848 115.706 13.8848ZM115.706 14.8516C115.369 14.8564 115.064 14.9468 114.791 15.1226C114.522 15.2935 114.312 15.5303 114.161 15.833C114.009 16.1309 113.934 16.4678 113.934 16.8438C113.934 17.2246 114.009 17.5664 114.161 17.8691C114.317 18.1719 114.529 18.4087 114.798 18.5796C115.066 18.7456 115.369 18.8262 115.706 18.8213C116.048 18.8262 116.355 18.7456 116.629 18.5796C116.902 18.4087 117.117 18.1719 117.273 17.8691C117.43 17.5664 117.508 17.2246 117.508 16.8438C117.508 16.4678 117.43 16.1309 117.273 15.833C117.117 15.5303 116.902 15.2935 116.629 15.1226C116.355 14.9468 116.048 14.8564 115.706 14.8516ZM123.558 22.835H122.459V16.2578H120.73V22.1904H119.646V10.1348H120.73V15.3057H122.459V9.8125H123.558V22.835ZM137.356 21.165H125.433V20.1982H128.392V16.6826C127.825 16.3896 127.386 16.0137 127.073 15.5547C126.761 15.0908 126.604 14.5684 126.604 13.9873C126.604 13.3232 126.807 12.7397 127.212 12.2368C127.618 11.729 128.179 11.3359 128.897 11.0576C129.62 10.7793 130.442 10.6377 131.365 10.6328C132.288 10.6377 133.108 10.7793 133.826 11.0576C134.549 11.3359 135.113 11.729 135.518 12.2368C135.923 12.7397 136.126 13.3232 136.126 13.9873C136.126 14.5586 135.975 15.0737 135.672 15.5327C135.369 15.9868 134.944 16.3604 134.397 16.6533V20.1982H137.356V21.165ZM131.365 11.585C130.657 11.5801 130.027 11.6777 129.476 11.8779C128.924 12.0781 128.492 12.3613 128.179 12.7275C127.872 13.0889 127.718 13.5088 127.718 13.9873C127.718 14.4658 127.872 14.8906 128.179 15.2617C128.492 15.6279 128.924 15.9136 129.476 16.1187C130.027 16.3188 130.657 16.4189 131.365 16.4189C132.068 16.4189 132.696 16.3164 133.248 16.1113C133.799 15.9062 134.231 15.6206 134.544 15.2544C134.856 14.8882 135.013 14.4658 135.013 13.9873C135.013 13.5088 134.856 13.0889 134.544 12.7275C134.231 12.3613 133.799 12.0781 133.248 11.8779C132.696 11.6777 132.068 11.5801 131.365 11.585ZM133.24 20.1982V17.1001C132.659 17.2515 132.034 17.3271 131.365 17.3271C130.691 17.3271 130.076 17.2539 129.52 17.1074V20.1982H133.24Z" fill="#0033FF"/>
</svg>
