<svg width="282" height="55" viewBox="0 0 282 55" fill="none" xmlns="http://www.w3.org/2000/svg">
<g clip-path="url(#clip0_702_1216)">
<rect width="282" height="54" transform="translate(0 0.5)" fill="white"/>
<g filter="url(#filter0_d_702_1216)">
<path d="M37 36.25L26.5 41.5L29.125 31L21.25 22.25L32.625 21.375L37 11.75L41.375 21.375L52.75 22.25L44.875 31L47.5 41.5L37 36.25Z" fill="#AAAAAA"/>
</g>
<g filter="url(#filter1_d_702_1216)">
<path d="M89 36.25L78.5 41.5L81.125 31L73.25 22.25L84.625 21.375L89 11.75L93.375 21.375L104.75 22.25L96.875 31L99.5 41.5L89 36.25Z" fill="#AAAAAA"/>
</g>
<g filter="url(#filter2_d_702_1216)">
<path d="M141 36.25L130.5 41.5L133.125 31L125.25 22.25L136.625 21.375L141 11.75L145.375 21.375L156.75 22.25L148.875 31L151.5 41.5L141 36.25Z" fill="#AAAAAA"/>
</g>
<g filter="url(#filter3_d_702_1216)">
<path d="M193 36.25L182.5 41.5L185.125 31L177.25 22.25L188.625 21.375L193 11.75L197.375 21.375L208.75 22.25L200.875 31L203.5 41.5L193 36.25Z" fill="#AAAAAA"/>
</g>
<g filter="url(#filter4_d_702_1216)">
<path d="M245 36.25L234.5 41.5L237.125 31L229.25 22.25L240.625 21.375L245 11.75L249.375 21.375L260.75 22.25L252.875 31L255.5 41.5L245 36.25Z" fill="#AAAAAA"/>
</g>
</g>
<defs>
<filter id="filter0_d_702_1216" x="19.25" y="9.75" width="35.5" height="33.75" filterUnits="userSpaceOnUse" color-interpolation-filters="sRGB">
<feFlood flood-opacity="0" result="BackgroundImageFix"/>
<feColorMatrix in="SourceAlpha" type="matrix" values="0 0 0 0 0 0 0 0 0 0 0 0 0 0 0 0 0 0 127 0" result="hardAlpha"/>
<feOffset/>
<feGaussianBlur stdDeviation="1"/>
<feComposite in2="hardAlpha" operator="out"/>
<feColorMatrix type="matrix" values="0 0 0 0 0 0 0 0 0 0 0 0 0 0 0 0 0 0 0.25 0"/>
<feBlend mode="normal" in2="BackgroundImageFix" result="effect1_dropShadow_702_1216"/>
<feBlend mode="normal" in="SourceGraphic" in2="effect1_dropShadow_702_1216" result="shape"/>
</filter>
<filter id="filter1_d_702_1216" x="71.25" y="9.75" width="35.5" height="33.75" filterUnits="userSpaceOnUse" color-interpolation-filters="sRGB">
<feFlood flood-opacity="0" result="BackgroundImageFix"/>
<feColorMatrix in="SourceAlpha" type="matrix" values="0 0 0 0 0 0 0 0 0 0 0 0 0 0 0 0 0 0 127 0" result="hardAlpha"/>
<feOffset/>
<feGaussianBlur stdDeviation="1"/>
<feComposite in2="hardAlpha" operator="out"/>
<feColorMatrix type="matrix" values="0 0 0 0 0 0 0 0 0 0 0 0 0 0 0 0 0 0 0.25 0"/>
<feBlend mode="normal" in2="BackgroundImageFix" result="effect1_dropShadow_702_1216"/>
<feBlend mode="normal" in="SourceGraphic" in2="effect1_dropShadow_702_1216" result="shape"/>
</filter>
<filter id="filter2_d_702_1216" x="123.25" y="9.75" width="35.5" height="33.75" filterUnits="userSpaceOnUse" color-interpolation-filters="sRGB">
<feFlood flood-opacity="0" result="BackgroundImageFix"/>
<feColorMatrix in="SourceAlpha" type="matrix" values="0 0 0 0 0 0 0 0 0 0 0 0 0 0 0 0 0 0 127 0" result="hardAlpha"/>
<feOffset/>
<feGaussianBlur stdDeviation="1"/>
<feComposite in2="hardAlpha" operator="out"/>
<feColorMatrix type="matrix" values="0 0 0 0 0 0 0 0 0 0 0 0 0 0 0 0 0 0 0.25 0"/>
<feBlend mode="normal" in2="BackgroundImageFix" result="effect1_dropShadow_702_1216"/>
<feBlend mode="normal" in="SourceGraphic" in2="effect1_dropShadow_702_1216" result="shape"/>
</filter>
<filter id="filter3_d_702_1216" x="175.25" y="9.75" width="35.5" height="33.75" filterUnits="userSpaceOnUse" color-interpolation-filters="sRGB">
<feFlood flood-opacity="0" result="BackgroundImageFix"/>
<feColorMatrix in="SourceAlpha" type="matrix" values="0 0 0 0 0 0 0 0 0 0 0 0 0 0 0 0 0 0 127 0" result="hardAlpha"/>
<feOffset/>
<feGaussianBlur stdDeviation="1"/>
<feComposite in2="hardAlpha" operator="out"/>
<feColorMatrix type="matrix" values="0 0 0 0 0 0 0 0 0 0 0 0 0 0 0 0 0 0 0.25 0"/>
<feBlend mode="normal" in2="BackgroundImageFix" result="effect1_dropShadow_702_1216"/>
<feBlend mode="normal" in="SourceGraphic" in2="effect1_dropShadow_702_1216" result="shape"/>
</filter>
<filter id="filter4_d_702_1216" x="227.25" y="9.75" width="35.5" height="33.75" filterUnits="userSpaceOnUse" color-interpolation-filters="sRGB">
<feFlood flood-opacity="0" result="BackgroundImageFix"/>
<feColorMatrix in="SourceAlpha" type="matrix" values="0 0 0 0 0 0 0 0 0 0 0 0 0 0 0 0 0 0 127 0" result="hardAlpha"/>
<feOffset/>
<feGaussianBlur stdDeviation="1"/>
<feComposite in2="hardAlpha" operator="out"/>
<feColorMatrix type="matrix" values="0 0 0 0 0 0 0 0 0 0 0 0 0 0 0 0 0 0 0.25 0"/>
<feBlend mode="normal" in2="BackgroundImageFix" result="effect1_dropShadow_702_1216"/>
<feBlend mode="normal" in="SourceGraphic" in2="effect1_dropShadow_702_1216" result="shape"/>
</filter>
<clipPath id="clip0_702_1216">
<rect width="282" height="54" fill="white" transform="translate(0 0.5)"/>
</clipPath>
</defs>
</svg>
