<svg width="137" height="32" viewBox="0 0 137 32" fill="none" xmlns="http://www.w3.org/2000/svg">
<rect x="0.75" y="0.398438" width="135.5" height="30.5" rx="5.25" fill="#F9F9F9"/>
<rect x="0.75" y="0.398438" width="135.5" height="30.5" rx="5.25" stroke="#9747FF" stroke-width="0.5"/>
<path d="M25.5979 25.6484H6.40213C6.18096 25.6484 6 25.4675 6 25.2463V6.05056C6 5.8294 6.18096 5.64844 6.40213 5.64844H25.5979C25.819 5.64844 26 5.8294 26 6.05056V25.2463C26 25.4675 25.819 25.6484 25.5979 25.6484Z" fill="#9AFFA9" stroke="black" stroke-width="1.59193" stroke-miterlimit="10" stroke-linejoin="round"/>
<path d="M15.0046 14.4714L13.076 9.97144L11.1475 14.4714" fill="#9AFFA9"/>
<path d="M15.0046 14.4714L13.076 9.97144L11.1475 14.4714" stroke="black" stroke-width="1.59193" stroke-miterlimit="10" stroke-linecap="round" stroke-linejoin="round"/>
<path d="M11.7903 13.3938H14.3617H11.7903Z" fill="#9AFFA9"/>
<path d="M11.7903 13.3938H14.3617" stroke="black" stroke-width="1.59193" stroke-miterlimit="10" stroke-linecap="round" stroke-linejoin="round"/>
<path d="M14.4127 20.817C14.129 21.0686 13.7557 21.2214 13.3466 21.2214C12.459 21.2214 11.7395 20.5019 11.7395 19.6143V18.3286C11.7395 17.441 12.459 16.7214 13.3466 16.7214C13.7557 16.7214 14.129 16.8742 14.4127 17.1259" fill="#9AFFA9"/>
<path d="M14.4127 20.817C14.129 21.0686 13.7557 21.2214 13.3466 21.2214C12.459 21.2214 11.7395 20.5019 11.7395 19.6143V18.3286C11.7395 17.441 12.459 16.7214 13.3466 16.7214C13.7557 16.7214 14.129 16.8742 14.4127 17.1259" stroke="black" stroke-width="1.59193" stroke-miterlimit="10" stroke-linecap="round" stroke-linejoin="round"/>
<path d="M19.6737 12.2213H17.9578V9.97974H19.6737C20.2927 9.97974 20.7945 10.4816 20.7945 11.1006C20.7945 11.7196 20.2927 12.2213 19.6737 12.2213Z" fill="#9AFFA9" stroke="black" stroke-width="1.59193" stroke-miterlimit="10" stroke-linecap="round" stroke-linejoin="round"/>
<path d="M19.6737 14.4631H17.9578V12.2214H19.6737C20.2927 12.2214 20.7945 12.7233 20.7945 13.3423C20.7945 13.9612 20.2927 14.4631 19.6737 14.4631Z" fill="#9AFFA9" stroke="black" stroke-width="1.59193" stroke-miterlimit="10" stroke-linecap="round" stroke-linejoin="round"/>
<path d="M19.9583 21.213H17.9275V16.7297H19.9583C20.4368 16.7297 20.8248 17.1177 20.8248 17.5962V20.3464C20.8248 20.825 20.4368 21.213 19.9583 21.213Z" fill="#9AFFA9" stroke="black" stroke-width="1.59193" stroke-miterlimit="10" stroke-linecap="round" stroke-linejoin="round"/>
<path d="M46.6055 14.1152H48.7148V15.082H46.6055V21.835H45.4629V8.8125H46.6055V14.1152ZM43.2363 10.2188C43.2363 12.1572 42.7505 13.915 41.7788 15.4922C40.8071 17.0645 39.3008 18.3535 37.2598 19.3594L36.6152 18.4512C38.29 17.6162 39.5864 16.5859 40.5044 15.3604C41.4224 14.1299 41.9473 12.7383 42.0791 11.1855H37.2158V10.2188H43.2363ZM54.1201 12.3135C54.1152 13.085 54.2715 13.8516 54.5889 14.6133C54.9062 15.3701 55.3359 16.0439 55.8779 16.6348C56.4199 17.2256 57.0107 17.665 57.6504 17.9531L56.9473 18.8613C56.2051 18.4951 55.5312 17.9507 54.9258 17.228C54.3252 16.5005 53.8711 15.6753 53.5635 14.7524C53.2607 15.7339 52.8066 16.6128 52.2012 17.3892C51.5957 18.1606 50.9121 18.7393 50.1504 19.125L49.418 18.1582C50.0576 17.8604 50.6484 17.4087 51.1904 16.8032C51.7324 16.1929 52.1646 15.4946 52.4868 14.7085C52.8091 13.9175 52.9727 13.1191 52.9775 12.3135V9.94043H54.1201V12.3135ZM60.2285 21.8643H59.0713V8.8125H60.2285V21.8643ZM66.9375 10.8633C66.9326 11.4736 67.0645 12.0571 67.333 12.6138C67.6016 13.1655 67.98 13.6489 68.4683 14.064C68.9614 14.479 69.5254 14.7939 70.1602 15.0088L69.5156 15.9023C68.793 15.6289 68.1606 15.2358 67.6187 14.7231C67.0767 14.2104 66.6665 13.6123 66.3882 12.9287C66.1099 13.71 65.6826 14.3936 65.1064 14.9795C64.5303 15.5605 63.8516 16 63.0703 16.2979L62.4404 15.3604C63.1045 15.126 63.688 14.7891 64.1909 14.3496C64.6987 13.9053 65.0918 13.3877 65.3701 12.7969C65.6484 12.2012 65.79 11.5713 65.7949 10.9072V9.55957H66.9375V10.8633ZM73.251 16.5322H72.0938V12.5625H69.1934V11.6104H72.0938V8.8125H73.251V16.5322ZM68.9297 16.9131C69.833 16.9131 70.6118 17.0107 71.2661 17.2061C71.9204 17.3965 72.4209 17.6772 72.7676 18.0483C73.1191 18.4146 73.2949 18.8564 73.2949 19.374C73.2949 19.8867 73.1191 20.3237 72.7676 20.6851C72.4209 21.0513 71.9204 21.3296 71.2661 21.52C70.6118 21.7104 69.833 21.8057 68.9297 21.8057C68.0264 21.8057 67.2476 21.7104 66.5933 21.52C65.939 21.3296 65.436 21.0513 65.0845 20.6851C64.7378 20.3237 64.5645 19.8867 64.5645 19.374C64.5645 18.8564 64.7378 18.4146 65.0845 18.0483C65.436 17.6772 65.939 17.3965 66.5933 17.2061C67.2476 17.0107 68.0264 16.9131 68.9297 16.9131ZM68.9297 17.8213C68.2705 17.8213 67.6968 17.8848 67.2085 18.0117C66.7202 18.1338 66.3467 18.312 66.0879 18.5464C65.8291 18.7808 65.7021 19.0566 65.707 19.374C65.7021 19.6816 65.8291 19.9502 66.0879 20.1797C66.3467 20.4043 66.7202 20.5776 67.2085 20.6997C67.6968 20.8218 68.2705 20.8828 68.9297 20.8828C69.5889 20.8828 70.1602 20.8218 70.6436 20.6997C71.1318 20.5776 71.5054 20.4043 71.7642 20.1797C72.0229 19.9502 72.1523 19.6816 72.1523 19.374C72.1523 19.0566 72.0229 18.7808 71.7642 18.5464C71.5054 18.312 71.1318 18.1338 70.6436 18.0117C70.1602 17.8848 69.5889 17.8213 68.9297 17.8213ZM86.1562 21.8643H84.999V8.8125H86.1562V21.8643ZM79.2275 9.82324C79.8721 9.82812 80.4458 10.0186 80.9487 10.3945C81.4517 10.7656 81.8447 11.293 82.1279 11.9766C82.4111 12.6602 82.5527 13.4561 82.5527 14.3643C82.5527 15.2725 82.4111 16.0684 82.1279 16.752C81.8447 17.4355 81.4517 17.9629 80.9487 18.334C80.4458 18.7051 79.8721 18.8906 79.2275 18.8906C78.583 18.8906 78.0068 18.7051 77.499 18.334C76.9961 17.9629 76.603 17.4355 76.3198 16.752C76.0415 16.0684 75.9023 15.2725 75.9023 14.3643C75.9023 13.4561 76.0415 12.6602 76.3198 11.9766C76.603 11.293 76.9961 10.7656 77.499 10.3945C78.002 10.0186 78.5781 9.82812 79.2275 9.82324ZM79.2275 10.8486C78.793 10.8535 78.4072 11.0024 78.0703 11.2954C77.7383 11.5835 77.4795 11.9937 77.2939 12.5259C77.1084 13.0532 77.0156 13.666 77.0156 14.3643C77.0156 15.0625 77.1084 15.6777 77.2939 16.21C77.4795 16.7373 77.7407 17.145 78.0776 17.4331C78.4146 17.7212 78.7979 17.8652 79.2275 17.8652C79.6572 17.8652 80.0405 17.7212 80.3774 17.4331C80.7144 17.145 80.9756 16.7373 81.1611 16.21C81.3467 15.6777 81.4395 15.0625 81.4395 14.3643C81.4395 13.666 81.3467 13.0532 81.1611 12.5259C80.9756 11.9937 80.7144 11.5835 80.3774 11.2954C80.0454 11.0024 79.6621 10.8535 79.2275 10.8486ZM98.6367 14.2324H104.057V15.1846H92.1328V14.2324H97.5088V12.6943H98.6367V14.2324ZM102.958 10.1309H98.8345C98.8687 10.5605 99.1006 10.9536 99.5303 11.3101C99.9648 11.6665 100.524 11.9595 101.208 12.189C101.891 12.4136 102.616 12.5576 103.383 12.6211L103.002 13.4854C102.265 13.417 101.564 13.2778 100.9 13.0679C100.241 12.8579 99.6646 12.5845 99.1714 12.2476C98.6782 11.9058 98.3169 11.5127 98.0874 11.0684C97.8579 11.5127 97.4966 11.9058 97.0034 12.2476C96.5103 12.5845 95.9316 12.8579 95.2676 13.0679C94.6035 13.2778 93.9004 13.417 93.1582 13.4854L92.7773 12.6211C93.5391 12.5576 94.2617 12.4136 94.9453 12.189C95.6289 11.9595 96.1855 11.6665 96.6152 11.3101C97.0498 10.9536 97.2866 10.5605 97.3257 10.1309H93.2314V9.22266H102.958V10.1309ZM102.929 17.8213H93.2607V16.9131H97.5088V15.6826H98.6514V16.9131H102.929V17.8213ZM98.0801 18.4658C99.3447 18.4658 100.316 18.6123 100.995 18.9053C101.679 19.1934 102.021 19.6182 102.021 20.1797C102.021 20.7461 101.679 21.1758 100.995 21.4688C100.316 21.7617 99.3447 21.9082 98.0801 21.9082C96.8057 21.9082 95.8315 21.7617 95.1577 21.4688C94.4888 21.1758 94.1543 20.7461 94.1543 20.1797C94.1543 19.6182 94.4888 19.1934 95.1577 18.9053C95.8315 18.6123 96.8057 18.4658 98.0801 18.4658ZM98.0801 19.2715C97.1865 19.2812 96.5005 19.3618 96.022 19.5132C95.5483 19.6597 95.3115 19.8818 95.3115 20.1797C95.3115 20.4775 95.5532 20.707 96.0366 20.8682C96.52 21.0342 97.2012 21.1123 98.0801 21.1025C98.9639 21.1074 99.6426 21.0293 100.116 20.8682C100.595 20.7119 100.839 20.4824 100.849 20.1797C100.844 19.8818 100.604 19.6597 100.131 19.5132C99.6621 19.3618 98.9785 19.2812 98.0801 19.2715ZM108.598 9.82324C109.237 9.82812 109.804 10.0186 110.297 10.3945C110.795 10.7656 111.183 11.293 111.461 11.9766C111.745 12.6602 111.889 13.4561 111.894 14.3643C111.889 15.2725 111.745 16.0684 111.461 16.752C111.183 17.4355 110.795 17.9629 110.297 18.334C109.799 18.7051 109.232 18.8906 108.598 18.8906C107.958 18.8906 107.389 18.7051 106.891 18.334C106.393 17.9629 106.005 17.4355 105.727 16.752C105.453 16.0684 105.316 15.2725 105.316 14.3643C105.316 13.4561 105.453 12.6602 105.727 11.9766C106.005 11.293 106.393 10.7656 106.891 10.3945C107.389 10.0186 107.958 9.82812 108.598 9.82324ZM108.598 10.8486C108.168 10.8535 107.787 11.0024 107.455 11.2954C107.123 11.5835 106.864 11.9937 106.679 12.5259C106.493 13.0532 106.4 13.666 106.4 14.3643C106.4 15.0625 106.493 15.6777 106.679 16.21C106.864 16.7373 107.123 17.145 107.455 17.4331C107.792 17.7212 108.173 17.8652 108.598 17.8652C109.027 17.8652 109.406 17.7212 109.733 17.4331C110.065 17.145 110.321 16.7373 110.502 16.21C110.688 15.6777 110.78 15.0625 110.78 14.3643C110.78 13.666 110.688 13.0532 110.502 12.5259C110.321 11.9937 110.065 11.5835 109.733 11.2954C109.406 11.0024 109.027 10.8535 108.598 10.8486ZM115.189 14.0127H117.372V15.0088H115.189V21.835H114.047V8.8125H115.189V14.0127ZM129.999 20.165H118.075V19.1982H121.034V15.6826C120.468 15.3896 120.028 15.0137 119.716 14.5547C119.403 14.0908 119.247 13.5684 119.247 12.9873C119.247 12.3232 119.45 11.7397 119.855 11.2368C120.26 10.729 120.822 10.3359 121.54 10.0576C122.262 9.7793 123.085 9.6377 124.008 9.63281C124.931 9.6377 125.751 9.7793 126.469 10.0576C127.191 10.3359 127.755 10.729 128.161 11.2368C128.566 11.7397 128.769 12.3232 128.769 12.9873C128.769 13.5586 128.617 14.0737 128.314 14.5327C128.012 14.9868 127.587 15.3604 127.04 15.6533V19.1982H129.999V20.165ZM124.008 10.585C123.3 10.5801 122.67 10.6777 122.118 10.8779C121.566 11.0781 121.134 11.3613 120.822 11.7275C120.514 12.0889 120.36 12.5088 120.36 12.9873C120.36 13.4658 120.514 13.8906 120.822 14.2617C121.134 14.6279 121.566 14.9136 122.118 15.1187C122.67 15.3188 123.3 15.4189 124.008 15.4189C124.711 15.4189 125.338 15.3164 125.89 15.1113C126.442 14.9062 126.874 14.6206 127.187 14.2544C127.499 13.8882 127.655 13.4658 127.655 12.9873C127.655 12.5088 127.499 12.0889 127.187 11.7275C126.874 11.3613 126.442 11.0781 125.89 10.8779C125.338 10.6777 124.711 10.5801 124.008 10.585ZM125.883 19.1982V16.1001C125.302 16.2515 124.677 16.3271 124.008 16.3271C123.334 16.3271 122.719 16.2539 122.162 16.1074V19.1982H125.883Z" fill="#0033FF"/>
</svg>
