<svg width="144" height="34" viewBox="0 0 144 34" fill="none" xmlns="http://www.w3.org/2000/svg">
<rect x="0.95" y="0.95" width="142.767" height="32.1" rx="5.05" stroke="black" stroke-width="0.1"/>
<path d="M11.8667 26.5334C11.8667 27.3401 12.5267 28.0001 13.3334 28.0001C14.14 28.0001 14.8 27.3401 14.8 26.5334H11.8667Z" fill="#616466"/>
<path d="M11.0967 24.26H15.6067V24.92H11.0967V24.26Z" fill="#616466"/>
<path d="M11.4634 25.6167H15.24V26.2767H11.4634V25.6167Z" fill="#616466"/>
<path d="M10.73 22.8667H15.9C16.1933 21.29 17.1833 19.75 18.21 18.1367C19.42 16.2667 20.6667 14.3233 20.6667 12.4533C20.6667 8.89667 17.3667 6 13.3333 6C9.3 6 6 8.89667 6 12.4533C6 14.3233 7.24667 16.2667 8.42 18.1367C9.44667 19.75 10.4367 21.29 10.73 22.8667Z" fill="#FFCE31"/>
<path d="M8.1731 17.7373C8.25786 17.871 8.34288 18.0043 8.42768 18.1373C9.45581 19.7481 10.4377 21.2855 10.7439 22.8666H15.9231C16.2303 21.2852 17.2112 19.7481 18.2386 18.1373C18.3234 18.0043 18.4084 17.871 18.4932 17.7373" fill="#EFF0F1"/>
<path d="M10.73 23.6001H15.9733V24.2601H10.73V23.6001ZM11.0966 24.9201H15.6066V25.5801H11.0966V24.9201Z" fill="#94989B"/>
<path d="M15.9733 23.6001L11.0967 24.9201V25.6168L15.9733 24.2601V23.6001ZM11.4633 26.2768H15.24V26.9368H11.4633V26.2768Z" fill="#94989B"/>
<path d="M15.6067 24.9202L11.4634 26.2768V26.9735L15.6067 25.6168V24.9202Z" fill="#94989B"/>
<path d="M35.5593 14.0752C35.5593 14.793 35.7302 15.5156 36.072 16.2432C36.4187 16.9658 36.863 17.6152 37.405 18.1914C37.9519 18.7627 38.5134 19.1875 39.0896 19.4658L38.6648 20.0518C38.1814 19.7979 37.7102 19.4487 37.2512 19.0044C36.7922 18.5552 36.3845 18.0449 36.0281 17.4736C35.6716 16.8975 35.4031 16.2993 35.2224 15.6792C35.0515 16.3286 34.7878 16.9561 34.4314 17.5615C34.0798 18.167 33.677 18.7065 33.2229 19.1802C32.7737 19.6489 32.3123 20.0176 31.8386 20.2861L31.3845 19.7295C31.9509 19.4316 32.5027 18.98 33.0398 18.3745C33.5769 17.769 34.0139 17.0854 34.3508 16.3237C34.6926 15.562 34.866 14.8125 34.8708 14.0752V11.4531H35.5593V14.0752ZM41.7849 23.1133H41.0964V15.4521H37.698V14.8662H41.0964V10.2666H41.7849V23.1133ZM54.7195 23.1133H54.0164V10.2666H54.7195V23.1133ZM45.7546 14.9688H50.2517V11.3945H50.9548V19.9346H45.0515V11.3945H45.7546V14.9688ZM50.2517 19.3193V15.5547H45.7546V19.3193H50.2517ZM63.3767 12.2881C63.3767 13.0352 63.6428 13.7432 64.175 14.4121C64.7073 15.0811 65.3542 15.6426 66.116 16.0967C66.8826 16.5508 67.5906 16.8438 68.24 16.9756L67.8738 17.5615C67.2781 17.4053 66.6531 17.144 65.9988 16.7778C65.3445 16.4116 64.7463 15.96 64.2043 15.4229C63.6624 14.8809 63.2693 14.2852 63.0251 13.6357C62.7859 14.2803 62.3953 14.8735 61.8533 15.4155C61.3113 15.9575 60.7131 16.4116 60.0588 16.7778C59.4045 17.1392 58.7771 17.4004 58.1765 17.5615L57.8396 16.9756C58.489 16.8389 59.1897 16.5459 59.9417 16.0967C60.6985 15.6475 61.3406 15.0908 61.8679 14.4268C62.4001 13.7578 62.6687 13.0449 62.6736 12.2881V11.248H63.3767V12.2881ZM68.9578 21.2383H57.2097V20.6377H68.9578V21.2383ZM79.9734 15.6865H82.2292V16.2871H79.9734V23.0986H79.2849V10.2666H79.9734V15.6865ZM76.7214 11.6875C76.7214 12.8789 76.5066 14.0215 76.0769 15.1152C75.6472 16.2041 74.988 17.21 74.0994 18.1328C73.2156 19.0557 72.1072 19.8467 70.7742 20.5059L70.3933 19.9492C71.5505 19.3779 72.5369 18.6968 73.3523 17.9058C74.1726 17.1099 74.8049 16.2383 75.2493 15.291C75.6985 14.3389 75.9548 13.3379 76.0183 12.2881H70.9207V11.6875H76.7214ZM97.1121 23.0986H96.4236V10.2666H97.1121V23.0986ZM93.3328 11.6875C93.3328 12.8936 93.1106 14.0459 92.6663 15.1445C92.2219 16.2383 91.5457 17.2466 90.6375 18.1694C89.7292 19.0923 88.6013 19.8809 87.2537 20.5352L86.8728 19.9492C88.0496 19.3877 89.0554 18.7139 89.8904 17.9277C90.7302 17.1416 91.3796 16.2725 91.8386 15.3203C92.2976 14.3633 92.5613 13.3525 92.6296 12.2881H87.4001V11.6875H93.3328ZM100.921 12.8447H105.374V10.7793H106.062V16.3457H100.232V10.7793H100.921V12.8447ZM105.374 15.7598V13.4307H100.921V15.7598H105.374ZM109.519 13.2402H111.57V13.8408H109.519V16.9609H108.831V10.2666H109.519V13.2402ZM109.519 20.5059H102.268V22.3076H110.061V22.9082H101.594V19.9346H108.831V18.25H101.551V17.6494H109.519V20.5059ZM119.099 13.2549H112.522V12.6543H115.452V10.6621H116.155V12.6543H119.099V13.2549ZM115.803 14.2949C116.326 14.2998 116.795 14.4243 117.21 14.6685C117.625 14.9077 117.949 15.2422 118.184 15.6719C118.418 16.1016 118.538 16.5898 118.543 17.1367C118.538 17.6885 118.416 18.1816 118.177 18.6162C117.942 19.0459 117.617 19.3828 117.202 19.627C116.792 19.8662 116.326 19.9834 115.803 19.9785C115.281 19.9834 114.812 19.8662 114.397 19.627C113.982 19.3828 113.657 19.0435 113.423 18.6089C113.189 18.1743 113.074 17.6836 113.079 17.1367C113.074 16.5898 113.189 16.1016 113.423 15.6719C113.657 15.2422 113.982 14.9077 114.397 14.6685C114.812 14.4243 115.281 14.2998 115.803 14.2949ZM115.803 14.9102C115.408 14.915 115.049 15.0176 114.727 15.2178C114.409 15.4131 114.16 15.6816 113.98 16.0234C113.799 16.3604 113.709 16.7314 113.709 17.1367C113.709 17.5469 113.799 17.9229 113.98 18.2646C114.16 18.6016 114.409 18.8677 114.727 19.063C115.049 19.2583 115.408 19.3535 115.803 19.3486C116.199 19.3535 116.555 19.2583 116.873 19.063C117.195 18.8677 117.447 18.6016 117.627 18.2646C117.808 17.9229 117.898 17.5469 117.898 17.1367C117.898 16.7314 117.808 16.3604 117.627 16.0234C117.447 15.6816 117.195 15.4131 116.873 15.2178C116.555 15.0176 116.199 14.915 115.803 14.9102ZM123.377 23.0986H122.703V16.4043H120.55V22.4102H119.89V10.6035H120.55V15.7891H122.703V10.2666H123.377V23.0986ZM137.263 21.3408H125.515V20.7256H128.606V17.0488C128.02 16.7754 127.564 16.4116 127.237 15.9575C126.909 15.5034 126.746 14.9883 126.746 14.4121C126.746 13.7725 126.941 13.2109 127.332 12.7275C127.722 12.2393 128.264 11.8633 128.958 11.5996C129.656 11.3359 130.452 11.2041 131.345 11.2041C132.244 11.2041 133.04 11.3359 133.733 11.5996C134.431 11.8633 134.973 12.2393 135.359 12.7275C135.75 13.2109 135.945 13.7725 135.945 14.4121C135.945 14.9834 135.786 15.4937 135.469 15.9429C135.156 16.3872 134.715 16.7485 134.143 17.0269V20.7256H137.263V21.3408ZM131.345 11.79C130.598 11.79 129.922 11.9023 129.317 12.127C128.716 12.3467 128.245 12.6567 127.903 13.0571C127.561 13.4575 127.39 13.9092 127.39 14.4121C127.39 14.9102 127.561 15.3594 127.903 15.7598C128.245 16.1553 128.716 16.4653 129.317 16.6899C129.922 16.9097 130.598 17.0195 131.345 17.0195C132.093 17.0195 132.766 16.9097 133.367 16.6899C133.972 16.4653 134.446 16.1553 134.788 15.7598C135.13 15.3594 135.301 14.9102 135.301 14.4121C135.301 13.9092 135.13 13.4575 134.788 13.0571C134.446 12.6567 133.972 12.3467 133.367 12.127C132.766 11.9023 132.093 11.79 131.345 11.79ZM133.44 20.7256V17.2979C132.81 17.4932 132.112 17.5908 131.345 17.5908C130.598 17.5908 129.91 17.4956 129.28 17.3052V20.7256H133.44Z" fill="black"/>
</svg>
