<svg width="47" height="47" viewBox="0 0 47 47" fill="none" xmlns="http://www.w3.org/2000/svg">
<path d="M35.9136 8.1706L2.99475 41.1709L1 46L5.82901 44.0052L38.8289 11.0859L35.9136 8.1706ZM42.5003 1.58505L41.074 3.01006L43.9894 5.92541L45.4156 4.49919C45.7898 4.12468 46 3.61691 46 3.08748C46 2.55805 45.7898 2.05028 45.4156 1.67577L45.3248 1.58505C45.1394 1.39957 44.9192 1.25243 44.6769 1.15205C44.4346 1.05167 44.1748 1 43.9125 1C43.6503 1 43.3905 1.05167 43.1482 1.15205C42.9059 1.25243 42.6857 1.39957 42.5003 1.58505Z" stroke="black" stroke-width="1.375" stroke-linecap="round" stroke-linejoin="round"/>
</svg>
