<svg width="115" height="34" viewBox="0 0 115 34" fill="none" xmlns="http://www.w3.org/2000/svg">
<rect x="0.95" y="0.95" width="113.429" height="32.1" rx="5.05" stroke="black" stroke-width="0.1"/>
<path d="M8.23837 6L6 17.8405H11.7101L9.79153 28L17.3289 13.2359H11.8929L13.2176 6H8.23837Z" fill="#FFCE31"/>
<path d="M39.6921 21.3848H27.9441V20.7695H33.4226V18.0449H29.4822V14.3242H37.4363V11.9072H29.4529V11.292H38.1248V14.9248H30.1707V17.4443H38.4324V18.0449H34.1257V20.7695H39.6921V21.3848ZM51.4109 18.3086H50.7078V10.2666H51.4109V18.3086ZM42.7537 16.126C44.2087 16.126 45.405 16.0942 46.3425 16.0308C47.28 15.9624 48.2322 15.833 49.199 15.6426L49.3015 16.2432C48.3103 16.4336 47.3386 16.563 46.3865 16.6313C45.4343 16.6948 44.2234 16.7266 42.7537 16.7266H41.7283V11.3066H47.7781V11.9219H42.4314V16.126H42.7537ZM47.1775 18.25C48.0515 18.25 48.8083 18.3452 49.448 18.5356C50.0876 18.7261 50.5784 19.002 50.9202 19.3633C51.2668 19.7246 51.4402 20.1543 51.4402 20.6523C51.4402 21.1553 51.2693 21.5874 50.9275 21.9487C50.5857 22.3101 50.095 22.5859 49.4553 22.7764C48.8157 22.9668 48.0564 23.0645 47.1775 23.0693C46.2888 23.0645 45.5222 22.9668 44.8777 22.7764C44.238 22.5859 43.7449 22.3101 43.3982 21.9487C43.0564 21.5874 42.8855 21.1553 42.8855 20.6523C42.8855 20.1543 43.0564 19.7246 43.3982 19.3633C43.7449 19.002 44.2405 18.7261 44.885 18.5356C45.5295 18.3452 46.2937 18.25 47.1775 18.25ZM47.1775 18.8213C46.4548 18.8262 45.8225 18.9043 45.2805 19.0557C44.7434 19.207 44.3259 19.4219 44.0281 19.7002C43.7351 19.9736 43.5886 20.291 43.5886 20.6523C43.5886 21.0137 43.7351 21.3335 44.0281 21.6118C44.3259 21.8853 44.7434 22.0952 45.2805 22.2417C45.8225 22.3931 46.4548 22.4688 47.1775 22.4688C47.8904 22.4688 48.5154 22.3931 49.0525 22.2417C49.5945 22.0952 50.012 21.8853 50.3049 21.6118C50.6028 21.3335 50.7517 21.0137 50.7517 20.6523C50.7517 20.291 50.6028 19.9736 50.3049 19.7002C50.012 19.4219 49.5945 19.207 49.0525 19.0557C48.5154 18.9043 47.8904 18.8262 47.1775 18.8213ZM64.3455 23.1133H63.6423V10.2666H64.3455V23.1133ZM57.6218 11.3213C58.2419 11.3213 58.7937 11.5044 59.2771 11.8706C59.7605 12.2319 60.1389 12.7471 60.4124 13.416C60.6858 14.0801 60.825 14.8516 60.8298 15.7305C60.825 16.6045 60.6858 17.3735 60.4124 18.0376C60.1389 18.6968 59.7605 19.207 59.2771 19.5684C58.7937 19.9297 58.2419 20.1104 57.6218 20.1104C56.9968 20.1104 56.4402 19.9297 55.9519 19.5684C55.4685 19.207 55.0901 18.6968 54.8167 18.0376C54.5481 17.3735 54.4138 16.6045 54.4138 15.7305C54.4138 14.8516 54.5481 14.0801 54.8167 13.416C55.0901 12.7471 55.4685 12.2319 55.9519 11.8706C56.4402 11.5044 56.9968 11.3213 57.6218 11.3213ZM57.6218 11.9365C57.1287 11.9365 56.6892 12.1001 56.3035 12.4272C55.9226 12.7495 55.6248 13.1987 55.4099 13.7749C55.1951 14.3511 55.0876 15.0029 55.0876 15.7305C55.0876 16.4531 55.1951 17.1025 55.4099 17.6787C55.6248 18.2549 55.9226 18.7041 56.3035 19.0264C56.6892 19.3486 57.1287 19.5098 57.6218 19.5098C58.1101 19.5098 58.5447 19.3486 58.9255 19.0264C59.3064 18.6992 59.6042 18.25 59.8191 17.6787C60.0339 17.1025 60.1414 16.4531 60.1414 15.7305C60.1414 15.0029 60.0339 14.3511 59.8191 13.7749C59.6042 13.1987 59.3064 12.7495 58.9255 12.4272C58.5447 12.1001 58.1101 11.9365 57.6218 11.9365ZM80.4734 13.3135H82.3337V13.9141H80.4734V17.1514H79.7849V10.2666H80.4734V13.3135ZM71.4646 12.9619H73.4128V10.9258H74.0574V16.2725H70.8201V10.9258H71.4646V12.9619ZM73.4128 15.7012V13.5625H71.4646V15.7012H73.4128ZM75.698 12.9619H77.6609V10.9258H78.2908V16.2725H75.0681V10.9258H75.698V12.9619ZM77.6609 15.7012V13.5625H75.698V15.7012H77.6609ZM80.4734 20.5059H73.032V22.3076H80.9861V22.9082H72.3582V19.9492H79.7996V18.3818H72.3142V17.7812H80.4734V20.5059ZM93.0857 15.54H95.3855V16.1553H93.0857V23.1133H92.3972V10.2666H93.0857V15.54ZM84.7947 19.3047C86.1912 19.3047 87.3484 19.2729 88.2664 19.2095C89.1843 19.146 90.1218 19.0215 91.0789 18.8359L91.1521 19.4365C90.1462 19.6221 89.1746 19.749 88.2371 19.8174C87.2996 19.8857 86.1521 19.9199 84.7947 19.9199H83.8132V15.2617H88.8523V12.1416H83.7693V11.5264H89.5408V15.877H84.5017V19.3047H84.7947ZM107.998 21.3408H96.2498V20.7256H99.3406V17.0488C98.7546 16.7754 98.2981 16.4116 97.9709 15.9575C97.6438 15.5034 97.4802 14.9883 97.4802 14.4121C97.4802 13.7725 97.6755 13.2109 98.0662 12.7275C98.4568 12.2393 98.9988 11.8633 99.6921 11.5996C100.39 11.3359 101.186 11.2041 102.08 11.2041C102.978 11.2041 103.774 11.3359 104.468 11.5996C105.166 11.8633 105.708 12.2393 106.094 12.7275C106.484 13.2109 106.679 13.7725 106.679 14.4121C106.679 14.9834 106.521 15.4937 106.203 15.9429C105.891 16.3872 105.449 16.7485 104.878 17.0269V20.7256H107.998V21.3408ZM102.08 11.79C101.333 11.79 100.656 11.9023 100.051 12.127C99.4504 12.3467 98.9792 12.6567 98.6375 13.0571C98.2957 13.4575 98.1248 13.9092 98.1248 14.4121C98.1248 14.9102 98.2957 15.3594 98.6375 15.7598C98.9792 16.1553 99.4504 16.4653 100.051 16.6899C100.656 16.9097 101.333 17.0195 102.08 17.0195C102.827 17.0195 103.501 16.9097 104.101 16.6899C104.707 16.4653 105.18 16.1553 105.522 15.7598C105.864 15.3594 106.035 14.9102 106.035 14.4121C106.035 13.9092 105.864 13.4575 105.522 13.0571C105.18 12.6567 104.707 12.3467 104.101 12.127C103.501 11.9023 102.827 11.79 102.08 11.79ZM104.175 20.7256V17.2979C103.545 17.4932 102.846 17.5908 102.08 17.5908C101.333 17.5908 100.644 17.4956 100.014 17.3052V20.7256H104.175Z" fill="black"/>
</svg>
