<svg width="116" height="34" viewBox="0 0 116 34" fill="none" xmlns="http://www.w3.org/2000/svg">
<rect x="1.07886" y="0.75" width="113.829" height="32.5" rx="5.25" fill="#F9F9F9"/>
<rect x="1.07886" y="0.75" width="113.829" height="32.5" rx="5.25" stroke="#9747FF" stroke-width="0.5"/>
<path d="M8.56723 6L6.32886 17.8405H12.039L10.1204 28L17.6578 13.2359H12.2217L13.5465 6H8.56723Z" fill="#FFCE31"/>
<path d="M40.1089 21.5752H28.1851V20.6084H33.5464V18.1475H29.6792V14.1338H37.4722V12.083H29.6499V11.1309H38.6001V15.0713H30.8218V17.1953H38.9077V18.1475H34.6743V20.6084H40.1089V21.5752ZM51.9009 18.1914H50.7583V10.1641H51.9009V18.1914ZM48.1216 12.1416H43.0972V15.9502C44.5571 15.9502 45.7461 15.9185 46.6641 15.855C47.582 15.7915 48.4976 15.667 49.4106 15.4814L49.5425 16.4482C48.6099 16.624 47.6748 16.7412 46.7373 16.7998C45.7998 16.8584 44.562 16.8926 43.0239 16.9023H41.9546V11.1895H48.1216V12.1416ZM47.5503 18.1914C48.4487 18.1914 49.2275 18.2915 49.8867 18.4917C50.5459 18.687 51.0513 18.9727 51.4028 19.3486C51.7593 19.7197 51.9399 20.1641 51.9448 20.6816C51.9399 21.2041 51.7593 21.6509 51.4028 22.022C51.0513 22.3979 50.5459 22.6836 49.8867 22.8789C49.2324 23.0791 48.4536 23.1816 47.5503 23.1865C46.6372 23.1816 45.8511 23.0791 45.1919 22.8789C44.5376 22.6836 44.0347 22.3979 43.6831 22.022C43.3315 21.6509 43.1558 21.2041 43.1558 20.6816C43.1558 20.1641 43.3315 19.7197 43.6831 19.3486C44.0347 18.9727 44.54 18.687 45.1992 18.4917C45.8584 18.2915 46.6421 18.1914 47.5503 18.1914ZM47.5503 19.1143C46.8813 19.1143 46.3027 19.1777 45.8145 19.3047C45.3311 19.4268 44.96 19.605 44.7012 19.8394C44.4424 20.0737 44.313 20.3545 44.313 20.6816C44.313 21.0088 44.4424 21.2896 44.7012 21.5239C44.96 21.7583 45.3311 21.9365 45.8145 22.0586C46.3027 22.1855 46.8813 22.249 47.5503 22.249C48.2144 22.249 48.7905 22.1855 49.2788 22.0586C49.772 21.9365 50.1479 21.7583 50.4067 21.5239C50.6704 21.2847 50.8022 21.0039 50.8022 20.6816C50.8022 20.3594 50.6704 20.0811 50.4067 19.8467C50.1479 19.6074 49.772 19.4268 49.2788 19.3047C48.7905 19.1777 48.2144 19.1143 47.5503 19.1143ZM64.8501 23.2158H63.6929V10.1641H64.8501V23.2158ZM57.9214 11.1748C58.5659 11.1797 59.1396 11.3701 59.6426 11.7461C60.1455 12.1172 60.5386 12.6445 60.8218 13.3281C61.105 14.0117 61.2466 14.8076 61.2466 15.7158C61.2466 16.624 61.105 17.4199 60.8218 18.1035C60.5386 18.7871 60.1455 19.3145 59.6426 19.6855C59.1396 20.0566 58.5659 20.2422 57.9214 20.2422C57.2769 20.2422 56.7007 20.0566 56.1929 19.6855C55.6899 19.3145 55.2969 18.7871 55.0137 18.1035C54.7354 17.4199 54.5962 16.624 54.5962 15.7158C54.5962 14.8076 54.7354 14.0117 55.0137 13.3281C55.2969 12.6445 55.6899 12.1172 56.1929 11.7461C56.6958 11.3701 57.272 11.1797 57.9214 11.1748ZM57.9214 12.2002C57.4868 12.2051 57.1011 12.354 56.7642 12.647C56.4321 12.9351 56.1733 13.3452 55.9878 13.8774C55.8022 14.4048 55.7095 15.0176 55.7095 15.7158C55.7095 16.4141 55.8022 17.0293 55.9878 17.5615C56.1733 18.0889 56.4346 18.4966 56.7715 18.7847C57.1084 19.0728 57.4917 19.2168 57.9214 19.2168C58.3511 19.2168 58.7344 19.0728 59.0713 18.7847C59.4082 18.4966 59.6694 18.0889 59.855 17.5615C60.0405 17.0293 60.1333 16.4141 60.1333 15.7158C60.1333 15.0176 60.0405 14.4048 59.855 13.8774C59.6694 13.3452 59.4082 12.9351 59.0713 12.647C58.7393 12.354 58.356 12.2051 57.9214 12.2002ZM81.3442 13.0352H82.9995V14.002H81.3442V17.0635H80.231V10.1641H81.3442V13.0352ZM72.189 12.6396H73.7271V10.8086H74.6938V16.3457H71.2222V10.8086H72.189V12.6396ZM73.7271 15.4375V13.5479H72.189V15.4375H73.7271ZM76.5103 12.6396H78.0483V10.8086H79.0151V16.3457H75.5288V10.8086H76.5103V12.6396ZM78.0483 15.4375V13.5479H76.5103V15.4375H78.0483ZM81.3442 20.667H73.9761V22.1025H81.8276V23.04H72.8481V19.8027H80.231V18.543H72.8042V17.6201H81.3442V20.667ZM93.8833 15.3496H96.0659V16.3164H93.8833V23.2158H92.7407V10.1641H93.8833V15.3496ZM90.2358 16.0381H85.4897V19.085C86.7837 19.085 87.8848 19.0532 88.793 18.9897C89.7061 18.9263 90.6313 18.8066 91.5688 18.6309L91.686 19.583C90.7144 19.7637 89.7573 19.8882 88.8149 19.9565C87.8726 20.02 86.73 20.0566 85.3872 20.0664H84.3472V15.0859H89.0933V12.332H84.3179V11.3799H90.2358V16.0381ZM108.693 21.5166H96.769V20.5498H99.728V17.0342C99.1616 16.7412 98.7222 16.3652 98.4097 15.9062C98.0972 15.4424 97.9409 14.9199 97.9409 14.3389C97.9409 13.6748 98.1436 13.0913 98.5488 12.5884C98.9541 12.0806 99.5156 11.6875 100.233 11.4092C100.956 11.1309 101.779 10.9893 102.702 10.9844C103.625 10.9893 104.445 11.1309 105.163 11.4092C105.885 11.6875 106.449 12.0806 106.854 12.5884C107.26 13.0913 107.462 13.6748 107.462 14.3389C107.462 14.9102 107.311 15.4253 107.008 15.8843C106.706 16.3384 106.281 16.7119 105.734 17.0049V20.5498H108.693V21.5166ZM102.702 11.9365C101.994 11.9316 101.364 12.0293 100.812 12.2295C100.26 12.4297 99.8281 12.7129 99.5156 13.0791C99.208 13.4404 99.0542 13.8604 99.0542 14.3389C99.0542 14.8174 99.208 15.2422 99.5156 15.6133C99.8281 15.9795 100.26 16.2651 100.812 16.4702C101.364 16.6704 101.994 16.7705 102.702 16.7705C103.405 16.7705 104.032 16.668 104.584 16.4629C105.136 16.2578 105.568 15.9722 105.88 15.606C106.193 15.2397 106.349 14.8174 106.349 14.3389C106.349 13.8604 106.193 13.4404 105.88 13.0791C105.568 12.7129 105.136 12.4297 104.584 12.2295C104.032 12.0293 103.405 11.9316 102.702 11.9365ZM104.577 20.5498V17.4517C103.996 17.603 103.371 17.6787 102.702 17.6787C102.028 17.6787 101.413 17.6055 100.856 17.459V20.5498H104.577Z" fill="#0033FF"/>
</svg>
