<svg width="167" height="32" viewBox="0 0 167 32" fill="none" xmlns="http://www.w3.org/2000/svg">
<rect x="0.75" y="0.75" width="165.5" height="30.5" rx="5.25" fill="#F9F9F9"/>
<rect x="0.75" y="0.75" width="165.5" height="30.5" rx="5.25" stroke="#9747FF" stroke-width="0.5"/>
<path d="M7.73389 9.58514L10.445 6.87402L11.1051 7.53413L8.394 10.2452L7.73389 9.58514ZM12.471 10.2669L15.1825 7.55647L15.8426 8.21658L13.1311 10.927L12.471 10.2669ZM21.7689 23.6215L24.4807 20.911L25.1408 21.5715L22.429 24.2819L21.7689 23.6215ZM21.0918 18.855L23.8035 16.1446L24.4637 16.805L21.7515 19.5154L21.0918 18.855Z" fill="#ACB8BF"/>
<path d="M24.1326 25.5704L22.5657 11.5347L20.4653 9.43435L6.42965 7.86742C5.76288 7.80075 5.89623 9.46769 6.66303 9.83442L17.2314 14.7686L22.1656 25.337C22.5323 26.1038 24.1993 26.2371 24.1326 25.5704Z" fill="#42ADE2"/>
<path d="M25.7662 8.03411C26.4996 6.60054 25.3994 5.50036 23.9659 6.23381C22.1322 7.1673 19.4318 9.26765 16.698 11.9681C12.4306 16.2355 9.69684 20.4695 10.597 21.403C11.4971 22.3031 15.7645 19.5694 20.0319 15.302C22.7323 12.6015 24.8327 9.86775 25.7662 8.03411Z" fill="#DAE3EA"/>
<path d="M12.7973 25.4035L12.2639 20.4694L11.5304 19.7359L6.59625 19.2025C6.36288 19.1692 6.39622 19.7693 6.66293 19.9026L10.3635 21.6362L12.0972 25.3369C12.2305 25.6036 12.8306 25.6369 12.7973 25.4035Z" fill="#42ADE2"/>
<path d="M12.0639 20.7362C10.5636 22.2364 9.19673 23.2699 8.9967 23.0366C8.79666 22.8365 9.83017 21.4363 11.2971 19.9361C12.7973 18.4358 14.1642 17.4023 14.3976 17.6357C14.5643 17.8357 13.5308 19.2359 12.0639 20.7362Z" fill="#ACB8BF"/>
<path d="M25.2661 8.56749C25.4328 7.96739 25.3661 7.40063 24.9994 7.00057C24.6327 6.63384 24.0326 6.53382 23.4658 6.73386L22.3323 7.43397C22.899 7.23394 23.7325 7.53399 24.0992 7.90072C24.4993 8.30078 24.766 9.10091 24.566 9.66767L25.2661 8.56749Z" fill="#3E4347"/>
<path d="M23.2205 8.56584L25.1054 6.6792L25.3178 6.89123L23.4325 8.77821L23.2205 8.56584Z" fill="#DAE3EA"/>
<path d="M47.2646 9.17871V19.0664H46.1074V17.7188H43.4121V16.8838H46.1074V9.17871H47.2646ZM47.5869 20.9414V21.9082H38.3291V18.0996H39.4863V20.9414H47.5869ZM36.4541 15.2139C38.8857 15.1992 42.1377 15.1846 44.9355 14.833L45.0088 15.668C43.8442 15.8511 42.6284 15.9683 41.4346 16.0342V18.6123H40.2773V16.0928C38.959 16.1514 37.7065 16.1587 36.6152 16.1514L36.4541 15.2139ZM40.7314 9.70605C42.6357 9.70605 43.9395 10.6143 43.9541 11.9766C43.9395 13.3682 42.6357 14.2324 40.7314 14.2324C38.8125 14.2324 37.5088 13.3682 37.5088 11.9766C37.5088 10.6143 38.8125 9.70605 40.7314 9.70605ZM40.7314 10.585C39.457 10.5703 38.5928 11.1416 38.6074 11.9766C38.5928 12.8262 39.457 13.3828 40.7314 13.3828C41.9619 13.3828 42.8408 12.8262 42.8555 11.9766C42.8408 11.1416 41.9619 10.5703 40.7314 10.585ZM59.5693 9.16406V14.54H61.752V15.4922H59.5693V22.1865H58.4268V9.16406H59.5693ZM57.167 11.2588V12.2109H49.418V11.2588H52.7725V9.3252H53.915V11.2588H57.167ZM53.3584 13.2949C55.2041 13.2949 56.5371 14.5254 56.5518 16.2832C56.5371 18.041 55.2041 19.2715 53.3584 19.2715C51.498 19.2715 50.1504 18.041 50.165 16.2832C50.1504 14.5254 51.498 13.2949 53.3584 13.2949ZM53.3584 14.2617C52.1426 14.2617 51.249 15.1113 51.2637 16.2832C51.249 17.4697 52.1426 18.3047 53.3584 18.29C54.5596 18.3047 55.4385 17.4697 55.4531 16.2832C55.4385 15.1113 54.5596 14.2617 53.3584 14.2617ZM72.9873 13.1191V14.042H64.0664V9.64746H65.209V13.1191H72.9873ZM74.3643 15.8145V16.752H62.4404V15.8145H74.3643ZM73.0605 20.9121V21.8643H63.9932V18.085H65.1357V20.9121H73.0605ZM89.9502 9.16406V22.1865H88.793V9.16406H89.9502ZM86.0977 10.585C86.083 14.335 84.3398 17.6455 79.9746 19.7402L79.3447 18.8027C82.8677 17.1328 84.6621 14.6353 84.9258 11.5225H79.9453V10.585H86.0977ZM102.665 12.8115V13.7637H93.7734V9.42773H94.916V12.8115H102.665ZM104.027 15.2871V16.2393H92.1475V15.2871H104.027ZM98.0801 17.4111C100.878 17.4111 102.548 18.2607 102.562 19.7695C102.548 21.2783 100.878 22.1279 98.0801 22.1279C95.2676 22.1279 93.583 21.2783 93.583 19.7695C93.583 18.2607 95.2676 17.4111 98.0801 17.4111ZM98.0801 18.3193C95.9854 18.334 94.7402 18.8467 94.7549 19.7695C94.7402 20.6777 95.9854 21.2344 98.0801 21.2344C100.146 21.2344 101.405 20.6777 101.405 19.7695C101.405 18.8467 100.146 18.334 98.0801 18.3193ZM115.849 9.16406V22.2158H114.691V9.16406H115.849ZM108.92 10.1748C110.854 10.1895 112.245 11.9473 112.245 14.7158C112.245 17.4844 110.854 19.2422 108.92 19.2422C106.972 19.2422 105.595 17.4844 105.595 14.7158C105.595 11.9473 106.972 10.1895 108.92 10.1748ZM108.92 11.2002C107.616 11.2148 106.708 12.5918 106.708 14.7158C106.708 16.8398 107.616 18.2168 108.92 18.2168C110.224 18.2168 111.132 16.8398 111.132 14.7158C111.132 12.5918 110.224 11.2148 108.92 11.2002ZM126.249 17.9092C126.249 19.0591 126.864 20.2822 128.109 20.9854C129.34 20.2163 129.999 18.9199 129.999 17.9092V17.1914H131.127V17.9092C131.127 19.2422 132.108 20.5898 133.778 21.1611L133.207 22.0107C131.903 21.5493 130.988 20.6411 130.541 19.5498C130.138 20.6045 129.34 21.6006 128.139 22.1133C126.872 21.6299 126.066 20.6704 125.678 19.5791C125.216 20.6338 124.315 21.542 123.07 22.0107L122.484 21.1611C124.125 20.5459 125.121 19.1543 125.136 17.9092V17.1914H126.249V17.9092ZM132.592 9.17871V16.6201H131.449V9.17871H132.592ZM125.561 9.94043C127.538 9.94043 128.974 11.1709 128.974 12.9873C128.974 14.7744 127.538 16.0049 125.561 16.0049C123.583 16.0049 122.147 14.7744 122.147 12.9873C122.147 11.1709 123.583 9.94043 125.561 9.94043ZM125.561 10.9219C124.228 10.9072 123.261 11.7715 123.275 12.9873C123.261 14.1885 124.228 15.0381 125.561 15.0527C126.879 15.0381 127.846 14.1885 127.846 12.9873C127.846 11.7715 126.879 10.9072 125.561 10.9219ZM138.305 10.1748C140.077 10.1895 141.352 11.7056 141.542 14.1445H144.457V9.16406H145.6V22.2158H144.457V15.0967H141.557C141.417 17.6455 140.121 19.2422 138.305 19.2422C136.386 19.2422 135.038 17.4844 135.038 14.7158C135.038 11.9473 136.386 10.1895 138.305 10.1748ZM138.305 11.2002C137.016 11.2148 136.137 12.5918 136.137 14.7158C136.137 16.8398 137.016 18.2168 138.305 18.2168C139.579 18.2168 140.473 16.8398 140.473 14.7158C140.473 12.5918 139.579 11.2148 138.305 11.2002ZM159.691 19.5498V20.5166H147.768V19.5498H150.727V16.0342C149.613 15.4556 148.939 14.5181 148.939 13.3389C148.939 11.3174 150.917 9.99902 153.7 9.98438C156.483 9.99902 158.461 11.3174 158.461 13.3389C158.461 14.4961 157.809 15.4263 156.732 16.0049V19.5498H159.691ZM153.7 10.9365C151.562 10.9219 150.053 11.8887 150.053 13.3389C150.053 14.7891 151.562 15.7705 153.7 15.7705C155.824 15.7705 157.348 14.7891 157.348 13.3389C157.348 11.8887 155.824 10.9219 153.7 10.9365ZM151.854 19.5498H155.575V16.4443C155.011 16.5981 154.381 16.6787 153.7 16.6787C153.034 16.6787 152.411 16.6055 151.854 16.459V19.5498Z" fill="#0033FF"/>
</svg>
