<svg width="167" height="32" viewBox="0 0 167 32" fill="none" xmlns="http://www.w3.org/2000/svg">
<rect x="0.75" y="0.75" width="165.5" height="30.5" rx="5.25" fill="#F9F9F9"/>
<rect x="0.75" y="0.75" width="165.5" height="30.5" rx="5.25" stroke="#9747FF" stroke-width="0.5"/>
<path d="M6 26.4H26V6.4H6V26.4Z" fill="black"/>
<path d="M46.6055 14.3203H48.7881V15.2871H46.6055V22.2158H45.4629V9.16406H46.6055V14.3203ZM43.1777 11.3906H38.2412V17.9824C39.457 17.9824 40.519 17.9482 41.4272 17.8799C42.3354 17.8115 43.2607 17.6895 44.2031 17.5137L44.3496 18.5098C43.3877 18.6855 42.4429 18.8027 41.5151 18.8613C40.5874 18.9199 39.457 18.9492 38.124 18.9492H37.0986V10.4385H43.1777V11.3906ZM54.1201 12.665C54.1152 13.4365 54.2715 14.2031 54.5889 14.9648C54.9062 15.7217 55.3359 16.3955 55.8779 16.9863C56.4199 17.5771 57.0107 18.0166 57.6504 18.3047L56.9473 19.2129C56.2051 18.8467 55.5312 18.3022 54.9258 17.5796C54.3252 16.8521 53.8711 16.0269 53.5635 15.104C53.2607 16.0854 52.8066 16.9644 52.2012 17.7407C51.5957 18.5122 50.9121 19.0908 50.1504 19.4766L49.418 18.5098C50.0576 18.2119 50.6484 17.7603 51.1904 17.1548C51.7324 16.5444 52.1646 15.8462 52.4868 15.0601C52.8091 14.269 52.9727 13.4707 52.9775 12.665V10.292H54.1201V12.665ZM60.2285 22.2158H59.0713V9.16406H60.2285V22.2158ZM76.957 22.2158H75.7998V9.16406H76.957V22.2158ZM70.0283 10.1748C70.6729 10.1797 71.2466 10.3701 71.7495 10.7461C72.2524 11.1172 72.6455 11.6445 72.9287 12.3281C73.2119 13.0117 73.3535 13.8076 73.3535 14.7158C73.3535 15.624 73.2119 16.4199 72.9287 17.1035C72.6455 17.7871 72.2524 18.3145 71.7495 18.6855C71.2466 19.0566 70.6729 19.2422 70.0283 19.2422C69.3838 19.2422 68.8076 19.0566 68.2998 18.6855C67.7969 18.3145 67.4038 17.7871 67.1206 17.1035C66.8423 16.4199 66.7031 15.624 66.7031 14.7158C66.7031 13.8076 66.8423 13.0117 67.1206 12.3281C67.4038 11.6445 67.7969 11.1172 68.2998 10.7461C68.8027 10.3701 69.3789 10.1797 70.0283 10.1748ZM70.0283 11.2002C69.5938 11.2051 69.208 11.354 68.8711 11.647C68.5391 11.9351 68.2803 12.3452 68.0947 12.8774C67.9092 13.4048 67.8164 14.0176 67.8164 14.7158C67.8164 15.4141 67.9092 16.0293 68.0947 16.5615C68.2803 17.0889 68.5415 17.4966 68.8784 17.7847C69.2153 18.0728 69.5986 18.2168 70.0283 18.2168C70.458 18.2168 70.8413 18.0728 71.1782 17.7847C71.5151 17.4966 71.7764 17.0889 71.9619 16.5615C72.1475 16.0293 72.2402 15.4141 72.2402 14.7158C72.2402 14.0176 72.1475 13.4048 71.9619 12.8774C71.7764 12.3452 71.5151 11.9351 71.1782 11.647C70.8462 11.354 70.4629 11.2051 70.0283 11.2002ZM91.0488 16.5615H79.1836V15.6094H82.1279V13.7783C81.6006 13.5732 81.1978 13.3071 80.9194 12.98C80.6411 12.6479 80.502 12.2646 80.502 11.8301C80.502 11.3223 80.6875 10.8877 81.0586 10.5264C81.4297 10.165 81.9595 9.88916 82.6479 9.69873C83.3413 9.5083 84.1641 9.41309 85.1162 9.41309C86.0586 9.41309 86.874 9.5083 87.5625 9.69873C88.2559 9.88916 88.7881 10.165 89.1592 10.5264C89.5303 10.8877 89.7158 11.3223 89.7158 11.8301C89.7158 12.2598 89.5767 12.6406 89.2983 12.9727C89.0249 13.2998 88.627 13.5659 88.1045 13.771V15.6094H91.0488V16.5615ZM85.1162 17.5576C86.0488 17.5576 86.8496 17.6455 87.5186 17.8213C88.1875 17.9971 88.7002 18.2583 89.0566 18.605C89.4131 18.9468 89.5938 19.3643 89.5986 19.8574C89.5938 20.3457 89.4131 20.7607 89.0566 21.1025C88.7002 21.4492 88.1875 21.7104 87.5186 21.8862C86.8496 22.0669 86.0488 22.1572 85.1162 22.1572C84.1738 22.1572 83.3657 22.0669 82.6919 21.8862C82.0229 21.7104 81.5103 21.4492 81.1538 21.1025C80.7974 20.7607 80.6191 20.3457 80.6191 19.8574C80.6191 19.3643 80.7949 18.9468 81.1465 18.605C81.5029 18.2583 82.0181 17.9971 82.6919 17.8213C83.3657 17.6455 84.1738 17.5576 85.1162 17.5576ZM85.1162 18.4365C84.0615 18.4463 83.2412 18.5757 82.6553 18.8247C82.0742 19.0688 81.7861 19.4131 81.791 19.8574C81.7861 20.1504 81.9155 20.4019 82.1792 20.6118C82.4429 20.8218 82.8237 20.9829 83.3218 21.0952C83.8247 21.2075 84.4229 21.2637 85.1162 21.2637C85.7998 21.2637 86.3906 21.2075 86.8887 21.0952C87.3916 20.9829 87.7749 20.8218 88.0386 20.6118C88.3071 20.4019 88.4414 20.1504 88.4414 19.8574C88.4414 19.4131 88.146 19.0688 87.5552 18.8247C86.9692 18.5757 86.1562 18.4463 85.1162 18.4365ZM85.1162 10.3213C84.4131 10.3213 83.8027 10.3823 83.2852 10.5044C82.7676 10.6265 82.3696 10.8022 82.0913 11.0317C81.8179 11.2563 81.6836 11.5225 81.6885 11.8301C81.6836 12.1426 81.8179 12.4136 82.0913 12.6431C82.3696 12.8677 82.7651 13.041 83.2778 13.1631C83.7954 13.2803 84.4082 13.3389 85.1162 13.3389C85.8193 13.3389 86.4272 13.2803 86.9399 13.1631C87.4526 13.041 87.8481 12.8677 88.1265 12.6431C88.4048 12.4136 88.5439 12.1426 88.5439 11.8301C88.5439 11.5225 88.4048 11.2563 88.1265 11.0317C87.8481 10.8022 87.4502 10.6265 86.9326 10.5044C86.4199 10.3823 85.8145 10.3213 85.1162 10.3213ZM86.9619 15.6094V14.0859C86.4004 14.1836 85.7852 14.2324 85.1162 14.2324C84.4473 14.2324 83.832 14.1836 83.2705 14.0859V15.6094H86.9619ZM102.226 14.54H104.408V15.4922H102.226V22.1865H101.083V9.16406H102.226V14.54ZM99.8232 12.2109H92.0742V11.2588H95.4287V9.3252H96.5713V11.2588H99.8232V12.2109ZM96.0146 13.2949C96.625 13.2949 97.1719 13.4219 97.6553 13.6758C98.1387 13.9297 98.5171 14.2837 98.7905 14.7378C99.064 15.1919 99.2031 15.707 99.208 16.2832C99.2031 16.8594 99.064 17.3745 98.7905 17.8286C98.5171 18.2827 98.1387 18.6367 97.6553 18.8906C97.1719 19.1445 96.625 19.2715 96.0146 19.2715C95.3994 19.2715 94.8477 19.1445 94.3594 18.8906C93.876 18.6367 93.4976 18.2827 93.2241 17.8286C92.9507 17.3745 92.8164 16.8594 92.8213 16.2832C92.8164 15.707 92.9507 15.1919 93.2241 14.7378C93.4976 14.2837 93.876 13.9297 94.3594 13.6758C94.8477 13.4219 95.3994 13.2949 96.0146 13.2949ZM96.0146 14.2617C95.6143 14.2617 95.2529 14.3496 94.9307 14.5254C94.6133 14.6963 94.3643 14.9355 94.1836 15.2432C94.0029 15.5508 93.915 15.8975 93.9199 16.2832C93.915 16.6738 94.0029 17.0229 94.1836 17.3306C94.3643 17.6333 94.6133 17.8701 94.9307 18.041C95.2529 18.2119 95.6143 18.2949 96.0146 18.29C96.4102 18.2949 96.7666 18.2119 97.084 18.041C97.4014 17.8701 97.6504 17.6333 97.8311 17.3306C98.0117 17.0229 98.1045 16.6738 98.1094 16.2832C98.1045 15.8975 98.0117 15.5508 97.8311 15.2432C97.6504 14.9355 97.4014 14.6963 97.084 14.5254C96.7666 14.3496 96.4102 14.2617 96.0146 14.2617ZM115.556 11.7861V11.9473C115.546 13.0215 115.512 13.9858 115.453 14.8403C115.399 15.6899 115.272 16.6738 115.072 17.792L113.9 17.6602C114.057 16.8887 114.169 16.1611 114.237 15.4775C114.311 14.7939 114.354 14.186 114.369 13.6538C114.389 13.1216 114.398 12.499 114.398 11.7861V11.4346H106.371V10.4824H115.556V11.7861ZM116.977 20.3408H105.111V19.3887H109.77V14.7305H110.897V19.3887H116.977V20.3408ZM132.592 16.415H131.449V9.17871H132.592V16.415ZM126.454 10.9365C126.449 11.5273 126.588 12.0938 126.872 12.6357C127.155 13.1777 127.548 13.6538 128.051 14.064C128.559 14.4741 129.135 14.7842 129.779 14.9941L129.223 15.9023C128.451 15.6436 127.775 15.2529 127.194 14.7305C126.613 14.208 126.173 13.5952 125.875 12.8921C125.587 13.644 125.148 14.3057 124.557 14.877C123.971 15.4434 123.29 15.8633 122.514 16.1367L121.928 15.2285C122.577 14.999 123.156 14.667 123.664 14.2324C124.171 13.7979 124.567 13.2949 124.85 12.7236C125.138 12.1523 125.282 11.5566 125.282 10.9365V9.66211H126.454V10.9365ZM132.68 18.1289H130.878V21.0732H132.812V22.0107H123.803V21.0732H125.751V18.1289H123.92V17.1914H132.68V18.1289ZM129.735 21.0732V18.1289H126.879V21.0732H129.735ZM138.305 10.1748C138.891 10.1797 139.416 10.3433 139.879 10.6655C140.348 10.9878 140.727 11.4468 141.015 12.0425C141.303 12.6382 141.476 13.3389 141.535 14.1445H144.457V9.16406H145.6V22.2158H144.457V15.0967H141.549C141.505 15.9365 141.342 16.6689 141.059 17.2939C140.775 17.9189 140.395 18.3999 139.916 18.7368C139.442 19.0737 138.905 19.2422 138.305 19.2422C137.67 19.2422 137.104 19.0566 136.605 18.6855C136.112 18.3145 135.727 17.7871 135.448 17.1035C135.175 16.4199 135.038 15.624 135.038 14.7158C135.038 13.8076 135.175 13.0117 135.448 12.3281C135.727 11.6445 136.112 11.1172 136.605 10.7461C137.099 10.3701 137.665 10.1797 138.305 10.1748ZM138.305 11.2002C137.88 11.2051 137.501 11.354 137.169 11.647C136.842 11.9351 136.588 12.3452 136.408 12.8774C136.227 13.4048 136.137 14.0176 136.137 14.7158C136.137 15.4141 136.227 16.0293 136.408 16.5615C136.588 17.0889 136.842 17.4966 137.169 17.7847C137.501 18.0728 137.88 18.2168 138.305 18.2168C138.725 18.2168 139.098 18.0728 139.425 17.7847C139.757 17.4966 140.014 17.0889 140.194 16.5615C140.38 16.0293 140.473 15.4141 140.473 14.7158C140.473 14.0176 140.38 13.4048 140.194 12.8774C140.014 12.3452 139.76 11.9351 139.433 11.647C139.105 11.354 138.729 11.2051 138.305 11.2002ZM159.691 20.5166H147.768V19.5498H150.727V16.0342C150.16 15.7412 149.721 15.3652 149.408 14.9062C149.096 14.4424 148.939 13.9199 148.939 13.3389C148.939 12.6748 149.142 12.0913 149.547 11.5884C149.953 11.0806 150.514 10.6875 151.232 10.4092C151.955 10.1309 152.777 9.98926 153.7 9.98438C154.623 9.98926 155.443 10.1309 156.161 10.4092C156.884 10.6875 157.448 11.0806 157.853 11.5884C158.258 12.0913 158.461 12.6748 158.461 13.3389C158.461 13.9102 158.31 14.4253 158.007 14.8843C157.704 15.3384 157.279 15.7119 156.732 16.0049V19.5498H159.691V20.5166ZM153.7 10.9365C152.992 10.9316 152.362 11.0293 151.811 11.2295C151.259 11.4297 150.827 11.7129 150.514 12.0791C150.207 12.4404 150.053 12.8604 150.053 13.3389C150.053 13.8174 150.207 14.2422 150.514 14.6133C150.827 14.9795 151.259 15.2651 151.811 15.4702C152.362 15.6704 152.992 15.7705 153.7 15.7705C154.403 15.7705 155.031 15.668 155.583 15.4629C156.134 15.2578 156.566 14.9722 156.879 14.606C157.191 14.2397 157.348 13.8174 157.348 13.3389C157.348 12.8604 157.191 12.4404 156.879 12.0791C156.566 11.7129 156.134 11.4297 155.583 11.2295C155.031 11.0293 154.403 10.9316 153.7 10.9365ZM155.575 19.5498V16.4517C154.994 16.603 154.369 16.6787 153.7 16.6787C153.026 16.6787 152.411 16.6055 151.854 16.459V19.5498H155.575Z" fill="#0033FF"/>
</svg>
