<svg width="166" height="32" viewBox="0 0 166 32" fill="none" xmlns="http://www.w3.org/2000/svg">
<rect x="0.95" y="0.95" width="164.1" height="30.1" rx="5.05" stroke="black" stroke-width="0.1"/>
<path d="M6 26.4H26V6.4H6V26.4Z" fill="black"/>
<path d="M46.415 14.54H48.7148V15.1553H46.415V22.1133H45.7266V9.2666H46.415V14.54ZM38.168 18.2021C39.4961 18.2021 40.6118 18.1704 41.5151 18.1069C42.4233 18.0386 43.3486 17.9141 44.291 17.7334L44.3936 18.3633C43.4268 18.5439 42.4893 18.666 41.5811 18.7295C40.6777 18.7881 39.54 18.8174 38.168 18.8174H37.2158V10.5557H43.1777V11.1562H37.9043V18.2021H38.168ZM53.8418 13.0752C53.8418 13.8125 54.02 14.5522 54.3765 15.2944C54.7378 16.0366 55.1992 16.6982 55.7607 17.2793C56.3223 17.8604 56.8936 18.29 57.4746 18.5684L57.0352 19.1104C56.5566 18.8613 56.083 18.5195 55.6143 18.085C55.1504 17.6455 54.7329 17.1426 54.3618 16.5762C53.9956 16.0049 53.7148 15.4067 53.5195 14.7817C53.334 15.436 53.0581 16.0635 52.6919 16.6641C52.3257 17.2598 51.9106 17.7871 51.4468 18.2461C50.9829 18.7002 50.5117 19.0566 50.0332 19.3154L49.5645 18.7441C50.1406 18.4512 50.707 18.0068 51.2637 17.4111C51.8203 16.8105 52.2769 16.127 52.6333 15.3604C52.9897 14.5938 53.168 13.832 53.168 13.0752V10.4531H53.8418V13.0752ZM60.0527 22.1133H59.3496V9.2666H60.0527V22.1133ZM76.5029 22.1133H75.7998V9.2666H76.5029V22.1133ZM69.7793 10.3213C70.3994 10.3213 70.9512 10.5044 71.4346 10.8706C71.918 11.2319 72.2964 11.7471 72.5698 12.416C72.8433 13.0801 72.9824 13.8516 72.9873 14.7305C72.9824 15.6045 72.8433 16.3735 72.5698 17.0376C72.2964 17.6968 71.918 18.207 71.4346 18.5684C70.9512 18.9297 70.3994 19.1104 69.7793 19.1104C69.1543 19.1104 68.5977 18.9297 68.1094 18.5684C67.626 18.207 67.2476 17.6968 66.9741 17.0376C66.7056 16.3735 66.5713 15.6045 66.5713 14.7305C66.5713 13.8516 66.7056 13.0801 66.9741 12.416C67.2476 11.7471 67.626 11.2319 68.1094 10.8706C68.5977 10.5044 69.1543 10.3213 69.7793 10.3213ZM69.7793 10.9365C69.2861 10.9365 68.8467 11.1001 68.4609 11.4272C68.0801 11.7495 67.7822 12.1987 67.5674 12.7749C67.3525 13.3511 67.2451 14.0029 67.2451 14.7305C67.2451 15.4531 67.3525 16.1025 67.5674 16.6787C67.7822 17.2549 68.0801 17.7041 68.4609 18.0264C68.8467 18.3486 69.2861 18.5098 69.7793 18.5098C70.2676 18.5098 70.7021 18.3486 71.083 18.0264C71.4639 17.6992 71.7617 17.25 71.9766 16.6787C72.1914 16.1025 72.2988 15.4531 72.2988 14.7305C72.2988 14.0029 72.1914 13.3511 71.9766 12.7749C71.7617 12.1987 71.4639 11.7495 71.083 11.4272C70.7021 11.1001 70.2676 10.9365 69.7793 10.9365ZM90.668 16.3857H78.9932V15.7852H82.0547V13.793C81.5078 13.6025 81.0903 13.3462 80.8022 13.0239C80.5142 12.6968 80.3701 12.3135 80.3701 11.874C80.3701 11.3809 80.5483 10.9609 80.9048 10.6143C81.2612 10.2627 81.7715 9.99658 82.4355 9.81592C83.1045 9.63525 83.9004 9.54492 84.8232 9.54492C85.7461 9.54492 86.5396 9.63525 87.2036 9.81592C87.8726 9.99658 88.3853 10.2627 88.7417 10.6143C89.0981 10.9609 89.2764 11.3809 89.2764 11.874C89.2764 12.3086 89.1348 12.687 88.8516 13.0093C88.5732 13.3315 88.168 13.5879 87.6357 13.7783V15.7852H90.668V16.3857ZM84.8379 17.5723C85.751 17.5723 86.5347 17.6602 87.189 17.8359C87.8481 18.0068 88.3511 18.2583 88.6978 18.5903C89.0444 18.9224 89.2178 19.3252 89.2178 19.7988C89.2178 20.2773 89.042 20.6851 88.6904 21.022C88.3438 21.3589 87.8433 21.6152 87.189 21.791C86.5347 21.9668 85.751 22.0547 84.8379 22.0547C83.9199 22.0547 83.1313 21.9668 82.4722 21.791C81.8179 21.6152 81.3149 21.3589 80.9634 21.022C80.6167 20.6851 80.4434 20.2773 80.4434 19.7988C80.4434 19.3252 80.6167 18.9224 80.9634 18.5903C81.3149 18.2534 81.8179 17.9995 82.4722 17.8286C83.1313 17.6577 83.9199 17.5723 84.8379 17.5723ZM84.8379 18.1436C84.0957 18.1436 83.4463 18.2119 82.8896 18.3486C82.333 18.4805 81.9033 18.6733 81.6006 18.9272C81.2979 19.1763 81.1465 19.4668 81.1465 19.7988C81.1465 20.1406 81.2979 20.4385 81.6006 20.6924C81.9033 20.9414 82.333 21.1318 82.8896 21.2637C83.4463 21.4004 84.0957 21.4688 84.8379 21.4688C85.5752 21.4688 86.2197 21.4004 86.7715 21.2637C87.3281 21.1318 87.7578 20.9414 88.0605 20.6924C88.3633 20.4385 88.5146 20.1406 88.5146 19.7988C88.5146 19.4668 88.3633 19.1763 88.0605 18.9272C87.7578 18.6733 87.3281 18.4805 86.7715 18.3486C86.2197 18.2119 85.5752 18.1436 84.8379 18.1436ZM84.8232 10.1162C84.0713 10.1162 83.4121 10.1895 82.8457 10.3359C82.2842 10.4775 81.8472 10.6826 81.5347 10.9512C81.2271 11.2148 81.0732 11.5225 81.0732 11.874C81.0732 12.2256 81.2271 12.5332 81.5347 12.7969C81.8423 13.0605 82.2793 13.2632 82.8457 13.4048C83.4121 13.5464 84.0713 13.6172 84.8232 13.6172C85.5752 13.6172 86.2344 13.5464 86.8008 13.4048C87.3672 13.2632 87.8042 13.0605 88.1118 12.7969C88.4194 12.5332 88.5732 12.2256 88.5732 11.874C88.5732 11.5225 88.417 11.2148 88.1045 10.9512C87.7969 10.6826 87.3599 10.4775 86.7935 10.3359C86.2319 10.1895 85.5752 10.1162 84.8232 10.1162ZM86.9473 15.7852V13.9761C86.3271 14.1079 85.6582 14.1738 84.9404 14.1738C84.0811 14.1738 83.3486 14.1104 82.7432 13.9834V15.7852H86.9473ZM101.757 14.7158H104.057V15.3311H101.757V22.0986H101.068V9.2666H101.757V14.7158ZM99.5742 12.0352H91.8838V11.4199H95.4287V9.38379H96.1318V11.4199H99.5742V12.0352ZM95.8096 13.3096C96.3955 13.3145 96.918 13.439 97.377 13.6831C97.8408 13.9272 98.2021 14.269 98.4609 14.7085C98.7246 15.1431 98.8564 15.6387 98.8564 16.1953C98.8564 16.752 98.7246 17.25 98.4609 17.6895C98.2021 18.124 97.8408 18.4634 97.377 18.7075C96.918 18.9468 96.3955 19.0664 95.8096 19.0664C95.2188 19.0664 94.6914 18.9468 94.2275 18.7075C93.7637 18.4634 93.3999 18.124 93.1362 17.6895C92.8774 17.25 92.748 16.752 92.748 16.1953C92.748 15.6387 92.8774 15.1431 93.1362 14.7085C93.3999 14.269 93.7637 13.9272 94.2275 13.6831C94.6914 13.439 95.2188 13.3145 95.8096 13.3096ZM95.8096 13.9248C95.3555 13.9297 94.9453 14.0322 94.5791 14.2324C94.2129 14.4326 93.9248 14.7061 93.7148 15.0527C93.5098 15.3945 93.4072 15.7754 93.4072 16.1953C93.4072 16.6152 93.5098 16.9985 93.7148 17.3452C93.9248 17.687 94.2129 17.9556 94.5791 18.1509C94.9453 18.3462 95.3555 18.4414 95.8096 18.4365C96.2588 18.4414 96.6641 18.3462 97.0254 18.1509C97.3867 17.9556 97.6699 17.687 97.875 17.3452C98.085 16.9985 98.1924 16.6152 98.1973 16.1953C98.1924 15.7754 98.085 15.3945 97.875 15.0527C97.6699 14.7061 97.3867 14.4326 97.0254 14.2324C96.6641 14.0322 96.2588 13.9297 95.8096 13.9248ZM115.014 11.9912V12.167C115.004 13.2168 114.972 14.1494 114.918 14.9648C114.87 15.7754 114.755 16.7129 114.574 17.7773L113.856 17.6748C114.052 16.6592 114.176 15.7461 114.23 14.9355C114.284 14.125 114.315 13.1973 114.325 12.1523V11.9912V11.3027H106.195V10.7021H115.014V11.9912ZM116.596 20.1064H104.921V19.4912H109.755V14.8037H110.443V19.4912H116.596V20.1064ZM131.874 16.415H131.171V9.28125H131.874V16.415ZM125.663 11.0244C125.663 11.6543 125.822 12.2549 126.139 12.8262C126.461 13.3926 126.886 13.8882 127.414 14.313C127.941 14.7378 128.51 15.0576 129.12 15.2725L128.769 15.8291C127.987 15.5361 127.287 15.1016 126.667 14.5254C126.046 13.9443 125.602 13.2754 125.333 12.5186C125.075 13.3242 124.638 14.042 124.022 14.6719C123.407 15.3018 122.709 15.7754 121.928 16.0928L121.547 15.5215C122.157 15.2871 122.724 14.9453 123.246 14.4961C123.769 14.042 124.186 13.5146 124.499 12.9141C124.816 12.3135 124.975 11.6836 124.975 11.0244V9.76465H125.663V11.0244ZM131.962 17.9092H130.014V21.293H132.108V21.8936H123.334V21.293H125.399V17.9092H123.451V17.2939H131.962V17.9092ZM129.325 21.293V17.9092H126.103V21.293H129.325ZM137.719 10.3213C138.3 10.3213 138.817 10.4849 139.271 10.812C139.726 11.1392 140.089 11.6055 140.363 12.2109C140.636 12.8164 140.792 13.5244 140.832 14.335H144.149V9.2666H144.838V22.1133H144.149V14.9355H140.839C140.819 15.7754 140.675 16.5103 140.407 17.1401C140.138 17.77 139.772 18.2559 139.308 18.5977C138.844 18.9395 138.314 19.1104 137.719 19.1104C137.104 19.1104 136.559 18.9321 136.085 18.5757C135.612 18.2144 135.243 17.7041 134.979 17.0449C134.716 16.3809 134.584 15.6094 134.584 14.7305C134.584 13.8467 134.716 13.0728 134.979 12.4087C135.243 11.7446 135.612 11.2319 136.085 10.8706C136.559 10.5044 137.104 10.3213 137.719 10.3213ZM137.719 10.9365C137.235 10.9365 136.806 11.1001 136.43 11.4272C136.059 11.7495 135.768 12.1987 135.558 12.7749C135.353 13.3511 135.253 14.0029 135.258 14.7305C135.253 15.4531 135.353 16.1025 135.558 16.6787C135.768 17.2549 136.059 17.7041 136.43 18.0264C136.806 18.3486 137.235 18.5098 137.719 18.5098C138.197 18.5098 138.625 18.3486 139 18.0264C139.376 17.6992 139.669 17.25 139.879 16.6787C140.089 16.1025 140.194 15.4531 140.194 14.7305C140.194 14.0029 140.089 13.3511 139.879 12.7749C139.669 12.1987 139.376 11.7495 139 11.4272C138.625 11.1001 138.197 10.9365 137.719 10.9365ZM159.047 20.3408H147.299V19.7256H150.39V16.0488C149.804 15.7754 149.347 15.4116 149.02 14.9575C148.693 14.5034 148.529 13.9883 148.529 13.4121C148.529 12.7725 148.725 12.2109 149.115 11.7275C149.506 11.2393 150.048 10.8633 150.741 10.5996C151.439 10.3359 152.235 10.2041 153.129 10.2041C154.027 10.2041 154.823 10.3359 155.517 10.5996C156.215 10.8633 156.757 11.2393 157.143 11.7275C157.533 12.2109 157.729 12.7725 157.729 13.4121C157.729 13.9834 157.57 14.4937 157.252 14.9429C156.94 15.3872 156.498 15.7485 155.927 16.0269V19.7256H159.047V20.3408ZM153.129 10.79C152.382 10.79 151.706 10.9023 151.1 11.127C150.5 11.3467 150.028 11.6567 149.687 12.0571C149.345 12.4575 149.174 12.9092 149.174 13.4121C149.174 13.9102 149.345 14.3594 149.687 14.7598C150.028 15.1553 150.5 15.4653 151.1 15.6899C151.706 15.9097 152.382 16.0195 153.129 16.0195C153.876 16.0195 154.55 15.9097 155.15 15.6899C155.756 15.4653 156.229 15.1553 156.571 14.7598C156.913 14.3594 157.084 13.9102 157.084 13.4121C157.084 12.9092 156.913 12.4575 156.571 12.0571C156.229 11.6567 155.756 11.3467 155.15 11.127C154.55 10.9023 153.876 10.79 153.129 10.79ZM155.224 19.7256V16.2979C154.594 16.4932 153.896 16.5908 153.129 16.5908C152.382 16.5908 151.693 16.4956 151.063 16.3052V19.7256H155.224Z" fill="black"/>
</svg>
