<svg width="137" height="31" viewBox="0 0 137 31" fill="none" xmlns="http://www.w3.org/2000/svg">
<rect x="0.95" y="0.598437" width="135.1" height="30.1" rx="5.05" stroke="black" stroke-width="0.1"/>
<path d="M25.5979 25.6484H6.40213C6.18096 25.6484 6 25.4675 6 25.2463V6.05056C6 5.8294 6.18096 5.64844 6.40213 5.64844H25.5979C25.819 5.64844 26 5.8294 26 6.05056V25.2463C26 25.4675 25.819 25.6484 25.5979 25.6484Z" fill="#9AFFA9" stroke="black" stroke-width="1.59193" stroke-miterlimit="10" stroke-linejoin="round"/>
<path d="M15.0046 14.4714L13.076 9.97144L11.1475 14.4714" fill="#9AFFA9"/>
<path d="M15.0046 14.4714L13.076 9.97144L11.1475 14.4714" stroke="black" stroke-width="1.59193" stroke-miterlimit="10" stroke-linecap="round" stroke-linejoin="round"/>
<path d="M11.7903 13.3938H14.3617H11.7903Z" fill="#9AFFA9"/>
<path d="M11.7903 13.3938H14.3617" stroke="black" stroke-width="1.59193" stroke-miterlimit="10" stroke-linecap="round" stroke-linejoin="round"/>
<path d="M14.4127 20.817C14.129 21.0686 13.7557 21.2214 13.3466 21.2214C12.459 21.2214 11.7395 20.5019 11.7395 19.6143V18.3286C11.7395 17.441 12.459 16.7214 13.3466 16.7214C13.7557 16.7214 14.129 16.8742 14.4127 17.1259" fill="#9AFFA9"/>
<path d="M14.4127 20.817C14.129 21.0686 13.7557 21.2214 13.3466 21.2214C12.459 21.2214 11.7395 20.5019 11.7395 19.6143V18.3286C11.7395 17.441 12.459 16.7214 13.3466 16.7214C13.7557 16.7214 14.129 16.8742 14.4127 17.1259" stroke="black" stroke-width="1.59193" stroke-miterlimit="10" stroke-linecap="round" stroke-linejoin="round"/>
<path d="M19.6737 12.2213H17.9578V9.97974H19.6737C20.2927 9.97974 20.7945 10.4816 20.7945 11.1006C20.7945 11.7196 20.2927 12.2213 19.6737 12.2213Z" fill="#9AFFA9" stroke="black" stroke-width="1.59193" stroke-miterlimit="10" stroke-linecap="round" stroke-linejoin="round"/>
<path d="M19.6737 14.4631H17.9578V12.2214H19.6737C20.2927 12.2214 20.7945 12.7233 20.7945 13.3423C20.7945 13.9612 20.2927 14.4631 19.6737 14.4631Z" fill="#9AFFA9" stroke="black" stroke-width="1.59193" stroke-miterlimit="10" stroke-linecap="round" stroke-linejoin="round"/>
<path d="M19.9583 21.213H17.9275V16.7297H19.9583C20.4368 16.7297 20.8248 17.1177 20.8248 17.5962V20.3464C20.8248 20.825 20.4368 21.213 19.9583 21.213Z" fill="#9AFFA9" stroke="black" stroke-width="1.59193" stroke-miterlimit="10" stroke-linecap="round" stroke-linejoin="round"/>
<path d="M46.415 14.335H48.6709V14.9355H46.415V21.7471H45.7266V8.91504H46.415V14.335ZM43.1631 10.3359C43.1631 11.5273 42.9482 12.6699 42.5186 13.7637C42.0889 14.8525 41.4297 15.8584 40.541 16.7812C39.6572 17.7041 38.5488 18.4951 37.2158 19.1543L36.835 18.5977C37.9922 18.0264 38.9785 17.3452 39.7939 16.5542C40.6143 15.7583 41.2466 14.8867 41.6909 13.9395C42.1401 12.9873 42.3965 11.9863 42.46 10.9365H37.3623V10.3359H43.1631ZM53.8418 12.7236C53.8418 13.4609 54.02 14.2007 54.3765 14.9429C54.7378 15.6851 55.1992 16.3467 55.7607 16.9277C56.3223 17.5088 56.8936 17.9385 57.4746 18.2168L57.0352 18.7588C56.5566 18.5098 56.083 18.168 55.6143 17.7334C55.1504 17.2939 54.7329 16.791 54.3618 16.2246C53.9956 15.6533 53.7148 15.0552 53.5195 14.4302C53.334 15.0845 53.0581 15.7119 52.6919 16.3125C52.3257 16.9082 51.9106 17.4355 51.4468 17.8945C50.9829 18.3486 50.5117 18.7051 50.0332 18.9639L49.5645 18.3926C50.1406 18.0996 50.707 17.6553 51.2637 17.0596C51.8203 16.459 52.2769 15.7754 52.6333 15.0088C52.9897 14.2422 53.168 13.4805 53.168 12.7236V10.1016H53.8418V12.7236ZM60.0527 21.7617H59.3496V8.91504H60.0527V21.7617ZM66.6592 11.1123C66.6543 11.7227 66.8032 12.3086 67.106 12.8701C67.4136 13.4268 67.8237 13.9126 68.3364 14.3276C68.8491 14.7427 69.4082 15.0576 70.0137 15.2725L69.5889 15.8291C68.8418 15.5264 68.1777 15.0991 67.5967 14.5474C67.0156 13.9907 66.5957 13.3511 66.3369 12.6284C66.0928 13.4438 65.6704 14.1641 65.0698 14.7891C64.4692 15.4092 63.7734 15.8828 62.9824 16.21L62.6016 15.6094C63.2217 15.3799 63.7881 15.0454 64.3008 14.606C64.8135 14.1665 65.2212 13.6465 65.5239 13.0459C65.8315 12.4453 65.9854 11.8057 65.9854 11.127V9.67676H66.6592V11.1123ZM73.0459 16.5615H72.3574V12.5039H69.208V11.9033H72.3574V8.91504H73.0459V16.5615ZM68.8857 16.957C69.7549 16.957 70.5044 17.0522 71.1343 17.2427C71.769 17.4282 72.2549 17.6992 72.5918 18.0557C72.9336 18.4121 73.1045 18.8418 73.1045 19.3447C73.1045 19.8379 72.9336 20.2603 72.5918 20.6118C72.2549 20.9634 71.769 21.2295 71.1343 21.4102C70.5044 21.5957 69.7549 21.6885 68.8857 21.6885C68.0068 21.6885 67.25 21.5957 66.6152 21.4102C65.9854 21.2295 65.502 20.9634 65.165 20.6118C64.8281 20.2603 64.6621 19.8379 64.667 19.3447C64.6621 18.8418 64.8281 18.4121 65.165 18.0557C65.502 17.6943 65.9854 17.4209 66.6152 17.2354C67.25 17.0498 68.0068 16.957 68.8857 16.957ZM68.8857 17.543C68.1777 17.543 67.5552 17.6162 67.0181 17.7627C66.4858 17.9092 66.0732 18.1191 65.7803 18.3926C65.4873 18.666 65.3408 18.9834 65.3408 19.3447C65.3408 19.6963 65.4873 20.0063 65.7803 20.2749C66.0732 20.5386 66.4858 20.7412 67.0181 20.8828C67.5552 21.0293 68.1777 21.1025 68.8857 21.1025C69.5889 21.1025 70.2065 21.0293 70.7388 20.8828C71.271 20.7412 71.6836 20.5386 71.9766 20.2749C72.2695 20.0063 72.416 19.6963 72.416 19.3447C72.416 18.9834 72.2695 18.666 71.9766 18.3926C71.6836 18.1191 71.271 17.9092 70.7388 17.7627C70.2065 17.6162 69.5889 17.543 68.8857 17.543ZM85.9805 21.7617H85.2773V8.91504H85.9805V21.7617ZM79.2568 9.96973C79.877 9.96973 80.4287 10.1528 80.9121 10.519C81.3955 10.8804 81.7739 11.3955 82.0474 12.0645C82.3208 12.7285 82.46 13.5 82.4648 14.3789C82.46 15.2529 82.3208 16.022 82.0474 16.686C81.7739 17.3452 81.3955 17.8555 80.9121 18.2168C80.4287 18.5781 79.877 18.7588 79.2568 18.7588C78.6318 18.7588 78.0752 18.5781 77.5869 18.2168C77.1035 17.8555 76.7251 17.3452 76.4517 16.686C76.1831 16.022 76.0488 15.2529 76.0488 14.3789C76.0488 13.5 76.1831 12.7285 76.4517 12.0645C76.7251 11.3955 77.1035 10.8804 77.5869 10.519C78.0752 10.1528 78.6318 9.96973 79.2568 9.96973ZM79.2568 10.585C78.7637 10.585 78.3242 10.7485 77.9385 11.0757C77.5576 11.3979 77.2598 11.8472 77.0449 12.4233C76.8301 12.9995 76.7227 13.6514 76.7227 14.3789C76.7227 15.1016 76.8301 15.751 77.0449 16.3271C77.2598 16.9033 77.5576 17.3525 77.9385 17.6748C78.3242 17.9971 78.7637 18.1582 79.2568 18.1582C79.7451 18.1582 80.1797 17.9971 80.5605 17.6748C80.9414 17.3477 81.2393 16.8984 81.4541 16.3271C81.6689 15.751 81.7764 15.1016 81.7764 14.3789C81.7764 13.6514 81.6689 12.9995 81.4541 12.4233C81.2393 11.8472 80.9414 11.3979 80.5605 11.0757C80.1797 10.7485 79.7451 10.585 79.2568 10.585ZM98.1387 14.4668H103.676V15.0674H91.9424V14.4668H97.4648V12.709H98.1387V14.4668ZM98.1973 10.0576C98.1973 10.585 98.4438 11.0586 98.937 11.4785C99.4351 11.8984 100.053 12.2378 100.79 12.4966C101.527 12.7554 102.25 12.9189 102.958 12.9873L102.694 13.5586C102.025 13.4756 101.359 13.3242 100.695 13.1045C100.031 12.8799 99.4375 12.5894 98.915 12.2329C98.3926 11.8716 98.0215 11.4541 97.8018 10.9805C97.5869 11.4541 97.2183 11.8716 96.6958 12.2329C96.1733 12.5942 95.5801 12.8848 94.916 13.1045C94.252 13.3242 93.583 13.4756 92.9092 13.5586L92.6602 12.9873C93.3633 12.9189 94.0811 12.7578 94.8135 12.5039C95.5459 12.2451 96.1587 11.9058 96.6519 11.4858C97.145 11.0659 97.3916 10.5898 97.3916 10.0576V9.95508H93.0264V9.36914H102.592V9.95508H98.1973V10.0576ZM102.562 17.6455H93.0703V17.0303H97.4648V15.6533H98.1533V17.0303H102.562V17.6455ZM97.8018 18.4365C99.0518 18.4463 100.004 18.5928 100.658 18.876C101.312 19.1543 101.64 19.5693 101.64 20.1211C101.64 20.6875 101.312 21.1147 100.658 21.4028C100.004 21.6909 99.0518 21.835 97.8018 21.835C96.5566 21.835 95.6069 21.6909 94.9526 21.4028C94.3032 21.1147 93.9785 20.6875 93.9785 20.1211C93.9785 19.5693 94.3032 19.1543 94.9526 18.876C95.6021 18.5928 96.5518 18.4463 97.8018 18.4365ZM97.8018 18.9785C96.8057 18.9883 96.0317 19.0908 95.48 19.2861C94.9331 19.4814 94.6621 19.7598 94.667 20.1211C94.6621 20.4971 94.9355 20.7876 95.4873 20.9927C96.0391 21.2026 96.8105 21.3076 97.8018 21.3076C98.7881 21.3076 99.5596 21.2026 100.116 20.9927C100.673 20.7876 100.951 20.4971 100.951 20.1211C100.951 19.7598 100.673 19.4814 100.116 19.2861C99.5645 19.0908 98.793 18.9883 97.8018 18.9785ZM108.334 9.96973C108.949 9.96973 109.494 10.1528 109.967 10.519C110.441 10.8804 110.81 11.3931 111.073 12.0571C111.342 12.7212 111.479 13.4951 111.483 14.3789C111.479 15.2578 111.342 16.0293 111.073 16.6934C110.81 17.3525 110.441 17.8628 109.967 18.2241C109.494 18.5806 108.949 18.7588 108.334 18.7588C107.719 18.7588 107.174 18.5806 106.701 18.2241C106.227 17.8628 105.858 17.3525 105.595 16.6934C105.331 16.0293 105.199 15.2578 105.199 14.3789C105.199 13.4951 105.331 12.7212 105.595 12.0571C105.858 11.3931 106.227 10.8804 106.701 10.519C107.174 10.1528 107.719 9.96973 108.334 9.96973ZM108.334 10.585C107.851 10.585 107.421 10.7485 107.045 11.0757C106.669 11.3979 106.374 11.8472 106.159 12.4233C105.949 12.9995 105.844 13.6514 105.844 14.3789C105.844 15.1016 105.949 15.751 106.159 16.3271C106.374 16.8984 106.669 17.3477 107.045 17.6748C107.421 17.9971 107.851 18.1582 108.334 18.1582C108.817 18.1582 109.245 17.9971 109.616 17.6748C109.992 17.3525 110.285 16.9058 110.495 16.3345C110.705 15.7583 110.81 15.1064 110.81 14.3789C110.81 13.6465 110.705 12.9946 110.495 12.4233C110.285 11.8472 109.992 11.3979 109.616 11.0757C109.245 10.7485 108.817 10.585 108.334 10.585ZM114.721 14.2324H117.021V14.8477H114.721V21.7471H114.032V8.91504H114.721V14.2324ZM129.633 19.9893H117.885V19.374H120.976V15.6973C120.39 15.4238 119.933 15.0601 119.606 14.606C119.279 14.1519 119.115 13.6367 119.115 13.0605C119.115 12.4209 119.311 11.8594 119.701 11.376C120.092 10.8877 120.634 10.5117 121.327 10.248C122.025 9.98438 122.821 9.85254 123.715 9.85254C124.613 9.85254 125.409 9.98438 126.103 10.248C126.801 10.5117 127.343 10.8877 127.729 11.376C128.119 11.8594 128.314 12.4209 128.314 13.0605C128.314 13.6318 128.156 14.1421 127.838 14.5913C127.526 15.0356 127.084 15.397 126.513 15.6753V19.374H129.633V19.9893ZM123.715 10.4385C122.968 10.4385 122.292 10.5508 121.686 10.7754C121.085 10.9951 120.614 11.3052 120.272 11.7056C119.931 12.106 119.76 12.5576 119.76 13.0605C119.76 13.5586 119.931 14.0078 120.272 14.4082C120.614 14.8037 121.085 15.1138 121.686 15.3384C122.292 15.5581 122.968 15.668 123.715 15.668C124.462 15.668 125.136 15.5581 125.736 15.3384C126.342 15.1138 126.815 14.8037 127.157 14.4082C127.499 14.0078 127.67 13.5586 127.67 13.0605C127.67 12.5576 127.499 12.106 127.157 11.7056C126.815 11.3052 126.342 10.9951 125.736 10.7754C125.136 10.5508 124.462 10.4385 123.715 10.4385ZM125.81 19.374V15.9463C125.18 16.1416 124.481 16.2393 123.715 16.2393C122.968 16.2393 122.279 16.144 121.649 15.9536V19.374H125.81Z" fill="black"/>
</svg>
