<svg width="123" height="41" viewBox="0 0 123 41" fill="none" xmlns="http://www.w3.org/2000/svg">
<rect width="123" height="41" rx="10" fill="#0033FF"/>
<path d="M30.8426 20.8364H19.7314" stroke="white" stroke-width="2" stroke-linecap="round" stroke-linejoin="round"/>
<path d="M26.3982 25.281L30.8426 20.8365L26.3982 16.3921" stroke="white" stroke-width="2" stroke-linecap="round" stroke-linejoin="round"/>
<path d="M25.2871 30.8364C30.81 30.8364 35.2871 26.3593 35.2871 20.8364C35.2871 15.3136 30.81 10.8364 25.2871 10.8364C19.7643 10.8364 15.2871 15.3136 15.2871 20.8364C15.2871 26.3593 19.7643 30.8364 25.2871 30.8364Z" stroke="white" stroke-width="2" stroke-linecap="round" stroke-linejoin="round"/>
<path d="M52.875 22.5527C56.127 22.5527 58.0957 23.6426 58.0957 25.5059C58.0957 27.3867 56.127 28.4766 52.875 28.4941C49.5879 28.4766 47.584 27.3867 47.584 25.5059C47.584 23.6426 49.5879 22.5527 52.875 22.5527ZM52.875 23.8711C50.5898 23.8711 49.2363 24.4512 49.2539 25.5059C49.2363 26.5605 50.5898 27.1582 52.875 27.1582C55.1426 27.1582 56.4609 26.5605 56.4609 25.5059C56.4609 24.4512 55.1426 23.8711 52.875 23.8711ZM57.9551 12.7441V16.5938H60.2402V18.0176H57.9551V22.1484H56.2852V12.7441H57.9551ZM47.8301 13.7285V15.9961H51.9609V13.7285H53.6133V21.041H46.1953V13.7285H47.8301ZM47.8301 19.7051H51.9609V17.3145H47.8301V19.7051ZM75.5332 20.707V22.0605H69.2754V25.1191H67.623V22.0605H61.1191V20.707H75.5332ZM73.6699 13.4824V19.0723H62.9648V13.4824H73.6699ZM64.5996 14.8008V17.7539H72.0176V14.8008H64.5996ZM73.9336 26.8066V28.1602H62.9121V23.625H64.582V26.8066H73.9336ZM88.9629 12.7441V19.125H91.4941V20.5137H88.9629V28.4941H87.3105V12.7441H88.9629ZM85.9395 15.2051V16.5762H76.6055V15.2051H80.4902V12.9551H82.1602V15.2051H85.9395ZM81.334 17.7363C83.584 17.7363 85.2363 19.248 85.2539 21.3926C85.2363 23.5547 83.584 25.0488 81.334 25.0664C79.0664 25.0488 77.4141 23.5547 77.4141 21.3926C77.4141 19.248 79.0664 17.7363 81.334 17.7363ZM81.334 19.1074C79.998 19.1074 78.9961 20.0391 79.0137 21.3926C78.9961 22.7637 79.998 23.6777 81.334 23.6602C82.6699 23.6777 83.6543 22.7637 83.6543 21.3926C83.6543 20.0391 82.6699 19.1074 81.334 19.1074ZM105.346 12.7441V28.4941H103.658V12.7441H105.346ZM100.652 14.4316C100.652 19.0371 98.6836 23.0449 93.2871 25.6289L92.4082 24.2754C96.6006 22.2803 98.6396 19.4414 98.9648 15.7676H93.1641V14.4316H100.652Z" fill="white"/>
</svg>
