<svg width="166" height="32" viewBox="0 0 166 32" fill="none" xmlns="http://www.w3.org/2000/svg">
<rect x="0.95" y="0.95" width="164.1" height="30.1" rx="5.05" stroke="black" stroke-width="0.1"/>
<path d="M7.73389 9.58514L10.445 6.87402L11.1051 7.53413L8.394 10.2452L7.73389 9.58514ZM12.471 10.2669L15.1825 7.55647L15.8426 8.21658L13.1311 10.927L12.471 10.2669ZM21.7689 23.6215L24.4807 20.911L25.1408 21.5715L22.429 24.2819L21.7689 23.6215ZM21.0918 18.855L23.8035 16.1446L24.4637 16.805L21.7515 19.5154L21.0918 18.855Z" fill="#ACB8BF"/>
<path d="M24.1326 25.5704L22.5657 11.5347L20.4653 9.43435L6.42965 7.86742C5.76288 7.80075 5.89623 9.46769 6.66303 9.83442L17.2314 14.7686L22.1656 25.337C22.5323 26.1038 24.1993 26.2371 24.1326 25.5704Z" fill="#42ADE2"/>
<path d="M25.7662 8.03411C26.4996 6.60054 25.3994 5.50036 23.9659 6.23381C22.1322 7.1673 19.4318 9.26765 16.698 11.9681C12.4306 16.2355 9.69684 20.4695 10.597 21.403C11.4971 22.3031 15.7645 19.5694 20.0319 15.302C22.7323 12.6015 24.8327 9.86775 25.7662 8.03411Z" fill="#DAE3EA"/>
<path d="M12.7973 25.4035L12.2639 20.4694L11.5304 19.7359L6.59625 19.2025C6.36288 19.1692 6.39622 19.7693 6.66293 19.9026L10.3635 21.6362L12.0972 25.3369C12.2305 25.6036 12.8306 25.6369 12.7973 25.4035Z" fill="#42ADE2"/>
<path d="M12.0639 20.7362C10.5636 22.2364 9.19673 23.2699 8.9967 23.0366C8.79666 22.8365 9.83017 21.4363 11.2971 19.9361C12.7973 18.4358 14.1642 17.4023 14.3976 17.6357C14.5643 17.8357 13.5308 19.2359 12.0639 20.7362Z" fill="#ACB8BF"/>
<path d="M25.2661 8.56749C25.4328 7.96739 25.3661 7.40063 24.9994 7.00057C24.6327 6.63384 24.0326 6.53382 23.4658 6.73386L22.3323 7.43397C22.899 7.23394 23.7325 7.53399 24.0992 7.90072C24.4993 8.30078 24.766 9.10091 24.566 9.66767L25.2661 8.56749Z" fill="#3E4347"/>
<path d="M23.2205 8.56584L25.1054 6.6792L25.3178 6.89123L23.4325 8.77821L23.2205 8.56584Z" fill="#DAE3EA"/>
<path d="M46.9863 19.0518H46.2832V17.499H43.5146V16.9424H46.2832V9.28125H46.9863V19.0518ZM47.3232 21.7617H38.5049V18.0703H39.208V21.1611H47.3232V21.7617ZM36.5273 15.375C38.1973 15.375 39.7134 15.353 41.0757 15.3091C42.438 15.2603 43.7295 15.1553 44.9502 14.9941L45.0088 15.5361C43.8662 15.7119 42.5967 15.8364 41.2002 15.9097V18.5098H40.4971V15.939C39.54 15.9731 38.5635 15.9902 37.5674 15.9902H36.6445L36.5273 15.375ZM40.7754 9.85254C41.3955 9.85254 41.9424 9.94287 42.416 10.1235C42.8896 10.2993 43.2559 10.5532 43.5146 10.8853C43.7783 11.2173 43.9102 11.6055 43.9102 12.0498C43.9102 12.499 43.7783 12.8896 43.5146 13.2217C43.2559 13.5488 42.8896 13.8027 42.416 13.9834C41.9473 14.1592 41.4004 14.2471 40.7754 14.2471C40.1455 14.2471 39.5913 14.1592 39.1128 13.9834C38.6343 13.8027 38.2632 13.5488 37.9995 13.2217C37.7407 12.8896 37.6113 12.499 37.6113 12.0498C37.6113 11.6055 37.7407 11.2173 37.9995 10.8853C38.2632 10.5532 38.6343 10.2993 39.1128 10.1235C39.5913 9.94287 40.1455 9.85254 40.7754 9.85254ZM40.7754 10.4092C40.292 10.4043 39.8599 10.4727 39.479 10.6143C39.0981 10.7559 38.8027 10.9536 38.5928 11.2075C38.3828 11.4565 38.2803 11.7373 38.2852 12.0498C38.2803 12.3672 38.3828 12.6504 38.5928 12.8994C38.8027 13.1484 39.0957 13.3438 39.4717 13.4854C39.8525 13.6221 40.2871 13.6904 40.7754 13.6904C41.249 13.6904 41.6714 13.6221 42.0425 13.4854C42.4185 13.3438 42.7114 13.1484 42.9214 12.8994C43.1313 12.6504 43.2363 12.3672 43.2363 12.0498C43.2363 11.7373 43.1313 11.4565 42.9214 11.2075C42.7114 10.9536 42.4185 10.7559 42.0425 10.6143C41.6665 10.4727 41.2441 10.4043 40.7754 10.4092ZM59.3789 14.7158H61.6787V15.3311H59.3789V22.0986H58.6904V9.2666H59.3789V14.7158ZM57.1963 12.0352H49.5059V11.4199H53.0508V9.38379H53.7539V11.4199H57.1963V12.0352ZM53.4316 13.3096C54.0176 13.3145 54.54 13.439 54.999 13.6831C55.4629 13.9272 55.8242 14.269 56.083 14.7085C56.3467 15.1431 56.4785 15.6387 56.4785 16.1953C56.4785 16.752 56.3467 17.25 56.083 17.6895C55.8242 18.124 55.4629 18.4634 54.999 18.7075C54.54 18.9468 54.0176 19.0664 53.4316 19.0664C52.8408 19.0664 52.3135 18.9468 51.8496 18.7075C51.3857 18.4634 51.022 18.124 50.7583 17.6895C50.4995 17.25 50.3701 16.752 50.3701 16.1953C50.3701 15.6387 50.4995 15.1431 50.7583 14.7085C51.022 14.269 51.3857 13.9272 51.8496 13.6831C52.3135 13.439 52.8408 13.3145 53.4316 13.3096ZM53.4316 13.9248C52.9775 13.9297 52.5674 14.0322 52.2012 14.2324C51.835 14.4326 51.5469 14.7061 51.3369 15.0527C51.1318 15.3945 51.0293 15.7754 51.0293 16.1953C51.0293 16.6152 51.1318 16.9985 51.3369 17.3452C51.5469 17.687 51.835 17.9556 52.2012 18.1509C52.5674 18.3462 52.9775 18.4414 53.4316 18.4365C53.8809 18.4414 54.2861 18.3462 54.6475 18.1509C55.0088 17.9556 55.292 17.687 55.4971 17.3452C55.707 16.9985 55.8145 16.6152 55.8193 16.1953C55.8145 15.7754 55.707 15.3945 55.4971 15.0527C55.292 14.7061 55.0088 14.4326 54.6475 14.2324C54.2861 14.0322 53.8809 13.9297 53.4316 13.9248ZM72.8701 13.998H64.2129V9.73535H64.9014V13.3975H72.8701V13.998ZM74.2617 16.5908H62.5283V15.9902H74.2617V16.5908ZM72.958 21.7617H64.1543V18.0557H64.8428V21.1465H72.958V21.7617ZM89.4814 22.0986H88.793V9.2666H89.4814V22.0986ZM85.7021 10.6875C85.7021 11.8936 85.48 13.0459 85.0356 14.1445C84.5913 15.2383 83.915 16.2466 83.0068 17.1694C82.0986 18.0923 80.9707 18.8809 79.623 19.5352L79.2422 18.9492C80.4189 18.3877 81.4248 17.7139 82.2598 16.9277C83.0996 16.1416 83.749 15.2725 84.208 14.3203C84.667 13.3633 84.9307 12.3525 84.999 11.2881H79.7695V10.6875H85.7021ZM102.284 13.7051H93.627V9.54492H94.3154V13.0898H102.284V13.7051ZM103.646 16.0635H91.957V15.4629H103.646V16.0635ZM97.8018 17.4258C98.71 17.4258 99.4912 17.5161 100.146 17.6968C100.805 17.8774 101.308 18.1411 101.654 18.4878C102.006 18.8345 102.182 19.252 102.182 19.7402C102.182 20.2188 102.006 20.6289 101.654 20.9707C101.308 21.3125 100.805 21.5737 100.146 21.7544C99.4863 21.9351 98.7051 22.0254 97.8018 22.0254C96.8936 22.0254 96.1099 21.9351 95.4507 21.7544C94.7915 21.5737 94.2861 21.3125 93.9346 20.9707C93.583 20.6289 93.4072 20.2188 93.4072 19.7402C93.4072 19.252 93.583 18.8345 93.9346 18.4878C94.2861 18.1411 94.7891 17.8774 95.4434 17.6968C96.1025 17.5161 96.8887 17.4258 97.8018 17.4258ZM97.8018 18.0117C97.0596 18.0117 96.4102 18.0825 95.8535 18.2241C95.2969 18.3608 94.8672 18.561 94.5645 18.8247C94.2617 19.0835 94.1104 19.3887 94.1104 19.7402C94.1104 20.082 94.2617 20.3823 94.5645 20.6411C94.8672 20.895 95.2969 21.0903 95.8535 21.2271C96.4102 21.3687 97.0596 21.4395 97.8018 21.4395C98.5391 21.4395 99.1836 21.3687 99.7354 21.2271C100.292 21.0903 100.722 20.895 101.024 20.6411C101.327 20.3823 101.479 20.082 101.479 19.7402C101.479 19.3887 101.327 19.0835 101.024 18.8247C100.722 18.561 100.292 18.3608 99.7354 18.2241C99.1836 18.0825 98.5391 18.0117 97.8018 18.0117ZM115.395 22.1133H114.691V9.2666H115.395V22.1133ZM108.671 10.3213C109.291 10.3213 109.843 10.5044 110.326 10.8706C110.81 11.2319 111.188 11.7471 111.461 12.416C111.735 13.0801 111.874 13.8516 111.879 14.7305C111.874 15.6045 111.735 16.3735 111.461 17.0376C111.188 17.6968 110.81 18.207 110.326 18.5684C109.843 18.9297 109.291 19.1104 108.671 19.1104C108.046 19.1104 107.489 18.9297 107.001 18.5684C106.518 18.207 106.139 17.6968 105.866 17.0376C105.597 16.3735 105.463 15.6045 105.463 14.7305C105.463 13.8516 105.597 13.0801 105.866 12.416C106.139 11.7471 106.518 11.2319 107.001 10.8706C107.489 10.5044 108.046 10.3213 108.671 10.3213ZM108.671 10.9365C108.178 10.9365 107.738 11.1001 107.353 11.4272C106.972 11.7495 106.674 12.1987 106.459 12.7749C106.244 13.3511 106.137 14.0029 106.137 14.7305C106.137 15.4531 106.244 16.1025 106.459 16.6787C106.674 17.2549 106.972 17.7041 107.353 18.0264C107.738 18.3486 108.178 18.5098 108.671 18.5098C109.159 18.5098 109.594 18.3486 109.975 18.0264C110.355 17.6992 110.653 17.25 110.868 16.6787C111.083 16.1025 111.19 15.4531 111.19 14.7305C111.19 14.0029 111.083 13.3511 110.868 12.7749C110.653 12.1987 110.355 11.7495 109.975 11.4272C109.594 11.1001 109.159 10.9365 108.671 10.9365ZM125.487 18.0996C125.487 18.5098 125.568 18.9199 125.729 19.3301C125.895 19.7354 126.132 20.1113 126.439 20.458C126.752 20.8047 127.123 21.0854 127.553 21.3003C127.978 21.061 128.349 20.7583 128.666 20.3921C128.983 20.0259 129.228 19.6401 129.398 19.2349C129.569 18.8296 129.657 18.4512 129.662 18.0996V17.2354H130.336V18.0996C130.331 18.5391 130.443 18.9761 130.673 19.4106C130.907 19.8452 131.232 20.2358 131.647 20.5825C132.067 20.9292 132.543 21.1953 133.075 21.3809L132.694 21.9229C132.05 21.6836 131.491 21.3369 131.017 20.8828C130.543 20.4238 130.199 19.9087 129.984 19.3374C129.784 19.9038 129.477 20.4287 129.062 20.9121C128.651 21.3955 128.158 21.7666 127.582 22.0254C126.972 21.7764 126.457 21.4199 126.037 20.9561C125.617 20.4873 125.314 19.9624 125.128 19.3813C124.894 19.9282 124.542 20.4287 124.074 20.8828C123.61 21.3369 123.07 21.6836 122.455 21.9229L122.089 21.3809C122.606 21.1807 123.073 20.9023 123.488 20.5459C123.903 20.1846 124.228 19.7891 124.462 19.3594C124.701 18.9248 124.823 18.5049 124.828 18.0996V17.2354H125.487V18.0996ZM131.874 16.6494H131.171V9.28125H131.874V16.6494ZM125.004 10.0723C125.639 10.0771 126.203 10.2041 126.696 10.4531C127.194 10.6973 127.58 11.0439 127.853 11.4932C128.131 11.9375 128.271 12.4502 128.271 13.0312C128.271 13.6025 128.131 14.1104 127.853 14.5547C127.58 14.9941 127.194 15.3359 126.696 15.5801C126.203 15.8242 125.639 15.9463 125.004 15.9463C124.369 15.9463 123.803 15.8242 123.305 15.5801C122.807 15.3359 122.418 14.9941 122.14 14.5547C121.867 14.1104 121.732 13.6025 121.737 13.0312C121.732 12.4502 121.867 11.9375 122.14 11.4932C122.418 11.0439 122.807 10.6973 123.305 10.4531C123.803 10.2041 124.369 10.0771 125.004 10.0723ZM125.004 10.6875C124.511 10.6875 124.066 10.79 123.671 10.9951C123.275 11.2002 122.965 11.481 122.741 11.8374C122.521 12.1938 122.411 12.5918 122.411 13.0312C122.411 13.4707 122.521 13.8687 122.741 14.2251C122.965 14.5767 123.275 14.855 123.671 15.0601C124.066 15.2603 124.511 15.3604 125.004 15.3604C125.497 15.3604 125.941 15.2603 126.337 15.0601C126.732 14.855 127.04 14.5767 127.26 14.2251C127.484 13.8687 127.597 13.4707 127.597 13.0312C127.597 12.5918 127.484 12.1938 127.26 11.8374C127.04 11.481 126.732 11.2002 126.337 10.9951C125.941 10.79 125.497 10.6875 125.004 10.6875ZM137.719 10.3213C138.3 10.3213 138.817 10.4849 139.271 10.812C139.726 11.1392 140.089 11.6055 140.363 12.2109C140.636 12.8164 140.792 13.5244 140.832 14.335H144.149V9.2666H144.838V22.1133H144.149V14.9355H140.839C140.819 15.7754 140.675 16.5103 140.407 17.1401C140.138 17.77 139.772 18.2559 139.308 18.5977C138.844 18.9395 138.314 19.1104 137.719 19.1104C137.104 19.1104 136.559 18.9321 136.085 18.5757C135.612 18.2144 135.243 17.7041 134.979 17.0449C134.716 16.3809 134.584 15.6094 134.584 14.7305C134.584 13.8467 134.716 13.0728 134.979 12.4087C135.243 11.7446 135.612 11.2319 136.085 10.8706C136.559 10.5044 137.104 10.3213 137.719 10.3213ZM137.719 10.9365C137.235 10.9365 136.806 11.1001 136.43 11.4272C136.059 11.7495 135.768 12.1987 135.558 12.7749C135.353 13.3511 135.253 14.0029 135.258 14.7305C135.253 15.4531 135.353 16.1025 135.558 16.6787C135.768 17.2549 136.059 17.7041 136.43 18.0264C136.806 18.3486 137.235 18.5098 137.719 18.5098C138.197 18.5098 138.625 18.3486 139 18.0264C139.376 17.6992 139.669 17.25 139.879 16.6787C140.089 16.1025 140.194 15.4531 140.194 14.7305C140.194 14.0029 140.089 13.3511 139.879 12.7749C139.669 12.1987 139.376 11.7495 139 11.4272C138.625 11.1001 138.197 10.9365 137.719 10.9365ZM159.047 20.3408H147.299V19.7256H150.39V16.0488C149.804 15.7754 149.347 15.4116 149.02 14.9575C148.693 14.5034 148.529 13.9883 148.529 13.4121C148.529 12.7725 148.725 12.2109 149.115 11.7275C149.506 11.2393 150.048 10.8633 150.741 10.5996C151.439 10.3359 152.235 10.2041 153.129 10.2041C154.027 10.2041 154.823 10.3359 155.517 10.5996C156.215 10.8633 156.757 11.2393 157.143 11.7275C157.533 12.2109 157.729 12.7725 157.729 13.4121C157.729 13.9834 157.57 14.4937 157.252 14.9429C156.94 15.3872 156.498 15.7485 155.927 16.0269V19.7256H159.047V20.3408ZM153.129 10.79C152.382 10.79 151.706 10.9023 151.1 11.127C150.5 11.3467 150.028 11.6567 149.687 12.0571C149.345 12.4575 149.174 12.9092 149.174 13.4121C149.174 13.9102 149.345 14.3594 149.687 14.7598C150.028 15.1553 150.5 15.4653 151.1 15.6899C151.706 15.9097 152.382 16.0195 153.129 16.0195C153.876 16.0195 154.55 15.9097 155.15 15.6899C155.756 15.4653 156.229 15.1553 156.571 14.7598C156.913 14.3594 157.084 13.9102 157.084 13.4121C157.084 12.9092 156.913 12.4575 156.571 12.0571C156.229 11.6567 155.756 11.3467 155.15 11.127C154.55 10.9023 153.876 10.79 153.129 10.79ZM155.224 19.7256V16.2979C154.594 16.4932 153.896 16.5908 153.129 16.5908C152.382 16.5908 151.693 16.4956 151.063 16.3052V19.7256H155.224Z" fill="black"/>
</svg>
