<svg width="178" height="42" viewBox="0 0 178 42" fill="none" xmlns="http://www.w3.org/2000/svg">
<rect y="0.5" width="178" height="41" rx="10" fill="#0033FF"/>
<path d="M30.8426 21.3365H19.7315" stroke="white" stroke-width="2" stroke-linecap="round" stroke-linejoin="round"/>
<path d="M26.3981 25.7809L30.8426 21.3365L26.3981 16.892" stroke="white" stroke-width="2" stroke-linecap="round" stroke-linejoin="round"/>
<path d="M25.287 31.3365C30.8099 31.3365 35.287 26.8594 35.287 21.3365C35.287 15.8136 30.8099 11.3365 25.287 11.3365C19.7642 11.3365 15.287 15.8136 15.287 21.3365C15.287 26.8594 19.7642 31.3365 25.287 31.3365Z" stroke="white" stroke-width="2" stroke-linecap="round" stroke-linejoin="round"/>
<path d="M58.6758 13.2441V28.9941H56.9883V13.2441H58.6758ZM54.9316 14.8613V16.2324H53.2969V23.5449C54.1143 23.4922 54.9229 23.4219 55.7051 23.334L55.793 24.5645C52.3828 25.1094 48.6387 25.1621 45.7383 25.1797L45.5449 23.791L47.6191 23.7734V16.2324H45.9668V14.8613H54.9316ZM49.2363 23.7383C50.0273 23.7207 50.8447 23.6943 51.6621 23.6504V16.2324H49.2363V23.7383ZM73.8984 20.7148V22.0859H62.9297V14.6504H73.7578V16.0215H64.582V20.7148H73.8984ZM75.5508 25.5312V26.9199H61.1367V25.5312H75.5508ZM78.9434 14.2461V16.6543H81.9844V14.2461H83.5312V21.6816H77.3613V14.2461H78.9434ZM78.9434 20.3281H81.9844V17.9551H78.9434V20.3281ZM90.123 13.2617V22.7188H88.541V18.6406H86.6953V22.6133H85.1484V13.543H86.6953V17.2695H88.541V13.2617H90.123ZM90.123 23.5977V28.9941H88.4707V24.9512H79.418V23.5977H90.123ZM102.146 16.0742C102.146 18.0781 103.535 19.9941 105.943 20.8027L105.1 22.1035C103.315 21.4883 102.006 20.2578 101.32 18.7109C100.635 20.416 99.2725 21.752 97.418 22.4023L96.5215 21.1016C98.9824 20.2578 100.459 18.2363 100.477 16.0566V15.6348H97.0137V14.2812H105.539V15.6348H102.146V16.0742ZM109.02 13.2441V17.2871H111.305V18.6934H109.02V22.7363H107.35V13.2441H109.02ZM109.02 23.5098V28.9941H107.35V24.8633H98.6133V23.5098H109.02ZM117.791 15.5996C117.791 17.8145 119.215 19.7832 121.605 20.5566L120.691 21.8574C118.96 21.2334 117.686 20.0205 117 18.4473C116.314 20.249 114.943 21.6465 113.045 22.332L112.148 20.9961C114.662 20.1348 116.121 18.043 116.139 15.6699V14.123H117.791V15.5996ZM125.332 13.2441V22.543H123.662V17.8145H120.34V16.4434H123.662V13.2441H125.332ZM120.059 22.9824C123.363 22.9824 125.385 24.0723 125.385 25.9883C125.385 27.8867 123.363 28.9766 120.059 28.959C116.754 28.9766 114.715 27.8867 114.732 25.9883C114.715 24.0723 116.754 22.9824 120.059 22.9824ZM120.059 24.2832C117.756 24.2832 116.385 24.8984 116.385 25.9883C116.385 27.043 117.756 27.6406 120.059 27.6406C122.361 27.6406 123.732 27.043 123.732 25.9883C123.732 24.8984 122.361 24.2832 120.059 24.2832ZM144.422 13.2441V19.625H146.953V21.0137H144.422V28.9941H142.77V13.2441H144.422ZM141.398 15.7051V17.0762H132.064V15.7051H135.949V13.4551H137.619V15.7051H141.398ZM136.793 18.2363C139.043 18.2363 140.695 19.748 140.713 21.8926C140.695 24.0547 139.043 25.5488 136.793 25.5664C134.525 25.5488 132.873 24.0547 132.873 21.8926C132.873 19.748 134.525 18.2363 136.793 18.2363ZM136.793 19.6074C135.457 19.6074 134.455 20.5391 134.473 21.8926C134.455 23.2637 135.457 24.1777 136.793 24.1602C138.129 24.1777 139.113 23.2637 139.113 21.8926C139.113 20.5391 138.129 19.6074 136.793 19.6074ZM160.805 13.2441V28.9941H159.117V13.2441H160.805ZM156.111 14.9316C156.111 19.5371 154.143 23.5449 148.746 26.1289L147.867 24.7754C152.06 22.7803 154.099 19.9414 154.424 16.2676H148.623V14.9316H156.111Z" fill="white"/>
</svg>
